/* XPM */
static char * 00_xpm[] = {
"64 64 342 2",
"  	c #000000",
". 	c #000100",
"+ 	c #010601",
"@ 	c #010C01",
"# 	c #010D01",
"$ 	c #010B01",
"% 	c #000400",
"& 	c #021902",
"* 	c #145C14",
"= 	c #1E7D1E",
"- 	c #208120",
"; 	c #1F801F",
"> 	c #1C751C",
", 	c #0D460D",
"' 	c #063706",
") 	c #2CB92C",
"! 	c #3EF83E",
"~ 	c #40FF40",
"{ 	c #40FE40",
"] 	c #3AEA3A",
"^ 	c #209020",
"/ 	c #010F01",
"( 	c #072C07",
"_ 	c #146114",
": 	c #229622",
"< 	c #26A726",
"[ 	c #28AD28",
"} 	c #35D935",
"| 	c #3FFB3F",
"1 	c #3CF33C",
"2 	c #2FC62F",
"3 	c #27A827",
"4 	c #26A626",
"5 	c #208E20",
"6 	c #156515",
"7 	c #093B09",
"8 	c #000500",
"9 	c #031A03",
"0 	c #114811",
"a 	c #259825",
"b 	c #3AE83A",
"c 	c #41FF41",
"d 	c #37DC37",
"e 	c #279E27",
"f 	c #145E14",
"g 	c #000600",
"h 	c #072F07",
"i 	c #125012",
"j 	c #155715",
"k 	c #165A16",
"l 	c #1A681A",
"m 	c #228722",
"n 	c #2BAE2B",
"o 	c #2FBC2F",
"p 	c #30C030",
"q 	c #38E038",
"r 	c #3FFC3F",
"s 	c #3DF53D",
"t 	c #34D234",
"u 	c #2EBB2E",
"v 	c #2AA92A",
"w 	c #228B22",
"x 	c #1B6D1B",
"y 	c #155815",
"z 	c #155615",
"A 	c #0F460F",
"B 	c #031D03",
"C 	c #1F8C1F",
"D 	c #37DF37",
"E 	c #3BEA3B",
"F 	c #30C230",
"G 	c #135A13",
"H 	c #052A05",
"I 	c #0F530F",
"J 	c #2DBE2D",
"K 	c #3EF93E",
"L 	c #3AEB3A",
"M 	c #239823",
"N 	c #073307",
"O 	c #093A09",
"P 	c #114D11",
"Q 	c #1F7F1F",
"R 	c #32CB32",
"S 	c #3CF13C",
"T 	c #3CF23C",
"U 	c #30C830",
"V 	c #115E11",
"W 	c #052B05",
"X 	c #0E510E",
"Y 	c #136313",
"Z 	c #136413",
"` 	c #3BEE3B",
" .	c #34D334",
"..	c #27A227",
"+.	c #1B7A1B",
"@.	c #126012",
"#.	c #177117",
"$.	c #2CBB2C",
"%.	c #3CF03C",
"&.	c #249E24",
"*.	c #146614",
"=.	c #1A721A",
"-.	c #37DB37",
";.	c #35DA35",
">.	c #1D871D",
",.	c #126112",
"'.	c #0D4D0D",
").	c #063206",
"!.	c #021602",
"~.	c #1D771D",
"{.	c #33CE33",
"].	c #3FFA3F",
"^.	c #2DBD2D",
"/.	c #083F08",
"(.	c #187318",
"_.	c #36DC36",
":.	c #31C531",
"<.	c #208720",
"[.	c #0C460C",
"}.	c #3EFA3E",
"|.	c #094009",
"1.	c #000200",
"2.	c #000700",
"3.	c #000300",
"4.	c #187418",
"5.	c #000A00",
"6.	c #001600",
"7.	c #001F00",
"8.	c #002100",
"9.	c #001E00",
"0.	c #000F00",
"a.	c #000E00",
"b.	c #001A00",
"c.	c #002000",
"d.	c #001900",
"e.	c #001000",
"f.	c #000C00",
"g.	c #001C00",
"h.	c #002600",
"i.	c #002900",
"j.	c #002500",
"k.	c #001300",
"l.	c #002800",
"m.	c #002700",
"n.	c #001500",
"o.	c #001B00",
"p.	c #000D00",
"q.	c #001400",
"r.	c #002300",
"s.	c #000B00",
"t.	c #001200",
"u.	c #002400",
"v.	c #001800",
"w.	c #002200",
"x.	c #001100",
"y.	c #001700",
"z.	c #000800",
"A.	c #000900",
"B.	c #33CF33",
"C.	c #3FFD3F",
"D.	c #062D06",
"E.	c #146714",
"F.	c #27A927",
"G.	c #35D335",
"H.	c #28A328",
"I.	c #1B7D1B",
"J.	c #146814",
"K.	c #0C500C",
"L.	c #012B01",
"M.	c #043804",
"N.	c #105B10",
"O.	c #156A15",
"P.	c #1A751A",
"Q.	c #269A26",
"R.	c #1E891E",
"S.	c #0E4F0E",
"T.	c #073407",
"U.	c #021702",
"V.	c #1F8E1F",
"W.	c #38E238",
"X.	c #30C330",
"Y.	c #0E4A0E",
"Z.	c #0C390C",
"`.	c #1E7A1E",
" +	c #33CD33",
".+	c #3EF63E",
"++	c #31CB31",
"@+	c #0E4B0E",
"#+	c #1D7B1D",
"$+	c #1F821F",
"%+	c #196C19",
"&+	c #104E10",
"*+	c #052F05",
"=+	c #0E480E",
"-+	c #1A701A",
";+	c #208520",
">+	c #186D18",
",+	c #063006",
"'+	c #187518",
")+	c #32CE32",
"!+	c #2FC52F",
"~+	c #26A126",
"{+	c #197019",
"]+	c #001D00",
"^+	c #011B01",
"/+	c #083208",
"(+	c #166516",
"_+	c #28A928",
":+	c #0D4E0D",
"<+	c #219521",
"[+	c #3BED3B",
"}+	c #33CC33",
"|+	c #228D22",
"1+	c #0F4D0F",
"2+	c #0D3B0D",
"3+	c #35D635",
"4+	c #34D434",
"5+	c #136513",
"6+	c #0B340B",
"7+	c #165B16",
"8+	c #1B701B",
"9+	c #1C711C",
"0+	c #2AAD2A",
"a+	c #3CEF3C",
"b+	c #38DE38",
"c+	c #2EB72E",
"d+	c #1B6F1B",
"e+	c #125512",
"f+	c #022502",
"g+	c #073607",
"h+	c #166216",
"i+	c #1C741C",
"j+	c #228922",
"k+	c #2CAE2C",
"l+	c #39E239",
"m+	c #36DB36",
"n+	c #238F23",
"o+	c #0C3B0C",
"p+	c #031B03",
"q+	c #1D751D",
"r+	c #32CC32",
"s+	c #40FD40",
"t+	c #2CBA2C",
"u+	c #177217",
"v+	c #0C450C",
"w+	c #1D781D",
"x+	c #34CF34",
"y+	c #36DD36",
"z+	c #31C631",
"A+	c #218821",
"B+	c #0D470D",
"C+	c #175F17",
"D+	c #28A528",
"E+	c #32CA32",
"F+	c #37DD37",
"G+	c #3DF23D",
"H+	c #39E439",
"I+	c #32C832",
"J+	c #269D26",
"K+	c #135513",
"L+	c #0F410F",
"M+	c #104710",
"N+	c #0F400F",
"O+	c #1A6E1A",
"P+	c #2CB32C",
"Q+	c #35D435",
"R+	c #39E139",
"S+	c #3DF33D",
"T+	c #31C431",
"U+	c #279D27",
"V+	c #196B19",
"W+	c #093709",
"X+	c #042004",
"Y+	c #0A3C0A",
"Z+	c #0E490E",
"`+	c #259F25",
" @	c #279F27",
".@	c #186C18",
"+@	c #0C440C",
"@@	c #125B12",
"#@	c #29AE29",
"$@	c #38E138",
"%@	c #3AE73A",
"&@	c #39E539",
"*@	c #34D534",
"=@	c #218F21",
"-@	c #0D480D",
";@	c #0F4E0F",
">@	c #176417",
",@	c #259425",
"'@	c #36DA36",
")@	c #35D735",
"!@	c #1A791A",
"~@	c #0C420C",
"{@	c #0D490D",
"]@	c #0A390A",
"^@	c #052505",
"/@	c #209120",
"(@	c #39E639",
"_@	c #135E13",
":@	c #063606",
"<@	c #105810",
"[@	c #2DBF2D",
"}@	c #3AEC3A",
"|@	c #239A23",
"1@	c #083C08",
"2@	c #0A420A",
"3@	c #114F11",
"4@	c #34D134",
"5@	c #021B02",
"6@	c #053105",
"7@	c #063506",
"8@	c #093D09",
"9@	c #135213",
"0@	c #259625",
"a@	c #269B26",
"b@	c #166616",
"c@	c #073907",
"d@	c #063406",
"e@	c #042B04",
"f@	c #34D034",
"g@	c #3AE93A",
"h@	c #3DF43D",
"i@	c #238E23",
"j@	c #010701",
"k@	c #041C04",
"l@	c #0D400D",
"m@	c #166316",
"n@	c #186B18",
"o@	c #1C7B1C",
"p@	c #31C731",
"q@	c #196D19",
"r@	c #155E15",
"s@	c #0E420E",
"t@	c #052605",
"u@	c #073A07",
"v@	c #209220",
"w@	c #115B11",
"x@	c #1A7C1A",
"y@	c #1B801B",
"z@	c #1B7F1B",
"A@	c #0A460A",
"                        . + @ # # # # # # # # # # # # # # # # # # # # # # # # # # # # # # # # $ %                               ",
"                        & * = - ; ; ; ; ; ; ; ; ; ; ; ; ; ; ; ; ; ; ; ; ; ; ; ; ; ; ; ; ; ; - > ,                               ",
"                        ' ) ! ~ { { { { { { { { { { { { { { { { { { { { { { { { { { { { { { ~ ] ^                               ",
"              / ( _ : < [ } | ~ ~ ~ ~ ~ ~ ~ ~ ~ ~ ~ ~ ~ ~ ~ ~ ~ ~ ~ ~ ~ ~ ~ ~ ~ ~ ~ ~ ~ ~ ~ ~ 1 2 3 4 5 6 7 8                   ",
"              9 0 a b c c c ~ ~ ~ ~ ~ ~ ~ ~ ~ ~ ~ ~ ~ ~ ~ ~ ~ ~ ~ ~ ~ ~ ~ ~ ~ ~ ~ ~ ~ ~ ~ ~ ~ ~ c c ~ d e f g                   ",
"        h i j k l m n o p q r ~ ~ ~ ~ ~ ~ ~ ~ ~ ~ ~ ~ ~ ~ ~ ~ ~ ~ ~ ~ ~ ~ ~ ~ ~ ~ ~ ~ ~ ~ ~ ~ s t o u v w x y z A B             ",
"        C D s E F w G H I J K c ~ ~ ~ ~ ~ ~ ~ ~ ~ ~ ~ ~ ~ ~ ~ ~ ~ ~ ~ ~ ~ ~ ~ ~ ~ ~ ~ ~ ~ ~ c L M N O P Q R S T U V             ",
"W X Y Z 3 ` c !  ...+.@.#.$.L S %.%.%.%.%.%.%.%.%.%.%.%.%.%.%.%.%.%.%.%.%.%.%.%.%.%.%.%.%.%.S D &.Y *.=.a -.~ ~ ;.>.@.,.'.).!.  ",
"~.{.r ~ ~ ~ ~ ~ ~ ~ ~ c ].^./.                                                                (._.~ ~ ~ ~ ~ ~ ~ ~ ~ ~ s :.<.[.  ",
"~.{.r ~ ~ ~ ~ ~ ~ ~ ~ c }.^.|.  . 1.% g 2.8 1.    . 3.8 g g g g g g 8 3..     3.g g g % 1.    4._.~ ~ ~ ~ ~ ~ ~ ~ ~ ~ s :.<.[.  ",
"~.{.r ~ ~ ~ ~ ~ ~ ~ ~ c }.^.|.  3.5.6.7.8.9.0.    8 a.b.c.8.8.8.8.7.d.e.8   3.6.c.8.9.6.f.1.  4._.~ ~ ~ ~ ~ ~ ~ ~ ~ ~ s :.<.[.  ",
"~.{.r ~ ~ ~ ~ ~ ~ ~ ~ c }.^.|.  % a.g.h.i.j.k.  . 2.k.c.l.l.l.l.l.m.7.n.2.  % o.m.i.j.g.e.3.  4._.~ ~ ~ ~ ~ ~ ~ ~ ~ ~ s :.<.[.  ",
"~.{.r ~ ~ ~ ~ ~ ~ ~ ~ c }.^.|.  % a.g.h.l.l.h.j.j.h.h.m.l.l.l.l.l.l.m.h.h.j.h.m.l.l.j.g.e.3.  4._.~ ~ ~ ~ ~ ~ ~ ~ ~ ~ s :.<.[.  ",
"~.{.r ~ ~ ~ ~ ~ ~ ~ ~ c }.^.|.  % a.g.h.l.l.l.l.l.l.l.l.l.l.l.l.l.l.l.l.l.l.l.l.l.l.j.g.e.3.  4._.~ ~ ~ ~ ~ ~ ~ ~ ~ ~ s :.<.[.  ",
"~.{.r ~ ~ ~ ~ ~ ~ ~ ~ c }.^.|.  % a.g.h.l.l.l.l.l.l.l.l.l.l.l.l.l.l.l.l.l.l.l.l.l.l.j.g.e.3.  4._.~ ~ ~ ~ ~ ~ ~ ~ ~ ~ s :.<.[.  ",
"~.{.r ~ ~ ~ ~ ~ ~ ~ ~ c }.^.|.  % a.g.m.i.l.l.l.l.l.l.l.l.l.l.l.l.l.l.l.l.l.l.l.l.i.j.g.e.3.  4._.~ ~ ~ ~ ~ ~ ~ ~ ~ ~ s :.<.[.  ",
"~.{.r ~ ~ ~ ~ ~ ~ ~ ~ c }.^.|.  . 8 p.q.n.d.r.l.l.l.l.l.l.l.l.l.l.l.l.l.l.l.m.c.6.n.k.p.g .   4._.~ ~ ~ ~ ~ ~ ~ ~ ~ ~ s :.<.[.  ",
"~.{.r ~ ~ ~ ~ ~ ~ ~ ~ c }.^.|.            5.c.l.l.l.l.l.l.l.l.l.l.l.l.l.l.l.m.b.1.            4._.~ ~ ~ ~ ~ ~ ~ ~ ~ ~ s :.<.[.  ",
"~.{.r ~ ~ ~ ~ ~ ~ ~ ~ c }.^.|.            s.c.l.l.l.l.l.l.l.l.l.l.l.l.l.l.l.m.b.3.            4._.~ ~ ~ ~ ~ ~ ~ ~ ~ ~ s :.<.[.  ",
"~.{.r ~ ~ ~ ~ ~ ~ ~ ~ c }.^.|.            5.c.l.l.l.l.l.l.l.l.l.l.l.l.l.l.l.m.b.3.            4._.~ ~ ~ ~ ~ ~ ~ ~ ~ ~ s :.<.[.  ",
"~.{.r ~ ~ ~ ~ ~ ~ ~ ~ c }.^.|.  . 8 p.k.q.d.r.l.l.l.l.l.l.l.l.l.l.l.l.l.l.l.m.7.6.q.t.p.g .   4._.~ ~ ~ ~ ~ ~ ~ ~ ~ ~ s :.<.[.  ",
"~.{.r ~ ~ ~ ~ ~ ~ ~ ~ c }.^.|.  % a.g.m.i.l.l.l.l.l.l.l.l.l.l.l.l.l.l.l.l.l.l.l.l.i.j.g.e.3.  4._.~ ~ ~ ~ ~ ~ ~ ~ ~ ~ s :.<.[.  ",
"~.{.r ~ ~ ~ ~ ~ ~ ~ ~ c }.^.|.  % a.g.h.l.l.l.l.l.l.l.l.l.l.l.l.l.l.l.l.l.l.l.l.l.l.j.g.e.3.  4._.~ ~ ~ ~ ~ ~ ~ ~ ~ ~ s :.<.[.  ",
"~.{.r ~ ~ ~ ~ ~ ~ ~ ~ c }.^.|.  % a.g.h.l.l.l.l.l.l.l.l.l.l.l.l.l.l.l.l.l.l.l.l.l.l.j.g.e.3.  4._.~ ~ ~ ~ ~ ~ ~ ~ ~ ~ s :.<.[.  ",
"~.{.r ~ ~ ~ ~ ~ ~ ~ ~ c }.^.|.  % a.g.h.l.l.h.h.h.h.h.m.l.l.l.l.l.l.m.h.h.h.h.m.l.l.j.g.e.3.  4._.~ ~ ~ ~ ~ ~ ~ ~ ~ ~ s :.<.[.  ",
"~.{.r ~ ~ ~ ~ ~ ~ ~ ~ c }.^.|.  % a.g.h.i.u.k.  . 2.k.c.l.l.l.l.l.m.7.n.2.  8 o.m.i.j.g.e.3.  4._.~ ~ ~ ~ ~ ~ ~ ~ ~ ~ s :.<.[.  ",
"~.{.r ~ ~ ~ ~ ~ ~ ~ ~ c }.^.|.  3.f.v.8.u.c.e.    8 e.g.r.r.r.r.r.w.o.x.8   3.y.w.r.c.v.p.1.  4._.~ ~ ~ ~ ~ ~ ~ ~ ~ ~ s :.<.[.  ",
"~.{.r ~ ~ ~ ~ ~ ~ ~ ~ c }.^.|.  . 3.z.f.p.s.%     1.8 A.f.f.f.f.p.f.A.8 .   . 2.f.p.s.2.3..   4._.~ ~ ~ ~ ~ ~ ~ ~ ~ ~ s :.<.[.  ",
"~.B.C.~ ~ ~ ~ ~ ~ ~ ~ c ].^.|.                                                                4._.~ ~ ~ ~ ~ ~ ~ ~ ~ c s :.<.[.  ",
"D.I *.E.F.` c K G.H.I.J.E.K.L.w.j.j.j.j.j.j.j.j.j.j.j.j.j.j.j.j.j.j.j.j.j.j.j.j.j.j.j.j.j.j.w.M.N.J.O.P.Q.-.~ ~ ;.R.Y Z S.T.U.  ",
"        V.W.K ` X.<.Y.  % o.m.l.l.l.l.l.l.l.l.l.l.l.l.l.l.l.l.l.l.l.l.l.l.l.l.l.l.l.l.l.l.l.l.u.k.  / Z.`. +s .+++@.            ",
"        @+#+<.$+%+&+*+6.d.8.m.l.l.l.l.l.l.l.l.l.l.l.l.l.l.l.l.l.l.l.l.l.l.l.l.l.l.l.l.l.l.l.l.h.9.y.b.H =+-+;+;+>+,+            ",
"      .           8 w.i.i.l.l.l.l.l.l.l.l.l.l.l.l.l.l.l.l.l.l.l.l.l.l.l.l.l.l.l.l.l.l.l.l.l.l.l.i.i.l.8.f.          1.          ",
"        '+$.)+!+~+{+|.t.y.c.m.l.l.l.l.l.l.l.l.l.l.l.l.l.l.l.l.l.l.l.l.l.l.l.l.l.l.l.l.l.l.l.l.h.]+n.^+/+(+_+++++3 :+            ",
"  .     <+[+c ! }+|+1+  3.b.m.l.l.l.l.l.l.l.l.l.l.l.l.l.l.l.l.l.l.l.l.l.l.l.l.l.l.l.l.l.l.l.l.u.k.  / 2+; 3+~ ~ 4+5+  1..       ",
"6+7+8+9+0+a+c ].b+c+w 9+d+e+f+n.d.d.d.d.d.d.d.d.d.d.d.d.d.d.d.d.d.d.d.d.d.d.d.d.d.d.d.d.d.d.q.g+h+9+i+j+k+l+~ ~ m+n+x x j o+p+  ",
"q+r+K C.C.{ ~ ~ { C.r s+.+t+/.  . . . . . . . . . . . . . . . . . . . . . . . . . . . . . .   u+} C.r r C.{ ~ ~ { r s+T F ;+v+  ",
"~.{.r ~ ~ ~ ~ ~ ~ ~ ~ c }.^.|.  . % s.t.k.e.g     1.g a.t.k.k.k.k.t.p.2.1.  . s.t.k.x.s.8 .   4._.~ ~ ~ ~ ~ ~ ~ ~ ~ ~ s :.<.[.  ",
"~.{.r ~ ~ ~ ~ ~ ~ ~ ~ c }.^.|.  % a.g.m.i.j.k.    g t.8.l.i.l.l.i.m.7.n.g   % o.l.i.j.g.e.3.  4._.~ ~ ~ ~ ~ ~ ~ ~ ~ ~ s :.<.[.  ",
"~.{.r ~ ~ ~ ~ ~ ~ ~ ~ c }.^.|.  % a.g.h.i.j.y.5.5.e.v.w.l.l.l.l.l.m.8.d.0.A.p.]+m.l.j.g.e.3.  4._.~ ~ ~ ~ ~ ~ ~ ~ ~ ~ s :.<.[.  ",
"~.{.r ~ ~ ~ ~ ~ ~ ~ ~ c }.^.|.  % a.g.h.l.m.h.u.u.j.h.m.l.l.l.l.l.l.m.h.j.u.j.h.l.l.j.g.e.3.  4._.~ ~ ~ ~ ~ ~ ~ ~ ~ ~ s :.<.[.  ",
"~.{.r ~ ~ ~ ~ ~ ~ ~ ~ c }.^.|.  % a.g.h.l.l.l.l.l.l.l.l.l.l.l.l.l.l.l.l.l.l.l.l.l.l.j.g.e.3.  4._.~ ~ ~ ~ ~ ~ ~ ~ ~ ~ s :.<.[.  ",
"~.{.r ~ ~ ~ ~ ~ ~ ~ ~ c }.^.|.  % a.g.h.l.l.l.l.l.l.l.l.l.l.l.l.l.l.l.l.l.l.l.l.l.l.j.g.e.3.  4._.~ ~ ~ ~ ~ ~ ~ ~ ~ ~ s :.<.[.  ",
"~.{.r ~ ~ ~ ~ ~ ~ ~ ~ c }.^.|.  3.f.d.w.u.u.m.l.l.l.l.l.l.l.l.l.l.l.l.l.l.l.l.h.u.u.c.v.a.1.  4._.~ ~ ~ ~ ~ ~ ~ ~ ~ ~ s :.<.[.  ",
"~.{.r ~ ~ ~ ~ ~ ~ ~ ~ c }.^.|.  . % z.p.p.q.w.l.l.l.l.l.l.l.l.l.l.l.l.l.l.l.m.]+0.p.f.z.% .   4._.~ ~ ~ ~ ~ ~ ~ ~ ~ ~ s :.<.[.  ",
"~.{.r ~ ~ ~ ~ ~ ~ ~ ~ c }.^.|.            5.c.l.l.l.l.l.l.l.l.l.l.l.l.l.l.l.m.b.1.            4._.~ ~ ~ ~ ~ ~ ~ ~ ~ ~ s :.<.[.  ",
"~.{.r ~ ~ ~ ~ ~ ~ ~ ~ c }.^.|.            s.c.l.l.l.l.l.l.l.l.l.l.l.l.l.l.l.m.b.3.            4._.~ ~ ~ ~ ~ ~ ~ ~ ~ ~ s :.<.[.  ",
"~.{.r ~ ~ ~ ~ ~ ~ ~ ~ c }.^.|.      . 1.  f.c.l.l.l.l.l.l.l.l.l.l.l.l.l.l.l.m.b.% . . . .     4._.~ ~ ~ ~ ~ ~ ~ ~ ~ ~ s :.<.[.  ",
"~.{.r ~ ~ ~ ~ ~ ~ ~ ~ c }.^.|.  1.2.0.6.y.b.u.l.l.l.l.l.l.l.l.l.l.l.l.l.l.l.m.c.v.y.n.e.z..   4._.~ ~ ~ ~ ~ ~ ~ ~ ~ ~ s :.<.[.  ",
"~.{.r ~ ~ ~ ~ ~ ~ ~ ~ c }.^.|.  % a.g.h.i.l.l.l.l.l.l.l.l.l.l.l.l.l.l.l.l.l.l.l.l.l.j.g.e.3.  4._.~ ~ ~ ~ ~ ~ ~ ~ ~ ~ s :.<.[.  ",
"~.{.r ~ ~ ~ ~ ~ ~ ~ ~ c }.^.|.  % a.g.h.l.l.l.l.l.l.l.l.l.l.l.l.l.l.l.l.l.l.l.l.l.l.j.g.e.3.  4._.~ ~ ~ ~ ~ ~ ~ ~ ~ ~ s :.<.[.  ",
"~.{.r ~ ~ ~ ~ ~ ~ ~ ~ c }.^.|.  % a.g.h.l.l.l.l.l.l.l.l.l.l.l.l.l.l.l.l.l.l.l.l.l.l.j.g.e.3.  4._.~ ~ ~ ~ ~ ~ ~ ~ ~ ~ s :.<.[.  ",
"~.{.r ~ ~ ~ ~ ~ ~ ~ ~ c }.^.|.  % a.g.h.i.h.7.b.b.g.c.j.l.l.l.l.l.m.j.8.g.b.o.w.l.l.j.g.e.3.  4._.~ ~ ~ ~ ~ ~ ~ ~ ~ ~ s :.<.[.  ",
"~.{.r ~ ~ ~ ~ ~ ~ ~ ~ c }.^.|.  % a.g.h.i.u.q.. 1.z.k.8.l.l.l.l.l.m.7.n.z.  8 o.m.l.j.g.e.3.  4._.~ ~ ~ ~ ~ ~ ~ ~ ~ ~ s :.<.[.  ",
"~.{.r ~ ~ ~ ~ ~ ~ ~ ~ c }.^.|.  3.5.y.c.w.7.0.    8 0.o.8.w.w.w.w.c.b.e.8   3.6.8.w.7.y.f.1.  4._.~ ~ ~ ~ ~ ~ ~ ~ ~ ~ s :.<.[.  ",
"w+x+{ c ~ ~ ~ ~ ~ ~ ~ c | J /.                                                                4.y+c ~ ~ ~ ~ ~ ~ ~ ~ c .+z+A+B+  ",
"C+D+E+ +F+! ~ C.G+H+G. +I+J+K+L+M+M+M+M+M+M+M+M+M+M+M+M+M+M+M+M+M+M+M+M+M+M+M+M+M+M+M+M+M+M+N+O+P+}+ +Q+R+S+~ ~ a+G.}+T+U+V+W+  ",
"X+Y+Z+Y.`+[+c ! t  @.@+@@@#@$@%@&@&@&@&@&@&@&@&@&@&@&@&@&@&@&@&@&@&@&@&@&@&@&@&@&@&@&@&@&@&@%@*@=@-@;@>@,@'@~ ~ )@!@~@{@]@^@/   ",
"        /@(@r S z+|+_@:@<@[@}.c ~ ~ ~ ~ ~ ~ ~ ~ ~ ~ ~ ~ ~ ~ ~ ~ ~ ~ ~ ~ ~ ~ ~ ~ ~ ~ ~ ~ ~ ~ c }@|@1@2@3@- 4@! K )+,.            ",
"        5@6@7@8@9@0@W.r | C.~ ~ ~ ~ ~ ~ ~ ~ ~ ~ ~ ~ ~ ~ ~ ~ ~ ~ ~ ~ ~ ~ ~ ~ ~ ~ ~ ~ ~ ~ ~ ~ ~ { r r K 3+a@b@c@d@e@/             ",
"              9 L+A+f@g@g@h@{ ~ ~ ~ ~ ~ ~ ~ ~ ~ ~ ~ ~ ~ ~ ~ ~ ~ ~ ~ ~ ~ ~ ~ ~ ~ ~ ~ ~ ~ ~ ~ ~ | a+g@&@:.i@e+$                   ",
"              j@k@l@m@n@o@p@].~ ~ ~ ~ ~ ~ ~ ~ ~ ~ ~ ~ ~ ~ ~ ~ ~ ~ ~ ~ ~ ~ ~ ~ ~ ~ ~ ~ ~ ~ ~ c ` _+q@q@r@s@t@1.                  ",
"                        u@$.| c c c c c c c c c c c c c c c c c c c c c c c c c c c c c c c c }@v@                              ",
"                        & w@x@y@z@z@z@z@z@z@z@z@z@z@z@z@z@z@z@z@z@z@z@z@z@z@z@z@z@z@z@z@z@z@y@'+A@                              "};
