/* XPM */
static char * 01_xpm[] = {
"64 64 189 2",
"  	c #000000",
". 	c #000300",
"+ 	c #000E00",
"@ 	c #001400",
"# 	c #000F00",
"$ 	c #000400",
"% 	c #000800",
"& 	c #001E00",
"* 	c #002800",
"= 	c #002000",
"- 	c #000B00",
"; 	c #000200",
"> 	c #000700",
", 	c #001100",
"' 	c #001800",
") 	c #001900",
"! 	c #001B00",
"~ 	c #002300",
"{ 	c #002400",
"] 	c #001C00",
"^ 	c #000D00",
"/ 	c #000500",
"( 	c #001000",
"_ 	c #001D00",
": 	c #002700",
"< 	c #002900",
"[ 	c #002100",
"} 	c #001700",
"| 	c #000A00",
"1 	c #001200",
"2 	c #011E01",
"3 	c #042804",
"4 	c #0A3A0A",
"5 	c #135313",
"6 	c #186118",
"7 	c #186318",
"8 	c #145514",
"9 	c #072F07",
"0 	c #000C00",
"a 	c #001F00",
"b 	c #002200",
"c 	c #001A00",
"d 	c #021702",
"e 	c #0D3D0D",
"f 	c #1F7E1F",
"g 	c #33CD33",
"h 	c #3DF53D",
"i 	c #3FFA3F",
"j 	c #35DA35",
"k 	c #1B801B",
"l 	c #001500",
"m 	c #002500",
"n 	c #0C510C",
"o 	c #187718",
"p 	c #1C821C",
"q 	c #1C831C",
"r 	c #208B20",
"s 	c #29A829",
"t 	c #37DE37",
"u 	c #40FD40",
"v 	c #41FF41",
"w 	c #39E839",
"x 	c #27A927",
"y 	c #1B7F1B",
"z 	c #176F17",
"A 	c #0F500F",
"B 	c #063106",
"C 	c #010C01",
"D 	c #001600",
"E 	c #010B01",
"F 	c #239A23",
"G 	c #3BED3B",
"H 	c #40FF40",
"I 	c #40FE40",
"J 	c #28A328",
"K 	c #176917",
"L 	c #032303",
"M 	c #000100",
"N 	c #000900",
"O 	c #229922",
"P 	c #3AEB3A",
"Q 	c #3FFC3F",
"R 	c #37DC37",
"S 	c #28A228",
"T 	c #176817",
"U 	c #000600",
"V 	c #001300",
"W 	c #002600",
"X 	c #011401",
"Y 	c #1F8D1F",
"Z 	c #34D734",
"` 	c #3AEA3A",
" .	c #3CEE3C",
"..	c #3EF83E",
"+.	c #3BEF3B",
"@.	c #39E739",
"#.	c #31C931",
"$.	c #249424",
"%.	c #145F14",
"&.	c #031F03",
"*.	c #0C360C",
"=.	c #1F7F1F",
"-.	c #35D435",
";.	c #37E137",
">.	c #0B370B",
",.	c #1A6D1A",
"'.	c #2BAF2B",
").	c #34D134",
"!.	c #2DB92D",
"~.	c #166B16",
"{.	c #022602",
"].	c #053005",
"^.	c #0C450C",
"/.	c #105110",
"(.	c #105210",
"_.	c #0D470D",
":.	c #042604",
"<.	c #012301",
"[.	c #022402",
"}.	c #053105",
"|.	c #073907",
"1.	c #073A07",
"2.	c #053205",
"3.	c #021902",
"4.	c #33CF33",
"5.	c #36DC36",
"6.	c #1B811B",
"7.	c #032803",
"8.	c #072D07",
"9.	c #082C08",
"0.	c #0A370A",
"a.	c #145614",
"b.	c #238E23",
"c.	c #35D735",
"d.	c #38E138",
"e.	c #1F891F",
"f.	c #062206",
"g.	c #082B08",
"h.	c #062706",
"i.	c #041B04",
"j.	c #020E02",
"k.	c #197519",
"l.	c #2CB32C",
"m.	c #31C431",
"n.	c #33CB33",
"o.	c #36DA36",
"p.	c #3CF03C",
"q.	c #3CF23C",
"r.	c #34D334",
"s.	c #30C330",
"t.	c #30C030",
"u.	c #1E7B1E",
"v.	c #104E10",
"w.	c #021802",
"x.	c #3BEC3B",
"y.	c #37DD37",
"z.	c #010D01",
"A.	c #36D936",
"B.	c #3CEF3C",
"C.	c #3DF33D",
"D.	c #3AE93A",
"E.	c #32CB32",
"F.	c #259625",
"G.	c #156015",
"H.	c #0B470B",
"I.	c #176A17",
"J.	c #1A731A",
"K.	c #1C771C",
"L.	c #228A22",
"M.	c #2BAD2B",
"N.	c #38E038",
"O.	c #39E639",
"P.	c #27A227",
"Q.	c #1A701A",
"R.	c #1A711A",
"S.	c #166316",
"T.	c #104810",
"U.	c #072C07",
"V.	c #010A01",
"W.	c #010701",
"X.	c #0D3A0D",
"Y.	c #208120",
"Z.	c #38E238",
"`.	c #1C841C",
" +	c #032A03",
".+	c #0A430A",
"++	c #156B15",
"@+	c #177117",
"#+	c #094009",
"                    . + @ @ @ @ @ @ @ @ @ @ @ @ @ @ @ @ @ @ @ @ @ @ @ @ @ @ @ @ @ @ @ @ @ @ @ # $                               ",
"                    % & * * * * * * * * * * * * * * * * * * * * * * * * * * * * * * * * * * * = -                               ",
"          ; > , ' ) ! ~ * * * * * * * * * * * * * * * * * * * * * * * * * * * * * * * * * * * { ] ) ' @ ^ /                     ",
"          / ( _ : < * * * * * * * * * * * * * * * * * * * * * * * * * * * * * * * * * * * * * * * < * [ } >                     ",
"  . | + + ( 1 } ! ! _ { * * * * * * * * * * * * * * * * * * * * * * * * * * * * * * * * * * * { & ! 2 3 4 5 6 7 8 9             ",
"  0 a : : b c ( /   - a * * * * * * * * * * * * * * * * * * * * * * * * * * * * * * * * * * * = ^   d e f g h i j k             ",
"+ l b * * m & } ( + 1 _ b ~ ~ ~ ~ ~ ~ ~ ~ ~ ~ ~ ~ ~ ~ ~ ~ ~ ~ ~ ~ ~ ~ ~ ~ ~ ~ ~ ~ ~ ~ ~ ~ = { n o p q r s t u v w x y y z A B C ",
"< * * * * * * * * < m D                                                                     E F G v v v H H H H H H v I t J K L ",
"* * * * * * * * * * m D M   M . / % N % $     M ; / % N N N N N % > $ M     . % N N > / ;   C O P v H H H H H H H H H Q R S T L ",
"* * * * * * * * * * m D M   . 0 ' [ { b D ;   . | D = { { { { { b ! 1 U   M @ [ { b ] V %   C O P v H H H H H H H H H Q R S T L ",
"* * * * * * * * * * m D M   $ + ! W < W c > . > # c m * * * * * W a D - . U ' m < : = D N   C O P v H H H H H H H H H Q R S T L ",
"* * * * * * * * * * m D M   $ + ! W * * * : : : * * * * * * * * * * * : : : * * * : = D N   C O P v H H H H H H H H H Q R S T L ",
"* * * * * * * * * * m D M   $ + ! W * * * * * * * * * * * * * * * * * * * * * * * : = D N   C O P v H H H H H H H H H Q R S T L ",
"* * * * * * * * * * m D M   $ + ! W * * * * * * * * * * * * * * * * * * * * * * * : = D N   C O P v H H H H H H H H H Q R S T L ",
"* * * * * * * * * * m D M   $ + ! W < * * * * * * * * * * * * * * * * * * * * * * : = D N   C O P v H H H H H H H H H Q R S T L ",
"* * * * * * * * * * m D M   M ; / N N + & : * * * * * * * * * * * * * * * * = ( N | > $ M   C O P v H H H H H H H H H Q R S T L ",
"* * * * * * * * * * m D M             U ] : * * * * * * * * * * * * * * * : & %             C O P v H H H H H H H H H Q R S T L ",
"* * * * * * * * * * m D M             U ] : * * * * * * * * * * * * * * * : & %             C O P v H H H H H H H H H Q R S T L ",
"* * * * * * * * * * m D M             $ ] : * * * * * * * * * * * * * * * : & >             C O P v H H H H H H H H H Q R S T L ",
"* * * * * * * * * * m D M   . N @ _ a = { * * * * * * * * * * * * * * * * * m = a & ' ( U   C O P v H H H H H H H H H Q R S T L ",
"* * * * * * * * * * m D M   $ + ! W * * * * * * * * * * * * * * * * * * * * * * * : = D N   C O P v H H H H H H H H H Q R S T L ",
"* * * * * * * * * * m D M   $ + ! W * * * * * * * * * * * * * * * * * * * * * * * : = D N   C O P v H H H H H H H H H Q R S T L ",
"* * * * * * * * * * m D M   $ + ! W * * * * * * * * * * * * * * * * * * * * * * * : = D N   C O P v H H H H H H H H H Q R S T L ",
"* * * * * * * * * * m D M   $ + ! W < : ~ & _ & = ~ : * * * * * : m b a _ & b : * : = D N   C O P v H H H H H H H H H Q R S T L ",
"* * * * * * * * * * m D M   $ + ! W < W ) ;   ; - ) m < * * * * W a @ U     D m < : = D N   C O P v H H H H H H H H H Q R S T L ",
"* * * * * * * * * * m D M   . | V ! _ ! , ;   ; % 1 c _ _ _ _ _ ! D + $   M # c _ ] } # U   C O P v H H H H H H H H H Q R S T L ",
"* * * * * * * * * * m D M     M ; . . . M       M ; . . . . . . . ; M       M . . . ; M     C O P v H H H H H H H H H Q R S T L ",
"{ { : * * : W m { { b ' ^ 0 0 0 0 0 0 0 0 0 0 0 0 0 0 0 0 0 0 0 0 0 0 0 0 0 0 0 0 0 0 0 0   X Y Z P ` P  ...H H i +.` @.#.$.%.&.",
"  0 = * * { c # ;   % & * < * * * * * * * * * * * * * * * * * * * * * * * * * * * * * * * < * c       *.=.-.I v ;.p             ",
"  N c [ [ & ' , | U # a * * * * * * * * * * * * * * * * * * * * * * * * * * * * * * * * * * * [ , M d >.,.'.).-.!.~.            ",
"  M U % % - , c b ~ ~ W * * * * * * * * * * * * * * * * * * * * * * * * * * * * * * * * * * * W { ~ ~ {.].^./.(._.:.            ",
"  M ; . . > ( ] m : : * * * * * * * * * * * * * * * * * * * * * * * * * * * * * * * * * * * * * : : : <.[.}.|.1.2.3.            ",
"  0 a : : ~ c ( / M - a * * * * * * * * * * * * * * * * * * * * * * * * * * * * * * * * * * * = ^   d e =.4...Q 5.6.            ",
". # [ * * { ] 1 > . - ] { { { { { { { { { { { { { { { { { { { { { { { { { { { { { { { { { { { 7.8.9.0.a.b.c.u v d.e.f.g.h.i.j.; ",
"& = m * * W { [ & & ] l # + # # # # # # # # # # # # # # # # # # # # # # # # # # # # # # #   V k.l.m.m.n.o.p.I H q.r.s.t.s u.v.w.",
"< * * * * * * * * < m D M                                                                   C F x.v H H H H H H H H v I y.J K L ",
"* * * * * * * * * * m D M   . 0 ' [ { b D ;                               M @ [ { b ] V %   C O P v H H H H H H H H H Q R S T L ",
"* * * * * * * * * * m D M   $ + ! W < W ) / M ; M M                 M M M . } m < : = D N   C O P v H H H H H H H H H Q R S T L ",
"* * * * * * * * * * m D M   $ + ! W < : = ) } D , | .           M / ^ l } ' a W < : = D N   C O P v H H H H H H H H H Q R S T L ",
"* * * * * * * * * * m D M   $ + ! W * * * * < W _ 1 /           M N } { * * * * * : = D N   C O P v H H H H H H H H H Q R S T L ",
"* * * * * * * * * * m D M   $ + ! W * * * * * : { [ a & & & & & & a b W * * * * * : = D N   C O P v H H H H H H H H H Q R S T L ",
"* * * * * * * * * * m D M   $ + ! m * * * * * * * * * * * * * * * * * * * * * * * : = D N   C O P v H H H H H H H H H Q R S T L ",
"* * * * * * * * * * m D M   ; % , } ) c b : * * * * * * * * * * * * * * * * ~ ! ) ' @ ^ /   C O P v H H H H H H H H H Q R S T L ",
"* * * * * * * * * * m D M         M   U ] : * * * * * * * * * * * * * * * : & N   M         C O P v H H H H H H H H H Q R S T L ",
"* * * * * * * * * * m D M             U ] : * * * * * * * * * * * * * * * : & %             C O P v H H H H H H H H H Q R S T L ",
"* * * * * * * * * * m D M             / ] : * * * * * * * * * * * * * * * : & %             C O P v H H H H H H H H H Q R S T L ",
"* * * * * * * * * * m D M   M . > - - ( & : * * * * * * * * * * * * * * * * = , - 0 N U ;   C O P v H H H H H H H H H Q R S T L ",
"* * * * * * * * * * m D M   $ ^ ) ~ W W : * * * * * * * * * * * * * * * * * : W W { & l N   C O P v H H H H H H H H H Q R S T L ",
"* * * * * * * * * * m D M   $ + ! W * * * * * * : W m m m m m m m m W : * * * * * : = D N   C O P v H H H H H H H H H Q R S T L ",
"* * * * * * * * * * m D M   $ + ! W * * * * * m _ V /           ; | } ~ * * * * * : = D N   C O P v H H H H H H H H H Q R S T L ",
"* * * * * * * * * * m D M   $ + ! W * * m b b a ' # $           ; N V & b b { : * : = D N   C O P v H H H H H H H H H Q R S T L ",
"* * * * * * * * * * m D M   $ + ! W < W ! 0 N % U . M             ; / % N - c W < : = D N   C O P v H H H H H H H H H Q R S T L ",
"* * * * * * * * * * m D M   $ ^ ! m * W ' .                               M D m * W a D N   C O P v H H H H H H H H H Q R S T L ",
"* * * * * * * * * * m D M     M ; $ / $ ;                                   ; $ / $ . ; M   C O P v H H H H H H H H H Q R S T L ",
"m m : * * * : W m m b l / . $ $ $ $ $ $ $ $ $ $ $ $ $ $ $ $ $ $ $ $ $ $ $ $ $ $ $ $ $ $ $   z.Y A.G x.B.C.i H H i p.x.D.E.F.G.&.",
"# D b * * m a ' , # 1 ' ] _ _ _ _ _ _ _ _ _ _ _ _ _ _ _ _ _ _ _ _ _ _ _ _ _ _ _ _ _ _ _ _ ! _ H.I.J.K.L.M.N.I H O.P.Q.R.S.T.U.V.",
"  0 [ * * { ! # M   > & * < * * * * * * * * * * * * * * * * * * * * * * * * * * * * * * * < * &     W.X.Y.-.H v Z.`.            ",
"  . - # # ( 1 c [ ~ ~ W * * * * * * * * * * * * * * * * * * * * * * * * * * * * * * * * * * * W { b {  +.+++k p @+#+            ",
"          / # ] m : : * * * * * * * * * * * * * * * * * * * * * * * * * * * * * * * * * * * * * : : W = } - M                   ",
"          . % # @ l ' b * * * * * * * * * * * * * * * * * * * * * * * * * * * * * * * * * * * ~ ) l l , - /                     ",
"                    N & * < * * * * * * * * * * * * * * * * * * * * * * * * * * * * * * * < * = 0                               ",
"                    $ 1 ' ) ) ) ) ) ) ) ) ) ) ) ) ) ) ) ) ) ) ) ) ) ) ) ) ) ) ) ) ) ) ) ) ) ) V /                               ",
"                                                                                                                                ",
"                                                                                                                                "};
