/* XPM */
static char * 02_xpm[] = {
"64 64 234 2",
"  	c #000000",
". 	c #041D04",
"+ 	c #0A330A",
"@ 	c #0B350B",
"# 	c #0A340A",
"$ 	c #072B07",
"% 	c #010B01",
"& 	c #1E871E",
"* 	c #34D034",
"= 	c #36D836",
"- 	c #35D735",
"; 	c #2CB72C",
"> 	c #0B470B",
", 	c #000100",
"' 	c #010701",
") 	c #021D02",
"! 	c #053005",
"~ 	c #032703",
"{ 	c #26A526",
"] 	c #3EF83E",
"^ 	c #40FF40",
"/ 	c #41FF41",
"( 	c #36DB36",
"_ 	c #126212",
": 	c #032403",
"< 	c #042B04",
"[ 	c #021A02",
"} 	c #010801",
"| 	c #021202",
"1 	c #104710",
"2 	c #29A629",
"3 	c #3DF23D",
"4 	c #3FFD3F",
"5 	c #40FE40",
"6 	c #3FFC3F",
"7 	c #38DF38",
"8 	c #259925",
"9 	c #0F4E0F",
"0 	c #000300",
"a 	c #000200",
"b 	c #011301",
"c 	c #0E420E",
"d 	c #249524",
"e 	c #38E138",
"f 	c #3BEC3B",
"g 	c #40FD40",
"h 	c #3EF63E",
"i 	c #39E439",
"j 	c #32CA32",
"k 	c #249324",
"l 	c #145914",
"m 	c #0A310A",
"n 	c #093009",
"o 	c #021502",
"p 	c #001600",
"q 	c #002100",
"r 	c #002200",
"s 	c #032803",
"t 	c #0B400B",
"u 	c #125912",
"v 	c #125812",
"w 	c #29AE29",
"x 	c #37DE37",
"y 	c #1B791B",
"z 	c #125612",
"A 	c #166216",
"B 	c #208120",
"C 	c #30C230",
"D 	c #36DA36",
"E 	c #31C831",
"F 	c #166C16",
"G 	c #000400",
"H 	c #001C00",
"I 	c #002800",
"J 	c #002000",
"K 	c #001300",
"L 	c #249E24",
"M 	c #3DF43D",
"N 	c #3FFB3F",
"O 	c #35D835",
"P 	c #126012",
"Q 	c #022102",
"R 	c #0E470E",
"S 	c #218721",
"T 	c #3BEE3B",
"U 	c #1E881E",
"V 	c #052E05",
"W 	c #031F03",
"X 	c #010D01",
"Y 	c #000D00",
"Z 	c #001D00",
"` 	c #002700",
" .	c #022B02",
"..	c #053105",
"+.	c #053205",
"@.	c #032103",
"#.	c #229822",
"$.	c #3CF13C",
"%.	c #2AAC2A",
"&.	c #166416",
"*.	c #000A00",
"=.	c #001B00",
"-.	c #001E00",
";.	c #001F00",
">.	c #000500",
",.	c #000600",
"'.	c #219521",
").	c #3CF03C",
"!.	c #2BAF2B",
"~.	c #166516",
"{.	c #000B00",
"].	c #001100",
"^.	c #000900",
"/.	c #001800",
"(.	c #000C00",
"_.	c #001500",
":.	c #001000",
"<.	c #002400",
"[.	c #002900",
"}.	c #000E00",
"|.	c #001A00",
"1.	c #001400",
"2.	c #002300",
"3.	c #000F00",
"4.	c #001200",
"5.	c #000800",
"6.	c #000700",
"7.	c #249F24",
"8.	c #022202",
"9.	c #39E339",
"0.	c #022402",
"a.	c #052A05",
"b.	c #092A09",
"c.	c #27A527",
"d.	c #156315",
"e.	c #082508",
"f.	c #114A11",
"g.	c #1F7F1F",
"h.	c #32C932",
"i.	c #34D134",
"j.	c #177117",
"k.	c #011501",
"l.	c #0D3F0D",
"m.	c #228E22",
"n.	c #33CF33",
"o.	c #36D736",
"p.	c #39E639",
"q.	c #35D635",
"r.	c #30C130",
"s.	c #249024",
"t.	c #196C19",
"u.	c #135C13",
"v.	c #115511",
"w.	c #052B05",
"x.	c #032303",
"y.	c #073607",
"z.	c #135113",
"A.	c #29A729",
"B.	c #3DF33D",
"C.	c #0F4F0F",
"D.	c #042A04",
"E.	c #2EBF2E",
"F.	c #32C832",
"G.	c #1F821F",
"H.	c #0B440B",
"I.	c #042D04",
"J.	c #022302",
"K.	c #012501",
"L.	c #031003",
"M.	c #072707",
"N.	c #0E450E",
"O.	c #30C530",
"P.	c #34D234",
"Q.	c #239123",
"R.	c #104A10",
"S.	c #082708",
"T.	c #229222",
"U.	c #38E238",
"V.	c #38E038",
"W.	c #39E239",
"X.	c #2EC02E",
"Y.	c #0C4B0C",
"Z.	c #002500",
"`.	c #031C03",
" +	c #124E12",
".+	c #28A428",
"++	c #35D535",
"@+	c #39E539",
"#+	c #36D936",
"$+	c #176A17",
"%+	c #135A13",
"&+	c #145D14",
"*+	c #0F500F",
"=+	c #052405",
"-+	c #175D17",
";+	c #31C431",
">+	c #33D233",
",+	c #002600",
"'+	c #052305",
")+	c #30C430",
"!+	c #0B480B",
"~+	c #001900",
"{+	c #041E04",
"]+	c #135213",
"^+	c #3CF23C",
"/+	c #3EF73E",
"(+	c #2DBB2D",
"_+	c #115011",
":+	c #092D09",
"<+	c #073007",
"[+	c #001700",
"}+	c #0D450D",
"|+	c #31CA31",
"1+	c #279E27",
"2+	c #176917",
"3+	c #125712",
"4+	c #239723",
"5+	c #2DBF2D",
"6+	c #022002",
"7+	c #010F01",
"8+	c #0E3F0E",
"9+	c #249424",
"0+	c #31C731",
"a+	c #218821",
"b+	c #0D460D",
"c+	c #031603",
"d+	c #0B3B0B",
"e+	c #115111",
"f+	c #0A360A",
"g+	c #031803",
"h+	c #34D734",
"i+	c #0E540E",
"j+	c #021C02",
"k+	c #042904",
"                                                                                                                                ",
"                              . + @ # # # # # # # # # # # # # # # # # # # # # # # # # @ $ %                                     ",
"                              & * = - - - - - - - - - - - - - - - - - - - - - - - - - = ; >                                     ",
"                    , ' ) ! ~ { ] ^ ^ ^ ^ ^ ^ ^ ^ ^ ^ ^ ^ ^ ^ ^ ^ ^ ^ ^ ^ ^ ^ ^ ^ ^ ^ / ( _ : < [ }                             ",
"                    | 1 2 3 4 4 ^ ^ ^ ^ ^ ^ ^ ^ ^ ^ ^ ^ ^ ^ ^ ^ ^ ^ ^ ^ ^ ^ ^ ^ ^ ^ ^ ^ 5 6 6 7 8 9                             ",
"                0 a b c d = e f g ^ ^ ^ ^ ^ ^ ^ ^ ^ ^ ^ ^ ^ ^ ^ ^ ^ ^ ^ ^ ^ ^ ^ ^ ^ ^ ^ h i e j k l m n o                       ",
"              , p q r s t u v w ] ^ ^ ^ ^ ^ ^ ^ ^ ^ ^ ^ ^ ^ ^ ^ ^ ^ ^ ^ ^ ^ ^ ^ ^ ^ ^ ^ x y z A B C D E F                       ",
"          , a G H I I J K a   L M 4 N N N N N N N N N N N N N N N N N N N N N N N N N 4 O P Q R S i / T U ) V W X             , ",
"      a Y Z ` ` I I I I ` ` `  ...+.+.+.+.+.+.+.+.+.+.+.+.+.+.+.+.+.+.+.+.+.+.+.+.+.+.@.#.$.4 6 6 5 ^ 5 6 4 f %.&.0       , *.=.",
"      a Y -.I I I I I I I I I ;.G   , a >.,.G ,     a G ,.>.>.,.>.G a     0 >.>.G 0     '.M ^ ^ ^ ^ ^ ^ ^ ^ ).!.~.0       , {.=.",
"      a Y -.I I I I I I I I I ;.G   >.].-.r Z ^.  0 Y =.q q q q J /.(.,   _.q q =.:.0   '.M ^ ^ ^ ^ ^ ^ ^ ^ ).!.~.0       , {.=.",
"      a Y -.I I I I I I I I I ;.G   ,._.<.[.<.}., ,.].q I I I I ` -.].0 0 |.I I q 1.G   '.M ^ ^ ^ ^ ^ ^ ^ ^ ).!.~.0       , {.=.",
"      a Y -.I I I I I I I I I ;.G   ,._.<.I I ` ` ` ` I I I I I I I ` ` ` I I I q 1.G   '.M ^ ^ ^ ^ ^ ^ ^ ^ ).!.~.0       , {.=.",
"      a Y -.I I I I I I I I I ;.G   ,._.<.I I I I I I I I I I I I I I I I I I I q 1.G   '.M ^ ^ ^ ^ ^ ^ ^ ^ ).!.~.0       , {.=.",
"      a Y -.I I I I I I I I I ;.G   ,._.<.I I I I I I I I I I I I I I I I I I I q 1.G   '.M ^ ^ ^ ^ ^ ^ ^ ^ ).!.~.0       , {.=.",
"      a Y -.I I I I I I I I I ;.G   ,.1.2.I ` I I I I I I I I I I I I I I I ` ` J K G   '.M ^ ^ ^ ^ ^ ^ ^ ^ ).!.~.0       , {.=.",
"      a Y -.I I I I I I I I I ;.G     , a , 3.<.I I I I I I I I I I I I I H 0 a a ,     '.M ^ ^ ^ ^ ^ ^ ^ ^ ).!.~.0       , {.=.",
"      a Y -.I I I I I I I I I ;.G           Y <.I I I I I I I I I I I I I =.,           '.M ^ ^ ^ ^ ^ ^ ^ ^ ).!.~.0       , {.=.",
"      a Y -.I I I I I I I I I ;.G           Y <.I I I I I I I I I I I I I =.,           '.M ^ ^ ^ ^ ^ ^ ^ ^ ).!.~.0       , {.=.",
"      a Y -.I I I I I I I I I ;.G     , a , 3.<.I I I I I I I I I I I I I H 0 a a ,     '.M ^ ^ ^ ^ ^ ^ ^ ^ ).!.~.0       , {.=.",
"      a Y -.I I I I I I I I I ;.G   ,.1.2.I ` I I I I I I I I I I I I I I I ` ` J K G   '.M ^ ^ ^ ^ ^ ^ ^ ^ ).!.~.0       , {.=.",
"      a Y -.I I I I I I I I I ;.G   ,._.<.I I I I I I I I I I I I I I I I I I I q 1.G   '.M ^ ^ ^ ^ ^ ^ ^ ^ ).!.~.0       , {.=.",
"      a Y -.I I I I I I I I I ;.G   ,._.<.I I I I I I I I I I I I I I I I I I I q 1.G   '.M ^ ^ ^ ^ ^ ^ ^ ^ ).!.~.0       , {.=.",
"      a Y -.I I I I I I I I I ;.G   ,._.<.I I ` ` ` ` I I I I I I I ` ` ` I I I q 1.G   '.M ^ ^ ^ ^ ^ ^ ^ ^ ).!.~.0       , {.=.",
"      a Y -.I I I I I I I I I ;.G   ,._.<.[.<.}., ,.].q I I I I ` -.].0 0 |.I I q 1.G   '.M ^ ^ ^ ^ ^ ^ ^ ^ ).!.~.0       , {.=.",
"      a Y -.I I I I I I I I I ;.G   >.4.J <.;.*.  0 }.Z 2.2.2.2.r |.Y ,   p 2.2.H ].0   '.M ^ ^ ^ ^ ^ ^ ^ ^ ).!.~.0       , {.=.",
"      a Y -.I I I I I I I I I ;.G   , >.^.{.^.a   , 0 5.{.{.{.{.*.6.0     >.*.{.5.G ,   '.M ^ ^ ^ ^ ^ ^ ^ ^ ).!.~.0       , {.=.",
"      a Y Z ` ` I I I I ` ` `  ...+.+.+.+.+.+.+.+.+.+.+.+.+.+.+.+.+.+.+.+.+.+.+.+.+.+.@.#.$.4 6 6 5 ^ 5 6 4 f %.&.0       , *.=.",
"          , a G H I ` J K G   7.M 4 N N N N N N N N N N N N N N N N N N N N N N N N N 4 O P 8.R S 9./ T U ) V W X             , ",
"              , /.2.2.0.a.+ b.c.] ^ ^ ^ ^ ^ ^ ^ ^ ^ ^ ^ ^ ^ ^ ^ ^ ^ ^ ^ ^ ^ ^ ^ ^ ^ ^ / ( d.e.f.g.h.i i.j.                      ",
"                ,.5.k.l.m.n.o.p.4 ^ ^ ^ ^ ^ ^ ^ ^ ^ ^ ^ ^ ^ ^ ^ ^ ^ ^ ^ ^ ^ ^ ^ ^ ^ ^ ^ M ( q.r.s.t.u.v.w.                      ",
"              0 x...y.z.A.B.4 4 ^ ^ ^ ^ ^ ^ ^ ^ ^ ^ ^ ^ ^ ^ ^ ^ ^ ^ ^ ^ ^ ^ ^ ^ ^ ^ ^ ^ 5 6 4 7 8 C.                            ",
"              D.E.6 ] F.G.H.Q { ] ^ ^ ^ ^ ^ ^ ^ ^ ^ ^ ^ ^ ^ ^ ^ ^ ^ ^ ^ ^ ^ ^ ^ ^ ^ ^ / ( _ : I.J.K.I <.}.                      ",
"      0 L.M.n N.O.^ 6 P.Q.R.S.T.D U.e e e e e e e e e e e V.e e e V.e e e e e V.e V.e W.X.Y.  {.p <.[.Z.4.G >.G a           , 0 ",
"      `. +.+++= T ^ 5 M @+#+o.; $+%+u.u.u.u.u.u.u.u.u.u.u.u.u.u.u.u.u.u.u.u.u.u.u.u.u.&+*+ .;.r <.` I ` 2.q ;.p *.        , 5.p ",
"      =+-+;+g ^ ^ ^ ^ ^ ^ ^ ^ >+>                                                       ].,+I I I I I I I I ,+=.Y         , {.=.",
"      '+-+)+4 ^ ^ ^ ^ ^ ^ ^ ^ >+!+  ,.1.2.I 2.(.  0 :.J ` ` ` ` ,+Z 3.,   ~+` ` J K G   K ,+I I I I I I I I Z.=.Y         , {.=.",
"      '+-+)+4 ^ ^ ^ ^ ^ ^ ^ ^ >+!+  ,._.<.[.<.:.G ^.1.r I I I I ` ;.K ,.,.=.I I q 1.G   K ,+I I I I I I I I Z.=.Y         , {.=.",
"      '+-+)+4 ^ ^ ^ ^ ^ ^ ^ ^ >+!+  ,._.<.I ` r q r 2.,+I I I I I ,+2.q q Z.I I q 1.G   K ,+I I I I I I I I Z.=.Y         , {.=.",
"      '+-+)+4 ^ ^ ^ ^ ^ ^ ^ ^ >+!+  ,._.<.I I I I I I I I I I I I I I I I I I I q 1.G   K ,+I I I I I I I I Z.=.Y         , {.=.",
"      '+-+)+4 ^ ^ ^ ^ ^ ^ ^ ^ >+!+  ,._.<.I I I I I I I I I I I I I I I I I I I q 1.G   K ,+I I I I I I I I Z.=.Y         , {.=.",
"      '+-+)+4 ^ ^ ^ ^ ^ ^ ^ ^ >+!+  >.4.J 2.<.` I I I I I I I I I I I I I ,+2.2.H ].0   K ,+I I I I I I I I Z.=.Y         , {.=.",
"      '+-+)+4 ^ ^ ^ ^ ^ ^ ^ ^ >+!+  , >.^.*.K <.I I I I I I I I I I I I I Z (.*.5.G ,   K ,+I I I I I I I I Z.=.Y         , {.=.",
"      '+-+)+4 ^ ^ ^ ^ ^ ^ ^ ^ >+!+          Y <.I I I I I I I I I I I I I =.,           K ,+I I I I I I I I Z.=.Y         , {.=.",
"      '+-+)+4 ^ ^ ^ ^ ^ ^ ^ ^ >+!+          Y <.I I I I I I I I I I I I I =.,           K ,+I I I I I I I I Z.=.Y         , {.=.",
"      '+-+)+4 ^ ^ ^ ^ ^ ^ ^ ^ >+!+  , a >.G ].<.I I I I I I I I I I I I I H 6.>.G 0     K ,+I I I I I I I I Z.=.Y         , {.=.",
"      '+-+)+4 ^ ^ ^ ^ ^ ^ ^ ^ >+!+  >.].-.q 2.` I I I I I I I I I I I I I Z.q q =.:.0   K ,+I I I I I I I I Z.=.Y         , {.=.",
"      '+-+)+4 ^ ^ ^ ^ ^ ^ ^ ^ >+!+  ,._.<.I I I I I I I I I I I I I I I I I I I q 1.G   K ,+I I I I I I I I Z.=.Y         , {.=.",
"      '+-+)+4 ^ ^ ^ ^ ^ ^ ^ ^ >+!+  ,._.<.I I I I I I I I I I I I I I I I I I I q 1.G   K ,+I I I I I I I I Z.=.Y         , {.=.",
"      '+-+)+4 ^ ^ ^ ^ ^ ^ ^ ^ >+!+  ,._.<.I ` <.2.2.Z.` I I I I I ` Z.2.2.,+I I q 1.G   K ,+I I I I I I I I Z.=.Y         , {.=.",
"      '+-+)+4 ^ ^ ^ ^ ^ ^ ^ ^ >+!+  ,._.<.[.<.K ^.}.p r I I I I ` J p {.{.H I I q 1.G   K ,+I I I I I I I I Z.=.Y         , {.=.",
"      '+-+)+4 ^ ^ ^ ^ ^ ^ ^ ^ >+!+  ,.1.2.I 2.(.  0 :.J ` ` ` ` ,+Z 3.,   ~+` ` J K G   K ,+I I I I I I I I Z.=.Y         , {.=.",
"      '+-+;+g ^ ^ ^ ^ ^ ^ ^ ^ >+>         ,             , , , , ,           , ,         4.,+I I I I I I I I ,+=.Y         , {.=.",
"      {+]+%.7 U.^+^ 5 /+f W.e (+_+:+# # # # # # # # # # # # # # # # # # # # # # # # # @ <+K.2.<.Z.` I ` <.2.q [+*.        , ^./.",
"      ' {+}+%+~.|+^ 6 q.1+2+3+4+i.o.- - - - - - - - - - - - - - - - - - - - - - - - - = ; !+  3./.<.[.Z.1.*.*.,.a           a ,.",
"              D.5+6 ] F.G.H.6+{ ] ^ ^ ^ ^ ^ ^ ^ ^ ^ ^ ^ ^ ^ ^ ^ ^ ^ ^ ^ ^ ^ ^ ^ ^ ^ ^ / ( _ : I.J.K.I <.}.                      ",
"              0 : ..y.z.A.3 4 4 ^ ^ ^ ^ ^ ^ ^ ^ ^ ^ ^ ^ ^ ^ ^ ^ ^ ^ ^ ^ ^ ^ ^ ^ ^ ^ ^ ^ 5 6 6 7 8 C.  a                         ",
"                    7+8+9+= e f g ^ ^ ^ ^ ^ ^ ^ ^ ^ ^ ^ ^ ^ ^ ^ ^ ^ ^ ^ ^ ^ ^ ^ ^ ^ ^ ^ h i e 0+a+b+                            ",
"                    a c+d+u v w ] ^ ^ ^ ^ ^ ^ ^ ^ ^ ^ ^ ^ ^ ^ ^ ^ ^ ^ ^ ^ ^ ^ ^ ^ ^ ^ ^ x y 3+e+f+g+                            ",
"                              L M 4 N N N N N N N N N N N N N N N N N N N N N N N N N g h+i+                                    ",
"                              j+! +.+.+.+.+.+.+.+.+.+.+.+.+.+.+.+.+.+.+.+.+.+.+.+.+.+.+.k+*.                                    ",
"                                                                                                                                ",
"                                                                                                                                ",
"                                                                                                                                "};
