/* XPM */
static char * 03_xpm[] = {
"64 64 294 2",
"  	c #000000",
". 	c #062606",
"+ 	c #0E3F0E",
"@ 	c #104410",
"# 	c #0F430F",
"$ 	c #0F440F",
"% 	c #093209",
"& 	c #010C01",
"* 	c #208F20",
"= 	c #36DC36",
"- 	c #3AEA3A",
"; 	c #3AE83A",
"> 	c #3AE93A",
", 	c #39E639",
"' 	c #2BB42B",
") 	c #093F09",
"! 	c #010901",
"~ 	c #032003",
"{ 	c #0A430A",
"] 	c #0F550F",
"^ 	c #0F560F",
"/ 	c #27AA27",
"( 	c #3DF33D",
"_ 	c #41FF41",
": 	c #40FF40",
"< 	c #3FFD3F",
"[ 	c #31CC31",
"} 	c #166D16",
"| 	c #0E510E",
"1 	c #0D4F0D",
"2 	c #083908",
"3 	c #000400",
"4 	c #082F08",
"5 	c #1A6C1A",
"6 	c #32C932",
"7 	c #3BEA3B",
"8 	c #2BAE2B",
"9 	c #186C18",
"0 	c #021E02",
"a 	c #000300",
"b 	c #000700",
"c 	c #062B06",
"d 	c #155D15",
"e 	c #29A829",
"f 	c #35D335",
"g 	c #36D736",
"h 	c #39E539",
"i 	c #3FFB3F",
"j 	c #40FE40",
"k 	c #3CEE3C",
"l 	c #36D936",
"m 	c #35D635",
"n 	c #31C631",
"o 	c #279D27",
"p 	c #1B6F1B",
"q 	c #0D3C0D",
"r 	c #0A330A",
"s 	c #021202",
"t 	c #000100",
"u 	c #001600",
"v 	c #002200",
"w 	c #002300",
"x 	c #012401",
"y 	c #042C04",
"z 	c #0B410B",
"A 	c #0F4E0F",
"B 	c #0F4F0F",
"C 	c #28A828",
"D 	c #31CB31",
"E 	c #166816",
"F 	c #0E480E",
"G 	c #135713",
"H 	c #1C711C",
"I 	c #2CB32C",
"J 	c #37DE37",
"K 	c #39E339",
"L 	c #2EBF2E",
"M 	c #105910",
"N 	c #000600",
"O 	c #001A00",
"P 	c #002700",
"Q 	c #002800",
"R 	c #002400",
"S 	c #001B00",
"T 	c #001000",
"U 	c #229922",
"V 	c #3AEB3A",
"W 	c #3EFA3E",
"X 	c #3EF83E",
"Y 	c #3DF63D",
"Z 	c #2FC52F",
"` 	c #126112",
" .	c #083E08",
"..	c #115411",
"+.	c #1D7A1D",
"@.	c #36DB36",
"#.	c #197819",
"$.	c #083D08",
"%.	c #0A440A",
"&.	c #063206",
"*.	c #031D03",
"=.	c #001300",
"-.	c #002100",
";.	c #021C02",
">.	c #021D02",
",.	c #010D01",
"'.	c #053005",
").	c #29B129",
"!.	c #3EF73E",
"~.	c #3CF13C",
"{.	c #2EBA2E",
"].	c #1C791C",
"^.	c #001F00",
"/.	c #000800",
"(.	c #000200",
"_.	c #000500",
":.	c #032403",
"<.	c #29B029",
"[.	c #3DF23D",
"}.	c #2EBB2E",
"|.	c #073307",
"1.	c #000A00",
"2.	c #001700",
"3.	c #002000",
"4.	c #001D00",
"5.	c #000B00",
"6.	c #001400",
"7.	c #001C00",
"8.	c #001200",
"9.	c #001800",
"0.	c #000900",
"a.	c #000D00",
"b.	c #002900",
"c.	c #000F00",
"d.	c #000C00",
"e.	c #001900",
"f.	c #002500",
"g.	c #002600",
"h.	c #001100",
"i.	c #001E00",
"j.	c #010A01",
"k.	c #3EF93E",
"l.	c #2FBD2F",
"m.	c #1D7B1D",
"n.	c #209220",
"o.	c #37E037",
"p.	c #3BEE3B",
"q.	c #3AEC3A",
"r.	c #3BED3B",
"s.	c #2EC32E",
"t.	c #1A7D1A",
"u.	c #156C15",
"v.	c #1A771A",
"w.	c #239023",
"x.	c #33CF33",
"y.	c #3FFC3F",
"z.	c #37DF37",
"A.	c #1F8E1F",
"B.	c #156B15",
"C.	c #156A15",
"D.	c #0E500E",
"E.	c #011001",
"F.	c #012001",
"G.	c #032103",
"H.	c #042004",
"I.	c #041F04",
"J.	c #25A025",
"K.	c #3CF23C",
"L.	c #30C730",
"M.	c #0E4F0E",
"N.	c #020002",
"O.	c #0C3A0C",
"P.	c #1A6A1A",
"Q.	c #3CF03C",
"R.	c #3EF63E",
"S.	c #32CE32",
"T.	c #126012",
"U.	c #052705",
"V.	c #114E11",
"W.	c #218B21",
"X.	c #2BAD2B",
"Y.	c #2BB02B",
"Z.	c #38E138",
"`.	c #2DB62D",
" +	c #29A629",
".+	c #238D23",
"++	c #1F801F",
"@+	c #1D7C1D",
"#+	c #176817",
"$+	c #052D05",
"%+	c #092F09",
"&+	c #1B6D1B",
"*+	c #33CB33",
"=+	c #2BAF2B",
"-+	c #176917",
";+	c #022702",
">+	c #073807",
",+	c #136313",
"'+	c #1A7C1A",
")+	c #1B7E1B",
"!+	c #2BB82B",
"~+	c #3DF53D",
"{+	c #40FD40",
"]+	c #33D433",
"^+	c #1E8B1E",
"/+	c #1A7B1A",
"(+	c #1B7A1B",
"_+	c #1E7B1E",
":+	c #38E238",
"<+	c #39E839",
"[+	c #2EC22E",
"}+	c #105A10",
"|+	c #229822",
"1+	c #2EC02E",
"2+	c #0D4B0D",
"3+	c #010001",
"4+	c #0B3B0B",
"5+	c #35D935",
"6+	c #021402",
"7+	c #001500",
"8+	c #0F510F",
"9+	c #1F841F",
"0+	c #1F821F",
"a+	c #1F831F",
"b+	c #249324",
"c+	c #28A428",
"d+	c #30C130",
"e+	c #2DB52D",
"f+	c #1D791D",
"g+	c #031E03",
"h+	c #3DF43D",
"i+	c #000E00",
"j+	c #032303",
"k+	c #2FBC2F",
"l+	c #0D480D",
"m+	c #1A6D1A",
"n+	c #1D741D",
"o+	c #1C731C",
"p+	c #1C741C",
"q+	c #228B22",
"r+	c #28A228",
"s+	c #31C331",
"t+	c #39E439",
"u+	c #2CB42C",
"v+	c #28A328",
"w+	c #269C26",
"x+	c #1D781D",
"y+	c #239C23",
"z+	c #0A450A",
"A+	c #082D08",
"B+	c #1A691A",
"C+	c #31C531",
"D+	c #146714",
"E+	c #010701",
"F+	c #042904",
"G+	c #0E4A0E",
"H+	c #1E881E",
"I+	c #28AB28",
"J+	c #29AE29",
"K+	c #2AB42A",
"L+	c #28AD28",
"M+	c #26A226",
"N+	c #28A628",
"O+	c #2FC62F",
"P+	c #30C930",
"Q+	c #27A927",
"R+	c #0D4E0D",
"S+	c #32CA32",
"T+	c #3BEC3B",
"U+	c #186B18",
"V+	c #051E05",
"W+	c #104710",
"X+	c #208620",
"Y+	c #2AA92A",
"Z+	c #2AAC2A",
"`+	c #33CD33",
" @	c #38E038",
".@	c #2CB22C",
"+@	c #2AAA2A",
"@@	c #0F480F",
"#@	c #011201",
"$@	c #011401",
"%@	c #011301",
"&@	c #249F24",
"*@	c #0C4C0C",
"=@	c #021702",
"-@	c #010E01",
";@	c #1B801B",
">@	c #30C630",
",@	c #33D333",
"'@	c #33D133",
")@	c #33D233",
"!@	c #32D032",
"~@	c #25A225",
"                                                                                                                                ",
"                                                                                                                                ",
"                                                                                                                                ",
"                            . + @ # # # # # # # # # # # # # # # # # # # # # # # # # # # # $ # % &                               ",
"                            * = - ; ; ; ; ; ; ; ; ; ; ; ; ; ; ; ; ; ; ; ; ; ; ; ; ; ; ; ; > , ' )                               ",
"                  ! ~ { ] ^ / ( _ : : : : : : : : : : : : : : : : : : : : : : : : : : : : : < [ } | 1 2 ~ 3                     ",
"                  4 5 6 < _ : : : : : : : : : : : : : : : : : : : : : : : : : : : : : : : : : : : _ 7 8 9 0                     ",
"            a b 3 c d e f g h i : : : : : : : : : : : : : : : : : : : : : : : : : : : : : : j k l m n o p $ q r s               ",
"          t u v w x y z A B C ( _ : : : : : : : : : : : : : : : : : : : : : : : : : : : : : < D E F G H I J K L M               ",
"    t a 3 N O P Q R S T     U V W X X X X X X X X X X X X X X X X X X X X X X X X X X X X X Y Z `  ...+.6 i _ @.#.$.%.&.*.b     ",
"  N =.-.Q Q Q Q Q Q Q Q Q Q x 0 ;.>.>.>.>.>.>.>.>.>.>.>.>.>.>.>.>.>.>.>.>.>.>.>.>.>.>.>.>.,.'.).!.: j j j : : : j : ~.{.].&.    ",
"  N =.-.Q Q Q Q Q Q Q Q Q Q ^./.    (.3 N N _.t     t a N N N N N N _.a t     3 N N _.3 t   :.<.X _ : : : : : : : : [.}.+.|.    ",
"  N =.-.Q Q Q Q Q Q Q Q Q Q ^./.  (.1.2.3.v 4.5.  t /.6.^.v v v v -.7.8.N   a 9.v v 4.6.0.  :.<.X _ : : : : : : : : [.}.+.|.    ",
"  N =.-.Q Q Q Q Q Q Q Q Q Q ^./.  a a.7.P b.w c.t 3 d.e.f.Q Q Q Q P -.2.1.t b 4.Q Q w 9.5.  :.<.X _ : : : : : : : : [.}.+.|.    ",
"  N =.-.Q Q Q Q Q Q Q Q Q Q ^./.  a a.7.g.Q Q P P P P Q Q Q Q Q Q Q Q Q P P P Q Q Q w 9.5.  :.<.X _ : : : : : : : : [.}.+.|.    ",
"  N =.-.Q Q Q Q Q Q Q Q Q Q ^./.  a a.7.g.Q Q Q Q Q Q Q Q Q Q Q Q Q Q Q Q Q Q Q Q Q w 9.5.  :.<.X _ : : : : : : : : [.}.+.|.    ",
"  N =.-.Q Q Q Q Q Q Q Q Q Q ^./.  a a.7.g.Q Q Q Q Q Q Q Q Q Q Q Q Q Q Q Q Q Q Q Q Q w 9.5.  :.<.X _ : : : : : : : : [.}.+.|.    ",
"  N =.-.Q Q Q Q Q Q Q Q Q Q ^./.  a a.S g.Q Q Q Q Q Q Q Q Q Q Q Q Q Q Q Q Q Q Q Q P v 9.5.  :.<.X _ : : : : : : : : [.}.+.|.    ",
"  N =.-.Q Q Q Q Q Q Q Q Q Q ^./.    t (.3 a h.w Q Q Q Q Q Q Q Q Q Q Q Q Q Q P e._.a a (.t   :.<.X _ : : : : : : : : [.}.+.|.    ",
"  N =.-.Q Q Q Q Q Q Q Q Q Q ^./.            c.w Q Q Q Q Q Q Q Q Q Q Q Q Q Q P 9.t           :.<.X _ : : : : : : : : [.}.+.|.    ",
"  N =.-.Q Q Q Q Q Q Q Q Q Q ^./.            c.w Q Q Q Q Q Q Q Q Q Q Q Q Q Q P 9.t           :.<.X _ : : : : : : : : [.}.+.|.    ",
"  N =.-.Q Q Q Q Q Q Q Q Q Q ^./.            c.w Q Q Q Q Q Q Q Q Q Q Q Q Q Q P 9.t           :.<.X _ : : : : : : : : [.}.+.|.    ",
"  N =.-.Q Q Q Q Q Q Q Q Q Q ^./.  a d.O f.g.P Q Q Q Q Q Q Q Q Q Q Q Q Q Q Q Q P g.g.-.2.1.  :.<.X _ : : : : : : : : [.}.+.|.    ",
"  N =.-.Q Q Q Q Q Q Q Q Q Q ^./.  a a.7.g.Q Q Q Q Q Q Q Q Q Q Q Q Q Q Q Q Q Q Q Q Q w 9.5.  :.<.X _ : : : : : : : : [.}.+.|.    ",
"  N =.-.Q Q Q Q Q Q Q Q Q Q ^./.  a a.7.g.Q Q Q Q Q Q Q Q Q Q Q Q Q Q Q Q Q Q Q Q Q w 9.5.  :.<.X _ : : : : : : : : [.}.+.|.    ",
"  N =.-.Q Q Q Q Q Q Q Q Q Q ^./.  a a.7.g.Q Q Q Q Q Q Q Q Q Q Q Q Q Q Q Q Q Q Q Q Q w 9.5.  :.<.X _ : : : : : : : : [.}.+.|.    ",
"  N =.-.Q Q Q Q Q Q Q Q Q Q ^./.  a a.7.g.b.w =.b 1.T S f.Q Q Q Q Q v e.c.b d.i.Q Q w 9.5.  :.<.X _ : : : : : : : : [.}.+.|.    ",
"  N =.-.Q Q Q Q Q Q Q Q Q Q ^./.  a d.O R g.3.d.  (.0.2.w g.f.f.g.f.^.6.b   3 S f.g.-.2.1.  :.<.X _ : : : : : : : : [.}.+.|.    ",
"  N =.-.Q Q Q Q Q Q Q Q Q Q ^./.  t 3 1.c.T a.a   t 3 0.c.T T T T T a.b (.  t 1.T T a./.a   :.<.X _ : : : : : : : : [.}.+.|.    ",
"  N =.v Q Q Q Q Q Q Q Q Q Q 9.                                                              j.<.k._ : : : : : : : _ ( l.m.|.    ",
"  t a /.5.a.7.P Q f.4.6.3   n.o.p.q.q.q.q.q.q.q.q.q.q.q.q.q.q.q.q.q.q.q.q.q.q.q.q.q.q.q.q.r.- s.t.u.v.w.x.y._ z.A.B.C.D.&.E.    ",
"          (.9.f.g.R F.G.H.I.J.K._ : : : : : : : : : : : : : : : : : : : : : : : : : : : : : < L.M.N.O.P.l.Q.R.S.T.              ",
"            0.h.T U.V.W.X.Y.x.X : : : : : : : : : : : : : : : : : : : : : : : : : : : : : : j Z.`.8  +.+++@+@+#+$+              ",
"                  %+&+*+: _ _ : : : : : : : : : : : : : : : : : : : : : : : : : : : : : : : : : _ _ r.=+-+        (.            ",
"          t u v w ;+>+,+'+)+!+~+_ : : : : : : : : : : : : : : : : : : : : : : : : : : : : : {+]+^+/+(+_+`.:+<+[+}+              ",
"    t t t 3 O P Q R S c.    |+- k.!.!.!.!.!.!.!.!.!.!.!.!.!.!.!.!.!.!.!.!.!.!.!.!.!.!.!.!.X ~+1+2+3+4+p n i _ 5+C.  *.6+j.(.    ",
"  a 5.7+e.O -.P Q g.v 4.9.9.8+@+9+0+0+0+0+0+0+0+0+0+0+0+0+0+0+0+0+0+0+0+0+0+0+0+0+0+0+0+0+0+a+b+c+ +X.d+K < : ; e+c+o f+V.g+    ",
"  N =.v Q Q Q Q Q Q Q Q Q Q 4.                                                              ;.).W _ : : : : : : : _ h+l.m.|.    ",
"  N =.-.Q Q Q Q Q Q Q Q Q Q ^./.  (.1.2.3.v 4.1.  t /.6.^.v -.-.v -.S 8.N   a 2.-.v 4.6./.  :.<.X _ : : : : : : : : [.}.+.|.    ",
"  N =.-.Q Q Q Q Q Q Q Q Q Q ^./.  a a.7.g.b.w c.  a 5.e.f.Q Q Q Q P -.2.0.  _.4.Q Q w 9.5.  :.<.X _ : : : : : : : : [.}.+.|.    ",
"  N =.-.Q Q Q Q Q Q Q Q Q Q ^./.  a a.7.g.b.f.7.2.9.S -.g.Q Q Q Q Q R ^.O 2.e.v Q Q w 9.5.  :.<.X _ : : : : : : : : [.}.+.|.    ",
"  N =.-.Q Q Q Q Q Q Q Q Q Q ^./.  a a.7.g.Q Q Q Q Q Q Q Q Q Q Q Q Q Q Q Q Q Q Q Q Q w 9.5.  :.<.X _ : : : : : : : : [.}.+.|.    ",
"  N =.-.Q Q Q Q Q Q Q Q Q Q ^./.  a a.7.g.Q Q Q Q Q Q Q Q Q Q Q Q Q Q Q Q Q Q Q Q Q w 9.5.  :.<.X _ : : : : : : : : [.}.+.|.    ",
"  N =.-.Q Q Q Q Q Q Q Q Q Q ^./.  a a.S g.Q Q Q Q Q Q Q Q Q Q Q Q Q Q Q Q Q Q Q P P v 9.5.  :.<.X _ : : : : : : : : [.}.+.|.    ",
"  N =.-.Q Q Q Q Q Q Q Q Q Q ^./.  (.N c.7+7+S f.Q Q Q Q Q Q Q Q Q Q Q Q Q Q P ^.u 7+=.d._.  :.<.X _ : : : : : : : : [.}.+.|.    ",
"  N =.-.Q Q Q Q Q Q Q Q Q Q ^./.            c.w Q Q Q Q Q Q Q Q Q Q Q Q Q Q P 9.t           :.<.X _ : : : : : : : : [.}.+.|.    ",
"  N =.-.Q Q Q Q Q Q Q Q Q Q ^./.            c.w Q Q Q Q Q Q Q Q Q Q Q Q Q Q P 9.t           :.<.X _ : : : : : : : : [.}.+.|.    ",
"  N =.-.Q Q Q Q Q Q Q Q Q Q ^./.            c.w Q Q Q Q Q Q Q Q Q Q Q Q Q Q P 9.(.          :.<.X _ : : : : : : : : [.}.+.|.    ",
"  N =.-.Q Q Q Q Q Q Q Q Q Q ^./.  t N a.=.6.O f.Q Q Q Q Q Q Q Q Q Q Q Q Q Q P i.7+6.h.d._.  :.<.X _ : : : : : : : : [.}.+.|.    ",
"  N =.-.Q Q Q Q Q Q Q Q Q Q ^./.  a a.7.P Q Q Q Q Q Q Q Q Q Q Q Q Q Q Q Q Q Q Q Q Q w e.5.  :.<.X _ : : : : : : : : [.}.+.|.    ",
"  N =.-.Q Q Q Q Q Q Q Q Q Q ^./.  a a.7.g.Q Q Q Q Q Q Q Q Q Q Q Q Q Q Q Q Q Q Q Q Q w 9.5.  :.<.X _ : : : : : : : : [.}.+.|.    ",
"  N =.-.Q Q Q Q Q Q Q Q Q Q ^./.  a a.7.g.Q Q Q Q Q Q Q Q Q Q Q Q Q Q Q Q Q Q Q Q Q w 9.5.  :.<.X _ : : : : : : : : [.}.+.|.    ",
"  N =.-.Q Q Q Q Q Q Q Q Q Q ^./.  a a.7.g.b.f.7.9.e.7.-.g.Q Q Q Q Q f.-.S 9.e.v Q Q w 9.5.  :.<.X _ : : : : : : : : [.}.+.|.    ",
"  N =.-.Q Q Q Q Q Q Q Q Q Q ^./.  a a.7.P b.w i+  (.1.e.f.b.Q Q Q Q -.u /.  3 4.Q Q w e.5.  :.<.X _ : : : : : : : : [.}.+.|.    ",
"  N =.-.Q Q Q Q Q Q Q Q Q Q ^./.  (.b 8.O S 2.b   t _.c.e.S S S S O u a.3   (.8.S S 2.c.N   :.<.X _ : : : : : : : : [.}.+.|.    ",
"  N =.-.Q Q Q Q Q Q Q Q Q Q ^.N                                                             j+).X _ : : : : : : : _ [.k++.|.    ",
"  3 d.7+e.O -.P Q g.w i.e.9.l+m+n+o+o+o+o+o+o+o+o+o+o+o+o+o+o+o+o+o+o+o+o+o+o+o+o+o+o+o+o+o+p+q+r+c+X.s+t+< : ; u+v+w+x+V.*.    ",
"          (.e.P b.R e.(.    y+~.: j j j j j j j j j j j j j j j j j j j j j j j j j j j j : y.Z z+  A+B+C+y._ 5+D+  & E+a       ",
"          t h.7.7.F+G+H+I+J+S.X : : : : : : : : : : : : : : : : : : : : : : : : : : : : : : j o.K+L+M+q+N+O+P+Q+R+              ",
"                  %+&+S+j _ _ : : : : : : : : : : : : : : : : : : : : : : : : : : : : : : : : : _ _ T+=+U+        t             ",
"                  V+W+X+Y+Z+`+!.: : : : : : : : : : : : : : : : : : : : : : : : : : : : : : j  @.@+@o p+@@#@                    ",
"                  t _.#@$@%@&@K._ : : : : : : : : : : : : : : : : : : : : : : : : : : : : : {+L.*@  =@-@_.                      ",
"                            ;@>@,@'@'@'@'@'@'@'@'@'@'@'@'@'@'@'@'@'@'@'@'@'@'@'@'@'@'@'@'@)@!@~@>+                              ",
"                                                                                                  t                             "};
