/* XPM */
static char * 04_xpm[] = {
"64 64 243 2",
"  	c #000000",
". 	c #000300",
"+ 	c #000A00",
"@ 	c #000C00",
"# 	c #000B00",
"$ 	c #000400",
"% 	c #000E00",
"& 	c #002200",
"* 	c #002700",
"= 	c #002600",
"- 	c #002300",
"; 	c #001200",
"> 	c #000200",
", 	c #000600",
"' 	c #001600",
") 	c #002500",
"! 	c #002800",
"~ 	c #001800",
"{ 	c #000D00",
"] 	c #000900",
"^ 	c #000100",
"/ 	c #000500",
"( 	c #002900",
"_ 	c #001F00",
": 	c #001100",
"< 	c #021702",
"[ 	c #0D3D0D",
"} 	c #114911",
"| 	c #104710",
"1 	c #0C3D0C",
"2 	c #063006",
"3 	c #012301",
"4 	c #002100",
"5 	c #032703",
"6 	c #093509",
"7 	c #104510",
"8 	c #0E400E",
"9 	c #041E04",
"0 	c #115C11",
"a 	c #31CA31",
"b 	c #3BEE3B",
"c 	c #39E539",
"d 	c #2DB72D",
"e 	c #1C781C",
"f 	c #073407",
"g 	c #002400",
"h 	c #001500",
"i 	c #021A02",
"j 	c #0F450F",
"k 	c #259725",
"l 	c #37DE37",
"m 	c #3CEF3C",
"n 	c #34D434",
"o 	c #177117",
"p 	c #021102",
"q 	c #063106",
"r 	c #0E530E",
"s 	c #0F550F",
"t 	c #1C821C",
"u 	c #37E037",
"v 	c #41FF41",
"w 	c #3EF93E",
"x 	c #33CE33",
"y 	c #249624",
"z 	c #156915",
"A 	c #105A10",
"B 	c #033403",
"C 	c #023002",
"D 	c #0C500C",
"E 	c #125F12",
"F 	c #1A721A",
"G 	c #2BB02B",
"H 	c #3DF23D",
"I 	c #3AE93A",
"J 	c #209120",
"K 	c #0F570F",
"L 	c #0A410A",
"M 	c #042604",
"N 	c #000800",
"O 	c #010E01",
"P 	c #249324",
"Q 	c #40FF40",
"R 	c #38E538",
"S 	c #187618",
"T 	c #126012",
"U 	c #35D935",
"V 	c #3DF43D",
"W 	c #2EBB2E",
"X 	c #1C771C",
"Y 	c #042904",
"Z 	c #38E438",
"` 	c #000700",
" .	c #001B00",
"..	c #001E00",
"+.	c #001900",
"@.	c #001D00",
"#.	c #001300",
"$.	c #001C00",
"%.	c #002000",
"&.	c #001400",
"*.	c #001700",
"=.	c #001000",
"-.	c #000F00",
";.	c #0F400F",
">.	c #249424",
",.	c #3BEB3B",
"'.	c #39E639",
").	c #177317",
"!.	c #35DA35",
"~.	c #3EF63E",
"{.	c #2FBD2F",
"].	c #052A05",
"^.	c #062606",
"/.	c #135D13",
"(.	c #229622",
"_.	c #25A325",
":.	c #2AB42A",
"<.	c #3AEA3A",
"[.	c #3FFB3F",
"}.	c #2EBE2E",
"|.	c #27A927",
"1.	c #29AF29",
"2.	c #30C830",
"3.	c #32D032",
"4.	c #32CF32",
"5.	c #31CB31",
"6.	c #2AB32A",
"7.	c #25A425",
"8.	c #26A626",
"9.	c #2AAD2A",
"0.	c #33CC33",
"a.	c #3CF03C",
"b.	c #2CBB2C",
"c.	c #249D24",
"d.	c #1A781A",
"e.	c #0E4A0E",
"f.	c #136313",
"g.	c #3EF73E",
"h.	c #31C531",
"i.	c #1F811F",
"j.	c #083608",
"k.	c #3CF23C",
"l.	c #021602",
"m.	c #28A228",
"n.	c #197919",
"o.	c #083908",
"p.	c #1F831F",
"q.	c #269A26",
"r.	c #228B22",
"s.	c #208320",
"t.	c #1F7F1F",
"u.	c #2AAA2A",
"v.	c #3DF53D",
"w.	c #2DB52D",
"x.	c #208120",
"y.	c #207F20",
"z.	c #218521",
"A.	c #259525",
"B.	c #269B26",
"C.	c #218A21",
"D.	c #0C470C",
"E.	c #031903",
"F.	c #124C12",
"G.	c #29A829",
"H.	c #32CA32",
"I.	c #073207",
"J.	c #012201",
"K.	c #0A3A0A",
"L.	c #1B7A1B",
"M.	c #2AB22A",
"N.	c #32CD32",
"O.	c #3EF83E",
"P.	c #33D333",
"Q.	c #2CB82C",
"R.	c #259A25",
"S.	c #249524",
"T.	c #2BB52B",
"U.	c #2DBE2D",
"V.	c #105910",
"W.	c #1B7F1B",
"X.	c #219421",
"Y.	c #104610",
"Z.	c #28A428",
"`.	c #42FF42",
" +	c #39E839",
".+	c #1A7B1A",
"++	c #0F540F",
"@+	c #259825",
"#+	c #29A629",
"$+	c #29A729",
"%+	c #28A128",
"&+	c #208420",
"*+	c #1B6F1B",
"=+	c #1D761D",
"-+	c #249124",
";+	c #31C331",
">+	c #1B6C1B",
",+	c #1A6C1A",
"'+	c #135213",
")+	c #0A320A",
"!+	c #010D01",
"~+	c #011901",
"{+	c #011401",
"]+	c #136213",
"^+	c #35D835",
"/+	c #40FE40",
"(+	c #3FFD3F",
"_+	c #40FD40",
":+	c #3CF13C",
"<+	c #2EBA2E",
"[+	c #1B761B",
"}+	c #001A00",
"|+	c #30C430",
"1+	c #3AE83A",
"2+	c #3AE73A",
"3+	c #3BEC3B",
"4+	c #3FFA3F",
"5+	c #37DC37",
"6+	c #2AA92A",
"7+	c #196B19",
"8+	c #042404",
"9+	c #032F03",
"0+	c #125912",
"a+	c #176817",
"b+	c #196D19",
"c+	c #218621",
"d+	c #2FBC2F",
"e+	c #239723",
"f+	c #166216",
"g+	c #166316",
"h+	c #104B10",
"i+	c #082E08",
"j+	c #010B01",
"k+	c #021202",
"l+	c #114811",
"m+	c #28A328",
"n+	c #39E739",
"o+	c #197A19",
"p+	c #022602",
"q+	c #083C08",
"r+	c #115D11",
"s+	c #0E520E",
"t+	c #042804",
"                                                                                                                                ",
"                                                                                                                                ",
"                                . + @ @ @ @ @ @ @ @ @ @ @ @ @ @ @ @ @ @ @ @ @ @ @ @ @ @ @ @ @ # $                               ",
"                                % & * = = = = = = = = = = = = = = = = = = = = = = = = = = = * - ;                               ",
"                        > , @ @ ' ) ! ! ! ! ! ! ! ! ! ! ! ! ! ! ! ! ! ! ! ! ! ! ! ! ! ! ! ! ! = ~ { { ] $ ^                     ",
"                        / ~ = ( ! ! ! ! ! ! ! ! ! ! ! ! ! ! ! ! ! ! ! ! ! ! ! ! ! ! ! ! ! ! ! ! ! ( ! _ :                       ",
"                < [ } | 1 2 3 _ & * ! ! ! ! ! ! ! ! ! ! ! ! ! ! ! ! ! ! ! ! ! ! ! ! ! ! ! ! ! * & _ 4 5 6 7 } 8 9               ",
"                0 a b c d e f   ; g ! ! ! ! ! ! ! ! ! ! ! ! ! ! ! ! ! ! ! ! ! ! ! ! ! ! ! ! ! ) h   i j k l m n o               ",
"      > p q r s t u v w x y z A r B - = = = = = = = = = = = = = = = = = = = = = = = = = = = g C D 0 E F G H v I J s K L M N     ",
"      O 8 P I v Q Q Q Q Q Q Q v R S                                                           T U Q Q Q Q Q Q Q Q Q V W X Y     ",
"      O 8 P I v Q Q Q Q Q Q Q v Z S     > / ` ` / ^   ^ > / ` ` ` ` ` , $ ^     $ ` ` , $ ^   T U Q Q Q Q Q Q Q Q Q V W X Y     ",
"      O 8 P I v Q Q Q Q Q Q Q v Z S   > + ~ & -  ./   . {  .& - & & & ..h N   . +.& & @.#./   T U Q Q Q Q Q Q Q Q Q V W X Y     ",
"      O 8 P I v Q Q Q Q Q Q Q v Z S   . { $.* ! %.+ > ` : %.! ! ! ! ! - +.@ > ` ..! ! 4 ' `   T U Q Q Q Q Q Q Q Q Q V W X Y     ",
"      O 8 P I v Q Q Q Q Q Q Q v Z S   . { $.* ! ! * * * ! ! ! ! ! ! ! ! ! * * * ! ! ! 4 ' `   T U Q Q Q Q Q Q Q Q Q V W X Y     ",
"      O 8 P I v Q Q Q Q Q Q Q v Z S   . { $.* ! ! ! ! ! ! ! ! ! ! ! ! ! ! ! ! ! ! ! ! 4 ' `   T U Q Q Q Q Q Q Q Q Q V W X Y     ",
"      O 8 P I v Q Q Q Q Q Q Q v Z S   . { $.* ! ! ! ! ! ! ! ! ! ! ! ! ! ! ! ! ! ! ! ! 4 ' `   T U Q Q Q Q Q Q Q Q Q V W X Y     ",
"      O 8 P I v Q Q Q Q Q Q Q v Z S   . { $.* ! ! ! ! ! ! ! ! ! ! ! ! ! ! ! ! ! ! ! * 4 ' `   T U Q Q Q Q Q Q Q Q Q V W X Y     ",
"      O 8 P I v Q Q Q Q Q Q Q v Z S     ^ . / / ' = ! ! ! ! ! ! ! ! ! ! ! ! ! * +., / $ > ^   T U Q Q Q Q Q Q Q Q Q V W X Y     ",
"      O 8 P I v Q Q Q Q Q Q Q v Z S             &.= ! ! ! ! ! ! ! ! ! ! ! ! ! * ~             T U Q Q Q Q Q Q Q Q Q V W X Y     ",
"      O 8 P I v Q Q Q Q Q Q Q v Z S             &.= ! ! ! ! ! ! ! ! ! ! ! ! ! * ~             T U Q Q Q Q Q Q Q Q Q V W X Y     ",
"      O 8 P I v Q Q Q Q Q Q Q v Z S             &.= ! ! ! ! ! ! ! ! ! ! ! ! ! * *.            T U Q Q Q Q Q Q Q Q Q V W X Y     ",
"      O 8 P I v Q Q Q Q Q Q Q v Z S   > # +.- g = ! ! ! ! ! ! ! ! ! ! ! ! ! ! ! = g g ..#.,   T U Q Q Q Q Q Q Q Q Q V W X Y     ",
"      O 8 P I v Q Q Q Q Q Q Q v Z S   . { $.* ! ! ! ! ! ! ! ! ! ! ! ! ! ! ! ! ! ! ! ! 4 ' `   T U Q Q Q Q Q Q Q Q Q V W X Y     ",
"      O 8 P I v Q Q Q Q Q Q Q v Z S   . { $.* ! ! ! ! ! ! ! ! ! ! ! ! ! ! ! ! ! ! ! ! 4 ' `   T U Q Q Q Q Q Q Q Q Q V W X Y     ",
"      O 8 P I v Q Q Q Q Q Q Q v Z S   . { $.* ! ! ! ! ! ! ! ! ! ! ! ! ! ! ! ! ! ! ! ! 4 ' `   T U Q Q Q Q Q Q Q Q Q V W X Y     ",
"      O 8 P I v Q Q Q Q Q Q Q v Z S   . { $.* ! & &.=.#.~ & ! ! ! ! ! g @.h =.#.%.! ! 4 ' `   T U Q Q Q Q Q Q Q Q Q V W X Y     ",
"      O 8 P I v Q Q Q Q Q Q Q v Z S   . @ $.= ! _ `   $ -...* * * * * & ~ ]   $ $.* * %.h ,   T U Q Q Q Q Q Q Q Q Q V W X Y     ",
"      O 8 P I v Q Q Q Q Q Q Q v Z S   ^ , % &.h -.>   > ` =.h h h h h ; # $   ^ % h h : + .   T U Q Q Q Q Q Q Q Q Q V W X Y     ",
"      O ;.>.,.v v Q Q Q Q Q v v '.).                                                          A !.v v v Q Q Q Q Q v ~.{.e ].    ",
"      / ^./.(._.:.<.v [.l }.|._.1.2.3.4.4.4.4.4.4.4.4.4.4.4.4.4.4.4.4.4.4.4.4.4.4.4.4.4.4.4.3.5.6.7.8.9.0.~.v a.b._.c.d.e.<     ",
"                f.!.Q g.h.i.j.  t <.v Q Q Q Q Q Q Q Q Q Q Q Q Q Q Q Q Q Q Q Q Q Q Q Q Q Q Q v k.(.  l.} m.m v R n.              ",
"                o.p.q.k r.s.s.t.u.m Q Q Q Q Q Q Q Q Q Q Q Q Q Q Q Q Q Q Q Q Q Q Q Q Q Q Q Q Q v.w.x.s.y.z.A.B.C.D.              ",
"                      E.F.G.V v Q Q Q Q Q Q Q Q Q Q Q Q Q Q Q Q Q Q Q Q Q Q Q Q Q Q Q Q Q Q Q Q Q v [.H.p.I.      ^             ",
"                / h +.J.K.L.M.b.N.V Q Q Q Q Q Q Q Q Q Q Q Q Q Q Q Q Q Q Q Q Q Q Q Q Q Q Q Q Q O.P.b.Q.R.S.T.U.|.V.              ",
"                ] 4 ( * ..,     W.I v Q Q Q Q Q Q Q Q Q Q Q Q Q Q Q Q Q Q Q Q Q Q Q Q Q Q Q v k.X.    Y.Z.H `. +.+              ",
"        . N -.=.h - ! * &  .#.  ++@+G.#+#+#+#+#+#+#+#+#+#+#+#+#+#+#+#+#+#+#+#+#+#+#+#+#+#+#+$+%+&+*+=+-+;+v.v ,.B.>+,+'+)+!+    ",
"      ^ N ' g ! ! ! ! ! ! ! ! ! g ~+{+{+{+{+{+{+{+{+{+{+{+{+{+{+{+{+{+{+{+{+{+{+{+{+{+{+{+{+  ]+^+/+(+_+/+Q Q Q _+/+:+<+[+Y     ",
"      ^ N ' g ! ! ! ! ! ! ! ! ! - {   ^ / % h ' =..   ^ , =.' ' ' ' ' #.# $   ^ -.' ' : + .   T U Q Q Q Q Q Q Q Q Q V W X Y     ",
"      ^ N ' g ! ! ! ! ! ! ! ! ! - {   . { @.* ( %.`   $ =._ ! ( ! ! ! - ~ +   $ @.! ! & ' `   T U Q Q Q Q Q Q Q Q Q V W X Y     ",
"      ^ N ' g ! ! ! ! ! ! ! ! ! - {   . { $.* ! & ; { : ~ & ! ! ! ! ! g @.&.{ =._ ! ! 4 ' `   T U Q Q Q Q Q Q Q Q Q V W X Y     ",
"      ^ N ' g ! ! ! ! ! ! ! ! ! - {   . { $.* ! ! * * * * ! ! ! ! ! ! ! * * * * * ! ! 4 ' `   T U Q Q Q Q Q Q Q Q Q V W X Y     ",
"      ^ N ' g ! ! ! ! ! ! ! ! ! - {   . { $.* ! ! ! ! ! ! ! ! ! ! ! ! ! ! ! ! ! ! ! ! 4 ' `   T U Q Q Q Q Q Q Q Q Q V W X Y     ",
"      ^ N ' g ! ! ! ! ! ! ! ! ! - {   . { $.* ( ! ! ! ! ! ! ! ! ! ! ! ! ! ! ! ! ! ! ! 4 ' `   T U Q Q Q Q Q Q Q Q Q V W X Y     ",
"      ^ N ' g ! ! ! ! ! ! ! ! ! - {   > ] h @...& * ! ! ! ! ! ! ! ! ! ! ! ! ! ! - ....+.=.$   T U Q Q Q Q Q Q Q Q Q V W X Y     ",
"      ^ N ' g ! ! ! ! ! ! ! ! ! - {     ^ . $ $ ' = ! ! ! ! ! ! ! ! ! ! ! ! ! * +./ $ . >     T U Q Q Q Q Q Q Q Q Q V W X Y     ",
"      ^ N ' g ! ! ! ! ! ! ! ! ! - {             &.= ! ! ! ! ! ! ! ! ! ! ! ! ! * ~             T U Q Q Q Q Q Q Q Q Q V W X Y     ",
"      ^ N ' g ! ! ! ! ! ! ! ! ! - {             &.= ! ! ! ! ! ! ! ! ! ! ! ! ! * ~             T U Q Q Q Q Q Q Q Q Q V W X Y     ",
"      ^ N ' g ! ! ! ! ! ! ! ! ! - {     > / N N *.= ! ! ! ! ! ! ! ! ! ! ! ! ! * }+] N ` $ ^   T U Q Q Q Q Q Q Q Q Q V W X Y     ",
"      ^ N ' g ! ! ! ! ! ! ! ! ! - {   > # +.- g ) ! ! ! ! ! ! ! ! ! ! ! ! ! ! ! = g - ..#.,   T U Q Q Q Q Q Q Q Q Q V W X Y     ",
"      ^ N ' g ! ! ! ! ! ! ! ! ! - {   . { $.* ! ! ! ! ! ! ! ! ! ! ! ! ! ! ! ! ! ! ! ! 4 ' `   T U Q Q Q Q Q Q Q Q Q V W X Y     ",
"      ^ N ' g ! ! ! ! ! ! ! ! ! - {   . { $.* ! ! ! ! ! ! ! ! ! ! ! ! ! ! ! ! ! ! ! ! 4 ' `   T U Q Q Q Q Q Q Q Q Q V W X Y     ",
"      ^ N ' g ! ! ! ! ! ! ! ! ! - {   . { $.* ! = - & - g = ! ! ! ! ! * = - & - = ! ! 4 ' `   T U Q Q Q Q Q Q Q Q Q V W X Y     ",
"      ^ N ' g ! ! ! ! ! ! ! ! ! - {   . { $.* ! 4 -.] { h 4 ! ! ! ! ! g $.: ] { _ ! ! 4 ' `   T U Q Q Q Q Q Q Q Q Q V W X Y     ",
"      ^ N ' g ! ! ! ! ! ! ! ! ! - {   > @ $.= ! _ `   $ -._ * * * * * & ~ ]   $ $.* * 4 h `   T U Q Q Q Q Q Q Q Q Q V W X Y     ",
"      ^ N ' g ! ! ! ! ! ! ! ! ! - {     ^ > . . >       ^ > . . . . . . ^       > . . > ^     T U Q Q Q Q Q Q Q Q Q V W X Y     ",
"        ` &.%.g ) * ! ! * = g g _ % . / / / / / / / / / / / / / / / / / / / / / / / / / / /   K |+1+2+3+V (+Q 4+3+2+5+6+7+8+    ",
"        > , @ @ #.& ! * & +.=.@ ; $._ _ _ _ _ _ _ _ _ _ _ _ _ _ _ _ _ _ _ _ _ _ _ _ _ _ _ _  .9+0+a+b+c+d+V v <.e+f+g+h+i+j+    ",
"                ] 4 ( * _ #..   -.g ( ! ! ! ! ! ! ! ! ! ! ! ! ! ! ! ! ! ! ! ! ! ! ! ! ! ! ! ( ) {   k+l+m+:+v n+o+              ",
"                ^ / ` N { +.g = = ! ! ! ! ! ! ! ! ! ! ! ! ! ! ! ! ! ! ! ! ! ! ! ! ! ! ! ! ! ! ! = ) = p+q+K r+s+t+              ",
"                      ^ ] ~ - = = ! ! ! ! ! ! ! ! ! ! ! ! ! ! ! ! ! ! ! ! ! ! ! ! ! ! ! ! ! ! ! = = ) @.; $                     ",
"                      ^ $ ] -.=.*.) ! ! ! ! ! ! ! ! ! ! ! ! ! ! ! ! ! ! ! ! ! ! ! ! ! ! ! ! ! = }+=.=.@ , ^                     ",
"                                -.g ( ! ! ! ! ! ! ! ! ! ! ! ! ! ! ! ! ! ! ! ! ! ! ! ! ! ! ! ( = #.                              ",
"                                . # { { { { { { { { { { { { { { { { { { { { { { { { { { { { { @ $                               ",
"                                                                                                                                "};
