/* XPM */
static char * 05_xpm[] = {
"64 64 267 2",
"  	c #000000",
". 	c #000300",
"+ 	c #010C01",
"@ 	c #010F01",
"# 	c #0A3E0A",
"$ 	c #1C781C",
"% 	c #218621",
"& 	c #218521",
"* 	c #1A7B1A",
"= 	c #39E639",
"- 	c #41FF41",
"; 	c #40FF40",
"> 	c #021302",
", 	c #0A360A",
"' 	c #1A771A",
") 	c #28AA28",
"! 	c #2AB22A",
"~ 	c #2FC62F",
"{ 	c #3CF23C",
"] 	c #28AC28",
"^ 	c #1F871F",
"/ 	c #115711",
"( 	c #032303",
"_ 	c #031E03",
": 	c #135113",
"< 	c #2BAD2B",
"[ 	c #3EF63E",
"} 	c #3EF93E",
"| 	c #31C431",
"1 	c #1E801E",
"2 	c #083708",
"3 	c #062C06",
"4 	c #145814",
"5 	c #186218",
"6 	c #196519",
"7 	c #1C701C",
"8 	c #238D23",
"9 	c #2CB12C",
"0 	c #31C631",
"a 	c #2AAC2A",
"b 	c #218921",
"c 	c #145C14",
"d 	c #042904",
"e 	c #000500",
"f 	c #000C00",
"g 	c #197A19",
"h 	c #37DF37",
"i 	c #3FFB3F",
"j 	c #3CEF3C",
"k 	c #2FBD2F",
"l 	c #1E7F1E",
"m 	c #0C440C",
"n 	c #1C831C",
"o 	c #39E739",
"p 	c #021002",
"q 	c #052A05",
"r 	c #032403",
"s 	c #012201",
"t 	c #002600",
"u 	c #002700",
"v 	c #002200",
"w 	c #000D00",
"x 	c #010B01",
"y 	c #052505",
"z 	c #105510",
"A 	c #1B7E1B",
"B 	c #26A626",
"C 	c #3AEC3A",
"D 	c #3EF83E",
"E 	c #34D134",
"F 	c #28A728",
"G 	c #1E891E",
"H 	c #1A7D1A",
"I 	c #249D24",
"J 	c #34D534",
"K 	c #38E438",
"L 	c #32CE32",
"M 	c #177117",
"N 	c #001000",
"O 	c #001500",
"P 	c #001E00",
"Q 	c #002900",
"R 	c #002400",
"S 	c #001600",
"T 	c #000E00",
"U 	c #000900",
"V 	c #000400",
"W 	c #000100",
"X 	c #042104",
"Y 	c #145214",
"Z 	c #3DF53D",
"` 	c #001F00",
" .	c #002800",
"..	c #001200",
"+.	c #2AAB2A",
"@.	c #3DF33D",
"#.	c #000200",
"$.	c #000800",
"%.	c #000700",
"&.	c #002300",
"*.	c #001700",
"=.	c #001B00",
"-.	c #000B00",
";.	c #001A00",
">.	c #001100",
",.	c #000600",
"'.	c #001400",
").	c #001300",
"!.	c #001D00",
"~.	c #002100",
"{.	c #002000",
"].	c #000A00",
"^.	c #001900",
"/.	c #031D03",
"(.	c #114911",
"_.	c #269D26",
":.	c #3AEB3A",
"<.	c #3BEE3B",
"[.	c #40FD40",
"}.	c #3AEA3A",
"|.	c #35D835",
"1.	c #229822",
"2.	c #177217",
"3.	c #187618",
"4.	c #197719",
"5.	c #156B15",
"6.	c #064006",
"7.	c #002500",
"8.	c #3EF73E",
"9.	c #30C130",
"0.	c #1D7C1D",
"a.	c #052905",
"b.	c #146614",
"c.	c #2EBD2E",
"d.	c #35D535",
"e.	c #33CC33",
"f.	c #2AA92A",
"g.	c #1E7C1E",
"h.	c #124F12",
"i.	c #0B300B",
"j.	c #208920",
"k.	c #39E839",
"l.	c #0C340C",
"m.	c #0E3F0E",
"n.	c #0A370A",
"o.	c #052C05",
"p.	c #012301",
"q.	c #001C00",
"r.	c #042404",
"s.	c #0D490D",
"t.	c #105210",
"u.	c #125612",
"v.	c #186518",
"w.	c #279F27",
"x.	c #36D736",
"y.	c #38E238",
"z.	c #3AE73A",
"A.	c #38E138",
"B.	c #36D936",
"C.	c #1A701A",
"D.	c #063106",
"E.	c #042004",
"F.	c #134F13",
"G.	c #29A829",
"H.	c #3FFC3F",
"I.	c #40FE40",
"J.	c #3CF13C",
"K.	c #2FBF2F",
"L.	c #1F811F",
"M.	c #0D4D0D",
"N.	c #063706",
"O.	c #063406",
"P.	c #011801",
"Q.	c #032A03",
"R.	c #073807",
"S.	c #042B04",
"T.	c #1D871D",
"U.	c #032803",
"V.	c #0A410A",
"W.	c #155A15",
"X.	c #2AAA2A",
"Y.	c #33D133",
"Z.	c #3BEA3B",
"`.	c #3AE83A",
" +	c #34D234",
".+	c #1B791B",
"++	c #051805",
"@+	c #0C3D0C",
"#+	c #196619",
"$+	c #2CB32C",
"%+	c #3DF43D",
"&+	c #1D841D",
"*+	c #051705",
"=+	c #082C08",
"-+	c #052205",
";+	c #031303",
">+	c #073A07",
",+	c #156315",
"'+	c #196F19",
")+	c #196E19",
"!+	c #186B18",
"~+	c #1F851F",
"{+	c #2CB52C",
"]+	c #30C330",
"^+	c #31C531",
"/+	c #34CF34",
"(+	c #39E439",
"_+	c #30C230",
":+	c #2EBC2E",
"<+	c #249324",
"[+	c #166016",
"}+	c #052705",
"|+	c #073607",
"1+	c #000F00",
"2+	c #001800",
"3+	c #012601",
"4+	c #062A06",
"5+	c #072B07",
"6+	c #041704",
"7+	c #1B7A1B",
"8+	c #3BED3B",
"9+	c #3BEC3B",
"0+	c #3CF03C",
"a+	c #39E339",
"b+	c #1B751B",
"c+	c #115C11",
"d+	c #29A929",
"e+	c #2BB02B",
"f+	c #208620",
"g+	c #1C7A1C",
"h+	c #269E26",
"i+	c #135713",
"j+	c #0B370B",
"k+	c #197919",
"l+	c #124912",
"m+	c #42FF42",
"n+	c #032203",
"o+	c #104910",
"p+	c #259925",
"q+	c #35DA35",
"r+	c #3EFA3E",
"s+	c #38E538",
"t+	c #36DD36",
"u+	c #2BB12B",
"v+	c #218A21",
"w+	c #1D831D",
"x+	c #1C821C",
"y+	c #187418",
"z+	c #083C08",
"A+	c #29A729",
"B+	c #3FFA3F",
"C+	c #073507",
"D+	c #010E01",
"E+	c #082B08",
"F+	c #165E16",
"G+	c #208720",
"H+	c #228B22",
"I+	c #2AAD2A",
"J+	c #218821",
"K+	c #196B19",
"L+	c #0F450F",
"M+	c #031A03",
"N+	c #1A7E1A",
"O+	c #0F560F",
"P+	c #25A125",
"Q+	c #2AB52A",
"R+	c #2AB32A",
"                                                                                                                                ",
"                              . + @ @ @ @ @ @ @ @ @ @ @ @ @ @ @ @ @ @ @ @ @ @ @ @ @ @ @ @ @ @ + .                               ",
"                              # $ % & & & & & & & & & & & & & & & & & & & & & & & & & & & & % $ #                               ",
"                              * = - ; ; ; ; ; ; ; ; ; ; ; ; ; ; ; ; ; ; ; ; ; ; ; ; ; ; ; ; - = *                               ",
"                    > , ' ) ! ~ { ; ; ; ; ; ; ; ; ; ; ; ; ; ; ; ; ; ; ; ; ; ; ; ; ; ; ; ; ; ; { ~ ! ] ^ / (                     ",
"                    _ : < [ - - ; ; ; ; ; ; ; ; ; ; ; ; ; ; ; ; ; ; ; ; ; ; ; ; ; ; ; ; ; ; ; ; - - } | 1 2                     ",
"              3 4 5 6 7 8 < 9 0 { ; ; ; ; ; ; ; ; ; ; ; ; ; ; ; ; ; ; ; ; ; ; ; ; ; ; ; ; ; ; { 0 9 a b c d e f .               ",
"              g h i j k l m   n o - ; ; ; ; ; ; ; ; ; ; ; ; ; ; ; ; ; ; ; ; ; ; ; ; ; ; ; ; - o n p q r s t u v w               ",
"    x y z * A B C - D E F G H I J = K K K K K K K K K K K K K K K K K K K K K K K K K K K K = L M   N O P t Q R S T T U V W     ",
"    X Y < Z - ; ; ; ; ; ; - - o *                                                               ` Q  . . . . . . .Q u P ..V     ",
"    X : +.@.- ; ; ; ; ; ; ; - = A     #.e $.U %.#.    #.e $.U U U U $.%.V W   #.%.U $.%.V W   T &. . . . . . . . . .t P ..V     ",
"    X : +.@.- ; ; ; ; ; ; ; - = A   #.U *.v R ` f   #.U *.v R R R R v =.N .   f ` R v =.N .   T &. . . . . . . . . .t P ..V     ",
"    X : +.@.- ; ; ; ; ; ; ; - = A   #.-.;.t Q &.>.. ,.T =.t  . . . .u ` '.$.. >.&.Q t P ..V   T &. . . . . . . . . .t P ..V     ",
"    X : +.@.- ; ; ; ; ; ; ; - = A   #.-.;.t  . . .u u  . . . . . . . . . .u u  . . .t P ..V   T &. . . . . . . . . .t P ..V     ",
"    X : +.@.- ; ; ; ; ; ; ; - = A   #.-.;.t  . . . . . . . . . . . . . . . . . . . .t P ..V   T &. . . . . . . . . .t P ..V     ",
"    X : +.@.- ; ; ; ; ; ; ; - = A   #.-.;.t  . . . . . . . . . . . . . . . . . . . .t P ..V   T &. . . . . . . . . .t P ..V     ",
"    X : +.@.- ; ; ; ; ; ; ; - = A   #.-.;.t  . . . . . . . . . . . . . . . . . . . .u P ..V   T &. . . . . . . . . .t P ..V     ",
"    X : +.@.- ; ; ; ; ; ; ; - = A     #.e U U '.R  . . . . . . . . . . . . . .R '.U U ,.. W   T &. . . . . . . . . .t P ..V     ",
"    X : +.@.- ; ; ; ; ; ; ; - = A             T &. . . . . . . . . . . . . . .&.T             T &. . . . . . . . . .t P ..V     ",
"    X : +.@.- ; ; ; ; ; ; ; - = A             T &. . . . . . . . . . . . . . .&.T             T &. . . . . . . . . .t P ..V     ",
"    X : +.@.- ; ; ; ; ; ; ; - = A             w &. . . . . . . . . . . . . . .&.w             T &. . . . . . . . . .t P ..V     ",
"    X : +.@.- ; ; ; ; ; ; ; - = A   W %.).!.` ~.t  . . . . . . . . . . . . . .t ~.` P *.w #.  T &. . . . . . . . . .t P ..V     ",
"    X : +.@.- ; ; ; ; ; ; ; - = A   #.-.;.t  . . . . . . . . . . . . . . . . . . . .u P ..V   T &. . . . . . . . . .t P ..V     ",
"    X : +.@.- ; ; ; ; ; ; ; - = A   #.-.;.t  . . . . . . . . . . . . . . . . . . . .t P ..V   T &. . . . . . . . . .t P ..V     ",
"    X : +.@.- ; ; ; ; ; ; ; - = A   #.-.;.t  . . . . . . . . . . . . . . . . . . . .t P ..V   T &. . . . . . . . . .t P ..V     ",
"    X : +.@.- ; ; ; ; ; ; ; - = A   #.-.;.t Q t {.!.P ` &.u  . . . .u R ~.P !.{.t  .t P ..V   T &. . . . . . . . . .t P ..V     ",
"    X : +.@.- ; ; ; ; ; ; ; - = A   #.-.;.t Q &.w   W ].;.t Q  . . .u P ..#.  w &.Q u P ..V   T &. . . . . . . . . .t P ..V     ",
"    X : +.@.- ; ; ; ; ; ; ; - = A   W $...=.!.^.$.  W $...=.!.!.!.!.=.O f #.  $.^.!.=.O f #.  T &. . . . . . . . . .t P ..V     ",
"    X : +.@.- ; ; ; ; ; ; ; - = A     W #.. . #.W     W #.. . . . . . #.W     W #.. . #.W     T &. . . . . . . . . .t P ..V     ",
"    /.(._.h :.<.i ; [.Z <.}.:.|.1.2.3.3.3.3.3.3.3.3.3.3.3.3.3.3.3.3.3.3.3.3.3.3.3.3.3.3.3.3.4.5.6.{.R R t  . .u 7.R v =.N .     ",
"              * o - 8.9.0.a.  * o - ; ; ; ; ; ; ; ; ; ; ; ; ; ; ; ; ; ; ; ; ; ; ; ; ; ; ; ; - o A     ,.^.t Q &.T               ",
"              b.c.d.e.f.g.h.i.j.k.- ; ; ; ; ; ; ; ; ; ; ; ; ; ; ; ; ; ; ; ; ; ; ; ; ; ; ; ; - k.j.l.m.n.o.p.~.q.].              ",
"              r.s.t.u.v.w.x.y.z.} ; ; ; ; ; ; ; ; ; ; ; ; ; ; ; ; ; ; ; ; ; ; ; ; ; ; ; ; ; ; } z.A.B.+.C.D.  ,.#.              ",
"                W   E.F.G.j H.i I.; ; ; ; ; ; ; ; ; ; ; ; ; ; ; ; ; ; ; ; ; ; ; ; ; ; ; ; ; ; I.i H.J.K.L.M.N.O.P.              ",
"              T v  .t s Q.R.S.T.o - ; ; ; ; ; ; ; ; ; ; ; ; ; ; ; ; ; ; ; ; ; ; ; ; ; ; ; ; - o T.U.V.W.X.j I.y.*               ",
"      W #.V . >.&.Q u ` '.$.  2.Y.Z.`.`.`.`.`.`.`.`.`.`.`.`.`.`.`.`.`.`.`.`.`.`.`.`.`.`.`.`.Z. +.+++@+#+$+%+- o &+*+=+-+;+V     ",
"    W %.).q.P {.t  .u 7.~.P ^.>+,+'+)+)+)+)+)+)+)+)+)+)+)+)+)+)+)+)+)+)+)+)+)+)+)+)+)+)+)+)+!+~+{+]+^+/+(+i ; %+E _+:+<+[+}+    ",
"    #.-.;.t Q  . . . . . . .Q v W                                                             H o - ; ; ; ; ; ; ; - 8.]+l 2     ",
"    #.-.;.t  . . . . . . . . .&.T   #.U *.v R ` f   #.U *.v R R R R v =.N .   f ` R v =.N .   A = - ; ; ; ; ; ; ; ; [ _+l |+    ",
"    #.-.;.t  . . . . . . . . .&.T   #.-.;.t Q &.1+  V w =.t  . . . .u P ).e   1+&.Q t P ..V   A = - ; ; ; ; ; ; ; ; [ _+l |+    ",
"    #.-.;.t  . . . . . . . . .&.T   #.-.;.t Q 7.q.*.2+q.~.u  . . . .u &.P ^.*.q.7.Q t P ..V   A = - ; ; ; ; ; ; ; ; [ _+l |+    ",
"    #.-.;.t  . . . . . . . . .&.T   #.-.;.t  . . . . . . . . . . . . . . . . . . . .t P ..V   A = - ; ; ; ; ; ; ; ; [ _+l |+    ",
"    #.-.;.t  . . . . . . . . .&.T   #.-.;.t  . . . . . . . . . . . . . . . . . . . .t P ..V   A = - ; ; ; ; ; ; ; ; [ _+l |+    ",
"    #.-.;.t  . . . . . . . . .&.T   #.-.;.t  . . . . . . . . . . . . . . . . . . . .t P ..V   A = - ; ; ; ; ; ; ; ; [ _+l |+    ",
"    #.-.;.t  . . . . . . . . .&.T   W %.N 2+^.!.7. . . . . . . . . . . . . . .7.!.^.2+..].#.  A = - ; ; ; ; ; ; ; ; [ _+l |+    ",
"    #.-.;.t  . . . . . . . . .&.T         W   T &. . . . . . . . . . . . . . .&.T   W         A = - ; ; ; ; ; ; ; ; [ _+l |+    ",
"    #.-.;.t  . . . . . . . . .&.T             T &. . . . . . . . . . . . . . .&.T             A = - ; ; ; ; ; ; ; ; [ _+l |+    ",
"    #.-.;.t  . . . . . . . . .&.T             T &. . . . . . . . . . . . . . .&.T             A = - ; ; ; ; ; ; ; ; [ _+l |+    ",
"    #.-.;.t  . . . . . . . . .&.T     . %.-.-.O R  . . . . . . . . . . . . . .R O -.-.U e W   A = - ; ; ; ; ; ; ; ; [ _+l |+    ",
"    #.-.;.t  . . . . . . . . .&.T   #.].2+R t t  . . . . . . . . . . . . . . . .t t R q.>..   A = - ; ; ; ; ; ; ; ; [ _+l |+    ",
"    #.-.;.t  . . . . . . . . .&.T   #.-.;.t  . . . . . . . . . . . . . . . . . . . .t P ..V   A = - ; ; ; ; ; ; ; ; [ _+l |+    ",
"    #.-.;.t  . . . . . . . . .&.T   #.-.;.t  . . . . . . . . . . . . . . . . . . . .t P ..V   A = - ; ; ; ; ; ; ; ; [ _+l |+    ",
"    #.-.;.t  . . . . . . . . .&.T   #.-.;.t  .u &.~.v &.7. . . . . . .t R v ~.&.u  .t P ..V   A = - ; ; ; ; ; ; ; ; [ _+l |+    ",
"    #.-.;.t  . . . . . . . . .&.T   #.-.;.t Q R ).$.-...!.t  . . . .u {.*.w $.).R Q t P ..V   A = - ; ; ; ; ; ; ; ; [ _+l |+    ",
"    #.-.;.t  . . . . . . . . .&.T   #.-.;.7. .v T   #.-.;.7. .u u  .t P ...   T v  .t P ...   A = - ; ; ; ; ; ; ; ; [ _+l |+    ",
"    #.-.;.t  . . . . . . . . .&.T       #.V V . W       #.V V V V V V #.W     W . V V #.W     A = - ; ; ; ; ; ; ; ; [ _+l |+    ",
"    #.].2+&.7.7.u  . .u t 7.7.3+4+5+5+5+5+5+5+5+5+5+5+5+5+5+5+5+5+5+5+5+5+5+5+5+5+5+5+5+5+5+6+7+d.8+9+0+8.I.; i 0+8+a+$+b+D.    ",
"    W V U 1+1+*.R Q u v ;...  c+d+k :+:+:+:+:+:+:+:+:+:+:+:+:+:+:+:+:+:+:+:+:+:+:+:+:+:+:+:+k e+f+C.g+<+0 [ - :.h+)+'+i+j+>     ",
"              T &.Q u q.      * o - ; ; ; ; ; ; ; ; ; ; ; ; ; ; ; ; ; ; ; ; ; ; ; ; ; ; ; ; - o k+    l++.Z m+k.H               ",
"              . f U n+o+p+q+= }.r+; ; ; ; ; ; ; ; ; ; ; ; ; ; ; ; ; ; ; ; ; ; ; ; ; ; ; ; ; ; r+}.s+t+u+v+w+x+y+z+              ",
"                    E.F.A+<.i B+I.; ; ; ; ; ; ; ; ; ; ; ; ; ; ; ; ; ; ; ; ; ; ; ; ; ; ; ; ; ; I.B+B+0+k 0.C+                    ",
"                    D+E+F+G+H+I+8+; ; ; ; ; ; ; ; ; ; ; ; ; ; ; ; ; ; ; ; ; ; ; ; ; ; ; ; ; ; 8+I+H+J+K+L+M+                    ",
"                              N+k.- - - - - - - - - - - - - - - - - - - - - - - - - - - - - - k.N+                              ",
"                              O+P+Q+R+R+R+R+R+R+R+R+R+R+R+R+R+R+R+R+R+R+R+R+R+R+R+R+R+R+R+R+Q+P+O+                              "};
