/* XPM */
static char * 06_xpm[] = {
"64 64 242 2",
"  	c #000000",
". 	c #000400",
"+ 	c #000600",
"@ 	c #000500",
"# 	c #000300",
"$ 	c #001B00",
"% 	c #002100",
"& 	c #001400",
"* 	c #000100",
"= 	c #000800",
"- 	c #002900",
"; 	c #002800",
"> 	c #001A00",
", 	c #000200",
"' 	c #000C00",
") 	c #001E00",
"! 	c #002700",
"~ 	c #002600",
"{ 	c #001D00",
"] 	c #000E00",
"^ 	c #062706",
"/ 	c #0B350B",
"( 	c #0A330A",
"_ 	c #062C06",
": 	c #022602",
"< 	c #002300",
"[ 	c #002500",
"} 	c #002200",
"| 	c #001000",
"1 	c #032503",
"2 	c #28AA28",
"3 	c #36D936",
"4 	c #33CF33",
"5 	c #259A25",
"6 	c #125812",
"7 	c #000F00",
"8 	c #001C00",
"9 	c #000A00",
"0 	c #000B00",
"a 	c #002000",
"b 	c #010801",
"c 	c #032103",
"d 	c #052E05",
"e 	c #0A440A",
"f 	c #31CD31",
"g 	c #41FF41",
"h 	c #3EF63E",
"i 	c #2EB92E",
"j 	c #197119",
"k 	c #053105",
"l 	c #012B01",
"m 	c #001900",
"n 	c #001500",
"o 	c #001100",
"p 	c #021302",
"q 	c #124D12",
"r 	c #2DB52D",
"s 	c #3EF83E",
"t 	c #3FFC3F",
"u 	c #40FE40",
"v 	c #40FF40",
"w 	c #3FFD3F",
"x 	c #3CF23C",
"y 	c #1F8E1F",
"z 	c #001200",
"A 	c #124E12",
"B 	c #2DB72D",
"C 	c #3DF63D",
"D 	c #209020",
"E 	c #000D00",
"F 	c #002400",
"G 	c #000700",
"H 	c #001800",
"I 	c #001F00",
"J 	c #000900",
"K 	c #219321",
"L 	c #021E02",
"M 	c #053205",
"N 	c #022D02",
"O 	c #197019",
"P 	c #032703",
"Q 	c #115C11",
"R 	c #36DB36",
"S 	c #3FFB3F",
"T 	c #3FFA3F",
"U 	c #2AB22A",
"V 	c #042704",
"W 	c #39E339",
"X 	c #29A729",
"Y 	c #196A19",
"Z 	c #092A09",
"` 	c #145F14",
" .	c #37DE37",
"..	c #2CB72C",
"+.	c #0A310A",
"@.	c #072D07",
"#.	c #032603",
"$.	c #010A01",
"%.	c #0D480D",
"&.	c #135C13",
"*.	c #155F15",
"=.	c #1B701B",
"-.	c #2CB12C",
";.	c #35D635",
">.	c #36DA36",
",.	c #3DF53D",
"'.	c #3AEA3A",
").	c #35D735",
"!.	c #34D134",
"~.	c #279E27",
"{.	c #145D14",
"].	c #053005",
"^.	c #093A09",
"/.	c #186218",
"(.	c #32C932",
"_.	c #2EBA2E",
":.	c #1A711A",
"<.	c #063406",
"[.	c #021A02",
"}.	c #042D04",
"|.	c #30C730",
"1.	c #3DF23D",
"2.	c #2CB42C",
"3.	c #186C18",
"4.	c #115E11",
"5.	c #2BB72B",
"6.	c #042C04",
"7.	c #083908",
"8.	c #165D16",
"9.	c #30C230",
"0.	c #229822",
"a.	c #020C02",
"b.	c #062406",
"c.	c #0E460E",
"d.	c #32CD32",
"e.	c #3EF73E",
"f.	c #30C030",
"g.	c #1D791D",
"h.	c #092D09",
"i.	c #125612",
"j.	c #30C430",
"k.	c #39E239",
"l.	c #38E138",
"m.	c #38E038",
"n.	c #38DF38",
"o.	c #27A227",
"p.	c #093009",
"q.	c #0D3F0D",
"r.	c #1C701C",
"s.	c #32CA32",
"t.	c #3EF93E",
"u.	c #259F25",
"v.	c #082308",
"w.	c #062206",
"x.	c #020E02",
"y.	c #042604",
"z.	c #010E01",
"A.	c #0F410F",
"B.	c #269A26",
"C.	c #35D435",
"D.	c #36D836",
"E.	c #3CF03C",
"F.	c #3CEF3C",
"G.	c #36D736",
"H.	c #33D033",
"I.	c #218D21",
"J.	c #125712",
"K.	c #29AD29",
"L.	c #3CF13C",
"M.	c #39E539",
"N.	c #32CB32",
"O.	c #239123",
"P.	c #104E10",
"Q.	c #062F06",
"R.	c #2DB82D",
"S.	c #021C02",
"T.	c #2EC32E",
"U.	c #2BAD2B",
"V.	c #145E14",
"W.	c #001300",
"X.	c #001700",
"Y.	c #2BAC2B",
"Z.	c #021D02",
"`.	c #052805",
" +	c #011001",
".+	c #104410",
"++	c #28A128",
"@+	c #38E238",
"#+	c #3DF33D",
"$+	c #40FD40",
"%+	c #3DF43D",
"&+	c #3AE83A",
"*+	c #1E851E",
"=+	c #082708",
"-+	c #0A340A",
";+	c #0C3B0C",
">+	c #2AAE2A",
",+	c #3AE93A",
"'+	c #3EF53E",
")+	c #3BEB3B",
"!+	c #259825",
"~+	c #115211",
"{+	c #010B01",
"]+	c #031803",
"^+	c #0C410C",
"/+	c #135A13",
"(+	c #166616",
"_+	c #33D133",
":+	c #31C631",
"<+	c #218A21",
"[+	c #135913",
"}+	c #186D18",
"|+	c #2FBF2F",
"1+	c #35D535",
"2+	c #27A327",
"3+	c #156215",
"4+	c #208420",
"5+	c #34CF34",
"6+	c #28A928",
"7+	c #0C3D0C",
"8+	c #041E04",
"9+	c #115D11",
"0+	c #165C16",
"a+	c #093B09",
"b+	c #031C03",
"c+	c #145214",
"d+	c #2CB22C",
"e+	c #29A529",
"f+	c #010601",
"g+	c #051F05",
"h+	c #0E480E",
"i+	c #1A761A",
"j+	c #2EBE2E",
"k+	c #135B13",
"l+	c #0D430D",
"m+	c #052405",
"n+	c #0D4F0D",
"o+	c #35DA35",
"p+	c #2AB12A",
"q+	c #042A04",
"r+	c #053305",
"s+	c #022002",
"                                . + @ @ @ @ @ @ @ @ @ @ @ @ @ @ @ @ @ @ @ @ @ @ @ + @ #                                         ",
"                              . $ % % % % % % % % % % % % % % % % % % % % % % % % % % &                                         ",
"                          * * = % - ; ; ; ; ; ; ; ; ; ; ; ; ; ; ; ; ; ; ; ; ; ; ; ; ; > , , *                                   ",
"                      * ' ) ! ! ; ; ; ; ; ; ; ; ; ; ; ; ; ; ; ; ; ; ; ; ; ; ; ; ; ; ; ; ! ~ { ]                                 ",
"                # ^ / ( _ : < < ! ; ; ; ; ; ; ; ; ; ; ; ; ; ; ; ; ; ; ; ; ; ; ; ; ; ; [ < } $ | + @ ,                         * ",
"                1 2 3 4 5 6 = 7 } ; ; ; ; ; ; ; ; ; ; ; ; ; ; ; ; ; ; ; ; ; ; ; ; ; ; 8 9 0 | > % a 7                         ' ",
"        * b c d e f g h i j k k l ! ! ! ! ! ! ! ! ! ! ! ! ! ! ! ! ! ! ! ! ! ! ! ! ! ! m , . ] ) ; ! n * , *             * , * o ",
"#       p q r s t u v v w t w x y   , , , , , , , , , , , , , , , , , , , , , , , , # 8 ! ! ! ; ; ; ; ; [ > 0         . z < ; ! ",
"#       p A B t v v v v v v v C D     , . + @ *   * , @ + @ @ @ @ #     , @ @ . ,   * 8 ; ; ; ; ; ; ; ; ~ $ 0         . z < ; ; ",
"#       p A B t v v v v v v v C D   # E 8 } ) =   . | ) % % % % 8 o #   z % % > ] * * 8 ; ; ; ; ; ; ; ; ~ $ 0         . z < ; ; ",
"#       p A B t v v v v v v v C D   # o } - F E * G n F ; ; ; ; } n + * H ; ; a z * * 8 ; ; ; ; ; ; ; ; ~ $ 0         . z < ; ; ",
"#       p A B t v v v v v v v C D   # o } ; ; ! ! ! ; ; ; ; ; ; ; ; ! ! ; ; ; I z * * 8 ; ; ; ; ; ; ; ; ~ $ 0         . z < ; ; ",
"#       p A B t v v v v v v v C D   # o } ; ; ; ; ; ; ; ; ; ; ; ; ; ; ; ; ; ; I z * * 8 ; ; ; ; ; ; ; ; ~ $ 0         . z < ; ; ",
"#       p A B t v v v v v v v C D   # o } ; ; ; ; ; ; ; ; ; ; ; ; ; ; ; ; ; ; I z * * 8 ; ; ; ; ; ; ; ; ~ $ 0         . z < ; ; ",
"#       p A B t v v v v v v v C D   # | % ; ! ; ; ; ; ; ; ; ; ; ; ; ; ; ; ! ! I o * * 8 ; ; ; ; ; ; ; ; ~ $ 0         . z < ; ; ",
"#       p A B t v v v v v v v C D     * , * E F ; ; ; ; ; ; ; ; ; ; ; ; ) . , * *   * 8 ; ; ; ; ; ; ; ; ~ $ 0         . z < ; ; ",
"#       p A B t v v v v v v v C D           ' F ; ; ; ; ; ; ; ; ; ; ; ; { ,         * 8 ; ; ; ; ; ; ; ; ~ $ 0         . z < ; ; ",
"#       p A B t v v v v v v v C D           ' F ; ; ; ; ; ; ; ; ; ; ; ; { ,         * 8 ; ; ; ; ; ; ; ; ~ $ 0         . z < ; ; ",
"#       p A B t v v v v v v v C D     * , * E F ; ; ; ; ; ; ; ; ; ; ; ; ) . , * *   * 8 ; ; ; ; ; ; ; ; ~ $ 0         . z < ; ; ",
"#       p A B t v v v v v v v C D   # | % ; ! ; ; ; ; ; ; ; ; ; ; ; ; ; ; ! ! I o * * 8 ; ; ; ; ; ; ; ; ~ $ 0         . z < ; ; ",
"#       p A B t v v v v v v v C D   # o } ; ; ; ; ; ; ; ; ; ; ; ; ; ; ; ; ; ; I z * * 8 ; ; ; ; ; ; ; ; ~ $ 0         . z < ; ; ",
"#       p A B t v v v v v v v C D   # o } ; ; ; ; ; ; ; ; ; ; ; ; ; ; ; ; ; ; I z * * 8 ; ; ; ; ; ; ; ; ~ $ 0         . z < ; ; ",
"#       p A B t v v v v v v v C D   # o } ; ; ! ! ! ; ; ; ; ; ; ; ; ! ! ; ; ; I z * * 8 ; ; ; ; ; ; ; ; ~ $ 0         . z < ; ; ",
"#       p A B t v v v v v v v C D   # o } - F E * G n F ; ; ; ; } n + * H ! ; a z * * 8 ; ; ; ; ; ; ; ; ~ $ 0         . z < ; ; ",
"#       p A B t v v v v v v v C D   # ] ) F I J   . o a < < < < { z #   & < < $ 7 * * 8 ; ; ; ; ; ; ; ; ~ $ 0         . z < ; ; ",
"#       p A B t v v v v v v v C D   * . = 0 J ,   * . J 0 0 0 0 = . *   . 9 9 G #   * 8 ; ; ; ; ; ; ; ; ~ $ 0         . z < ; ; ",
"#       p q r s t u v v w t w x K L M M M M M M M M M M M M M M M M M M M M M M M M M N ! ! ! ; ; ; ; ; [ > 0         . z < ; ! ",
"        * b c d e f g h i O P Q R u S S S S S S S S S S S S S S S S S S S S S S S t T U   , E ) ; ! n * , *             * , * o ",
"                V U W 3 X Y Z `  .g v v v v v v v v v v v v v v v v v v v v v v v v u ..+.( @.#.< } o                         E ",
"                $.%.&.*.=.-.;.>.,.v v v v v v v v v v v v v v v v v v v v v v v v v v '.).!.~.{.| 9 #                         , ",
"                # 1 ].^./.(.t t u v v v v v v v v v v v v v v v v v v v v v v v v v v w w ,._.:.<.].[.                          ",
"                }.|.u 1.2.3.P 4. .g v v v v v v v v v v v v v v v v v v v v v v v v u 5.6.7.8.9.t ,.0.                        7 ",
".       * a.b.+.c.d.g e.f.g.h.i.j.k.l.l.l.l.l.l.m.l.m.l.l.m.l.m.l.l.l.l.l.l.l.l.l.l.n.o.p.q.r.s.v t.u.v.+.w.x.        * , @ . z ",
"y.      z.A.B.C.D.E.v w F.m.G.H.I.J.&.&.&.&.&.&.&.&.&.&.&.&.&.&.&.&.&.&.&.&.&.&.&.&.` K.).D.n.L.v w M.).N.O.P.        # 7 { % < ",
"Q.      p A R.t v v v v v v v C D                                                   S.T.v v v v v v v v x U.V.        . W.< ; ; ",
"Q.      p A B t v v v v v v v C D   # | % ; < 0   @ W.< ; ! ! ! % & #   X.! ! I o   L T.v v v v v v v v L.Y.V.        . z < ; ; ",
"Q.      p A B t v v v v v v v C D   # o } - F 7 . 0 X.[ ; ; ; ; } X.J . m ! ; I z   L T.v v v v v v v v L.Y.V.        . z < ; ; ",
"Q.      p A B t v v v v v v v C D   # o } ; ! } % } F ! ; ; ; ; ! F } % F ; ; I z   L T.v v v v v v v v L.Y.V.        . z < ; ; ",
"Q.      p A B t v v v v v v v C D   # o } ; ; ; ; ; ; ; ; ; ; ; ; ; ; ; ; ; ; I z   L T.v v v v v v v v L.Y.V.        . z < ; ; ",
"Q.      p A B t v v v v v v v C D   # o } ; ; ; ; ; ; ; ; ; ; ; ; ; ; ; ; ; ; a z   L T.v v v v v v v v L.Y.V.        . z < ; ; ",
"Q.      p A B t v v v v v v v C D   # ] ) < F ! ; ; ; ; ; ; ; ; ; ; ; ; ~ < < $ 7   L T.v v v v v v v v L.Y.V.        . z < ; ; ",
"Q.      p A B t v v v v v v v C D   * . = 9 z [ ; ; ; ; ; ; ; ; ; ; ; ; I ' 9 G #   L T.v v v v v v v v L.Y.V.        . z < ; ; ",
"Q.      p A B t v v v v v v v C D           0 F ; ; ; ; ; ; ; ; ; ; ; ; { ,         L T.v v v v v v v v L.Y.V.        . z < ; ; ",
"Q.      p A B t v v v v v v v C D           0 F ; ; ; ; ; ; ; ; ; ; ; ; { ,         L T.v v v v v v v v L.Y.V.        . z < ; ; ",
"Q.      p A B t v v v v v v v C D     , . . 7 F ; ; ; ; ; ; ; ; ; ; ; ; ) G @ . ,   L T.v v v v v v v v L.Y.V.        . z < ; ; ",
"Q.      p A B t v v v v v v v C D   # E 8 % } ! ; ; ; ; ; ; ; ; ; ; ; ; [ % % > ]   L T.v v v v v v v v L.Y.V.        . z < ; ; ",
"Q.      p A B t v v v v v v v C D   # o } ; ; ; ; ; ; ; ; ; ; ; ; ; ; ; ; ; ; a z   L T.v v v v v v v v L.Y.V.        . z < ; ; ",
"Q.      p A B t v v v v v v v C D   # o } ; ; ; ; ; ; ; ; ; ; ; ; ; ; ; ; ; ; I z   L T.v v v v v v v v L.Y.V.        . z < ; ; ",
"Q.      p A B t v v v v v v v C D   # o } ; ! F < F [ ! ; ; ; ; ! [ < < [ ; ; I z   L T.v v v v v v v v L.Y.V.        . z < ; ; ",
"Q.      p A B t v v v v v v v C D   # o } - [ z J 7 H [ ; ; ; ; < m E 9 > ; ; I z   L T.v v v v v v v v L.Y.V.        . z < ; ; ",
"Q.      p A B t v v v v v v v C D   # | % ; < 0   @ W.< ; ! ! ! % & #   X.! ! I o   L T.v v v v v v v v L.Y.V.        . z < ; ; ",
"Q.      p A R.t v v v v v v v C D         *             * * * *           * *       Z.T.v v v v v v v v L.Y.V.        . W.< ; ; ",
"`.       +.+++ .@+#+v $+%+&+@+3 *+=+-+-+-+-+-+-+-+-+-+-+-+-+-+-+-+-+-+-+-+-+-+-+-+-+;+>+l.l.,+'+v $+)+l.C.!+~+        . | I < F ",
"{+      # ]+^+/+(+_+g s :+<+[+}+|+D.).).).).).).).).).).).).).).).).).).).).).).).).1+2+/+3+4+5+v t.6+i.J.7+8+        * . J 9 n ",
"                6.|.u 1.2.3.#.9+ .g v v v v v v v v v v v v v v v v v v v v v v v v u 5.6.7.0+9.t ,.0.                        7 ",
"                # 1 k a+/.(.t t u v v v v v v v v v v v v v v v v v v v v v v v v v v w w ,._.:.<.].[.                        * ",
"                      b+c+d+m.W e.v v v v v v v v v v v v v v v v v v v v v v v v v v F.l.>.e+*.+                               ",
"                      f+g+h+6 i+l.g v v v v v v v v v v v v v v v v v v v v v v v v u j+k+/+l+m+*                               ",
"                              n+o+u S S S S S S S S S S S S S S S S S S S S S S S t T p+                                        ",
"                              J q+r+M M M M M M M M M M M M M M M M M M M M M M M M M s+                                        ",
"                                                                                                                                ",
"                                                                                                                                ",
"                                                                                                                                ",
"                                                                                                                                "};
