/* XPM */
static char * 07_xpm[] = {
"64 64 223 2",
"  	c #000000",
". 	c #000100",
"+ 	c #010901",
"@ 	c #010F01",
"# 	c #010C01",
"$ 	c #000400",
"% 	c #042804",
"& 	c #186A18",
"* 	c #208520",
"= 	c #218621",
"- 	c #218521",
"; 	c #1C771C",
"> 	c #0B420B",
", 	c #0D500D",
"' 	c #31CC31",
") 	c #40FE40",
"! 	c #40FF40",
"~ 	c #41FF41",
"{ 	c #39E639",
"] 	c #1C821C",
"^ 	c #021302",
"/ 	c #093209",
"( 	c #186E18",
"_ 	c #26A526",
": 	c #2AB22A",
"< 	c #2CBC2C",
"[ 	c #38E538",
"} 	c #3CF23C",
"| 	c #30C830",
"1 	c #29AF29",
"2 	c #219021",
"3 	c #156315",
"4 	c #073407",
"5 	c #042004",
"6 	c #124D12",
"7 	c #28A128",
"8 	c #3CEE3C",
"9 	c #3FFD3F",
"0 	c #34D134",
"a 	c #239023",
"b 	c #0F4E0F",
"c 	c #000C00",
"d 	c #000A00",
"e 	c #021D02",
"f 	c #0B3C0B",
"g 	c #1A721A",
"h 	c #28A528",
"i 	c #2CB22C",
"j 	c #2EBB2E",
"k 	c #39E539",
"l 	c #32C832",
"m 	c #2CB12C",
"n 	c #2BB02B",
"o 	c #279D27",
"p 	c #218421",
"q 	c #1B6D1B",
"r 	c #186218",
"s 	c #175F17",
"t 	c #0E440E",
"u 	c #010D01",
"v 	c #001100",
"w 	c #002300",
"x 	c #002700",
"y 	c #002600",
"z 	c #012101",
"A 	c #022202",
"B 	c #042904",
"C 	c #021102",
"D 	c #125E12",
"E 	c #32CE32",
"F 	c #39E739",
"G 	c #1E891E",
"H 	c #021202",
"I 	c #073207",
"J 	c #249124",
"K 	c #37DE37",
"L 	c #3FFA3F",
"M 	c #29B129",
"N 	c #053105",
"O 	c #000E00",
"P 	c #001800",
"Q 	c #002500",
"R 	c #002900",
"S 	c #002100",
"T 	c #001A00",
"U 	c #001200",
"V 	c #0C4D0C",
"W 	c #2BB72B",
"X 	c #38E338",
"Y 	c #38E438",
"Z 	c #34D534",
"` 	c #24A024",
" .	c #1B7E1B",
"..	c #1C831C",
"+.	c #218D21",
"@.	c #3BEA3B",
"#.	c #30C930",
"$.	c #1D881D",
"%.	c #1B7F1B",
"&.	c #187418",
"*.	c #105410",
"=.	c #010A01",
"-.	c #001000",
";.	c #001E00",
">.	c #002800",
",.	c #002400",
"'.	c #1A7B1A",
").	c #3AE83A",
"!.	c #2AAB2A",
"~.	c #186C18",
"{.	c #032003",
"].	c #001700",
"^.	c #000300",
"/.	c #000700",
"(.	c #000900",
"_.	c #000600",
":.	c #000200",
"<.	c #000500",
"[.	c #000800",
"}.	c #2AAA2A",
"|.	c #186B18",
"1.	c #031F03",
"2.	c #000F00",
"3.	c #001C00",
"4.	c #001B00",
"5.	c #002200",
"6.	c #001400",
"7.	c #001500",
"8.	c #001900",
"9.	c #002000",
"0.	c #000D00",
"a.	c #001F00",
"b.	c #000B00",
"c.	c #001D00",
"d.	c #001300",
"e.	c #177417",
"f.	c #32D032",
"g.	c #3AEB3A",
"h.	c #3AEA3A",
"i.	c #3CF03C",
"j.	c #3DF43D",
"k.	c #34D234",
"l.	c #259B25",
"m.	c #156115",
"n.	c #021C02",
"o.	c #0E3C0E",
"p.	c #2BB62B",
"q.	c #032703",
"r.	c #021802",
"s.	c #0C3C0C",
"t.	c #1D7A1D",
"u.	c #2EBC2E",
"v.	c #35D535",
"w.	c #33CD33",
"x.	c #229622",
"y.	c #022602",
"z.	c #0D4A0D",
"A.	c #105310",
"B.	c #0F4F0F",
"C.	c #083808",
"D.	c #012301",
"E.	c #063406",
"F.	c #073B07",
"G.	c #073807",
"H.	c #032603",
"I.	c #0F430F",
"J.	c #238F23",
"K.	c #38E038",
"L.	c #2AB32A",
"M.	c #001600",
"N.	c #022702",
"O.	c #062C06",
"P.	c #082C08",
"Q.	c #0B380B",
"R.	c #165B16",
"S.	c #3EF93E",
"T.	c #2CB92C",
"U.	c #0D450D",
"V.	c #062106",
"W.	c #072907",
"X.	c #041D04",
"Y.	c #020F02",
"Z.	c #126012",
"`.	c #2AAD2A",
" +	c #31C431",
".+	c #3DF53D",
"++	c #3FFC3F",
"@+	c #38E238",
"#+	c #31C531",
"$+	c #30C230",
"%+	c #2BAF2B",
"&+	c #1F811F",
"*+	c #115011",
"=+	c #021502",
"-+	c #3AE73A",
";+	c #33D233",
">+	c #3BED3B",
",+	c #3BEC3B",
"'+	c #3CEF3C",
")+	c #35D435",
"!+	c #166216",
"~+	c #073C07",
"{+	c #166716",
"]+	c #1A731A",
"^+	c #228D22",
"/+	c #2EB72E",
"(+	c #30C530",
"_+	c #1D7B1D",
":+	c #1A701A",
"<+	c #176717",
"[+	c #104C10",
"}+	c #072E07",
"|+	c #010801",
"1+	c #0F400F",
"2+	c #249224",
"3+	c #3FFB3F",
"4+	c #042E04",
"5+	c #012401",
"6+	c #042B04",
"7+	c #0D4B0D",
"8+	c #187318",
"9+	c #105B10",
"0+	c #011401",
"                        . + @ @ @ @ @ @ @ @ @ @ @ @ @ @ @ @ @ @ @ @ @ @ @ @ @ @ @ @ @ @ @ @ # $                                 ",
"                        % & * = - - - - - - - - - - - - - - - - - - - - - - - - - - - - - = ; >                                 ",
"                        , ' ) ! ! ! ! ! ! ! ! ! ! ! ! ! ! ! ! ! ! ! ! ! ! ! ! ! ! ! ! ! ! ~ { ]                                 ",
"              ^ / ( _ : < [ ) ! ! ! ! ! ! ! ! ! ! ! ! ! ! ! ! ! ! ! ! ! ! ! ! ! ! ! ! ! ! ! } | : 1 2 3 4                       ",
"              5 6 7 8 ~ ~ ! ! ! ! ! ! ! ! ! ! ! ! ! ! ! ! ! ! ! ! ! ! ! ! ! ! ! ! ! ! ! ! ! ! ~ ~ 9 0 a b                       ",
"        $ c d e f g h i j k ) ! ! ! ! ! ! ! ! ! ! ! ! ! ! ! ! ! ! ! ! ! ! ! ! ! ! ! ! ! ! ! } l m n o p q r s t u               ",
"        v w x y z A B C D E ) ! ! ! ! ! ! ! ! ! ! ! ! ! ! ! ! ! ! ! ! ! ! ! ! ! ! ! ! ! ! ~ F G H I 6 J K L } M N               ",
"$ d O O P Q R x S T U   V W X k Y Y Y Y Y Y Y Y Y Y Y Y Y Y Y Y Y Y Y Y Y Y Y Y Y Y Y Y Y { Z `  ...+.i @.~ L #.$.%.&.*.I =.    ",
"-.;.>.R >.>.>.>.>.>.>.R ,.                                                                  '.Y ~ ~ ~ ! ! ! ! ! ~ ~ ).!.~.{.    ",
"-.;.x >.>.>.>.>.>.>.>.>.y ]..   . ^./.(.(._..   . :.<.[.(.(.(.(.(./.<.:.    $ [.(.[._.^.     .X ~ ! ! ! ! ! ! ! ! ! { }.|.1.    ",
"-.;.x >.>.>.>.>.>.>.>.>.y ]..   <.2.3.w ,.4._.  :.d ].5.,.,.,.,.w ;.6.[.  . 7.5.,.S 8.O :.   .X ~ ! ! ! ! ! ! ! ! ! { }.|.1.    ",
"-.;.x >.>.>.>.>.>.>.>.>.y ]..   _.U 9.>.>.9.c ^./.2.4.y >.>.>.>.>.5.8.0.$ _.T x R Q 3.-.:.   .X ~ ! ! ! ! ! ! ! ! ! { }.|.1.    ",
"-.;.x >.>.>.>.>.>.>.>.>.y ]..   _.U 9.>.>.>.x x x >.>.>.>.>.>.>.>.>.>.x x x >.>.>.Q 3.-.:.   .X ~ ! ! ! ! ! ! ! ! ! { }.|.1.    ",
"-.;.x >.>.>.>.>.>.>.>.>.y ]..   _.U 9.>.>.>.>.>.>.>.>.>.>.>.>.>.>.>.>.>.>.>.>.>.>.Q 3.-.:.   .X ~ ! ! ! ! ! ! ! ! ! { }.|.1.    ",
"-.;.x >.>.>.>.>.>.>.>.>.y ]..   _.U 9.>.>.>.>.>.>.>.>.>.>.>.>.>.>.>.>.>.>.>.>.>.>.Q 3.-.:.   .X ~ ! ! ! ! ! ! ! ! ! { }.|.1.    ",
"-.;.x >.>.>.>.>.>.>.>.>.y ]..   _.U 9.>.>.>.>.>.>.>.>.>.>.>.>.>.>.>.>.>.>.>.>.>.>.Q 3.-.:.   .X ~ ! ! ! ! ! ! ! ! ! { }.|.1.    ",
"-.;.x >.>.>.>.>.>.>.>.>.y ]..   . ^./.d d 8.y >.>.>.>.>.>.>.>.>.>.>.>.>.>.>.;.O (.(.<.:.     .X ~ ! ! ! ! ! ! ! ! ! { }.|.1.    ",
"-.;.x >.>.>.>.>.>.>.>.>.y ]..             7.Q >.>.>.>.>.>.>.>.>.>.>.>.>.>.x 3.<.             .X ~ ! ! ! ! ! ! ! ! ! { }.|.1.    ",
"-.;.x >.>.>.>.>.>.>.>.>.y ]..             7.Q >.>.>.>.>.>.>.>.>.>.>.>.>.>.x 3.<.             .X ~ ! ! ! ! ! ! ! ! ! { }.|.1.    ",
"-.;.x >.>.>.>.>.>.>.>.>.y ]..             7.Q >.>.>.>.>.>.>.>.>.>.>.>.>.>.x 3.^.             .X ~ ! ! ! ! ! ! ! ! ! { }.|.1.    ",
"-.;.x >.>.>.>.>.>.>.>.>.y ]..   $ c P a.a.5.x >.>.>.>.>.>.>.>.>.>.>.>.>.>.>.,.9.a.3.7.b.:.   .X ~ ! ! ! ! ! ! ! ! ! { }.|.1.    ",
"-.;.x >.>.>.>.>.>.>.>.>.y ]..   _.U 9.>.>.>.>.>.>.>.>.>.>.>.>.>.>.>.>.>.>.>.>.>.>.Q 3.-.:.   .X ~ ! ! ! ! ! ! ! ! ! { }.|.1.    ",
"-.;.x >.>.>.>.>.>.>.>.>.y ]..   _.U 9.>.>.>.>.>.>.>.>.>.>.>.>.>.>.>.>.>.>.>.>.>.>.Q 3.-.:.   .X ~ ! ! ! ! ! ! ! ! ! { }.|.1.    ",
"-.;.x >.>.>.>.>.>.>.>.>.y ]..   _.U 9.>.>.>.>.>.>.>.>.>.>.>.>.>.>.>.>.>.>.>.>.>.>.Q 3.-.:.   .X ~ ! ! ! ! ! ! ! ! ! { }.|.1.    ",
"-.;.x >.>.>.>.>.>.>.>.>.y ]..   _.U 9.>.>.Q a.c.;.9.w x >.>.>.>.>.y 5.a.c.;.w x >.Q 3.-.:.   .X ~ ! ! ! ! ! ! ! ! ! { }.|.1.    ",
"-.;.x >.>.>.>.>.>.>.>.>.y ]..   _.U 9.>.>.a./.  . b.T y R >.>.>.>.5.].(.    P x R Q 3.-.:.   .X ~ ! ! ! ! ! ! ! ! ! { }.|.1.    ",
"-.;.x >.>.>.>.>.>.>.>.>.y ]..   $ c ].3.c.7.$   :.[.d.4.c.c.c.c.3.P -._.  . -.4.c.T d.d .    .X ~ ! ! ! ! ! ! ! ! ! { }.|.1.    ",
"-.;.x >.>.>.>.>.>.>.>.>.y ]..     . :.^.^.:.      . :.^.^.^.^.^.^.:..       . ^.^.^.:..      .X ~ ! ! ! ! ! ! ! ! ! { }.|.1.    ",
"0.4.w ,.Q x >.>.x Q ,.,.5.P 0.c c c c c c c c c c c c c c c c c c c c c c c c c c c c c c   e.f.g.h.g.i.L ! ) j.h.h.k.l.m.n.    ",
"        v ,.R x a.d.<.  <.;.>.>.>.>.>.>.>.>.>.>.>.>.>.>.>.>.>.>.>.>.>.>.>.>.>.>.>.>.>.>.>.R 9.      o.J k ~ L p.q.              ",
"        0.c.S 9.4.6.c _.0.a.>.>.>.>.>.>.>.>.>.>.>.>.>.>.>.>.>.>.>.>.>.>.>.>.>.>.>.>.>.>.>.>.,.6.. r.s.t.u.v.w.x.%               ",
"        :./.[.(.O ].9.w w y >.>.>.>.>.>.>.>.>.>.>.>.>.>.>.>.>.>.>.>.>.>.>.>.>.>.>.>.>.>.>.>.x ,.w w y.4 z.A.B.C.+               ",
"        . :.^.<.c P ,.x x >.>.>.>.>.>.>.>.>.>.>.>.>.>.>.>.>.>.>.>.>.>.>.>.>.>.>.>.>.>.>.>.>.>.x x x D.y.E.F.G.H.$               ",
"        v w >.y ;.6.[.. (.;.>.>.>.>.>.>.>.>.>.>.>.>.>.>.>.>.>.>.>.>.>.>.>.>.>.>.>.>.>.>.>.>.w v   r.I.J.K.9 j.L.N               ",
". ^.$ $ 6.,.R x 9.M.d ^.(.3.,.,.,.,.,.,.,.,.,.,.,.,.,.,.,.,.,.,.,.,.,.,.,.,.,.,.,.,.,.,.,.,.N.O.P.Q.R.o { ~ S.T.U.V.W.X.Y..     ",
"b.M.c.;.S y >.>.Q 5.a.;.c.M.2.O 2.2.2.2.2.2.2.2.2.2.2.2.2.2.2.2.2.2.2.2.2.2.2.2.2.2.2.2.2.  Z.`. + +w.K .+! ++@+#+$+%+&+*+=+    ",
"-.;.x R >.>.>.>.>.>.>.R y ].                                                                %.Y ~ ! ! ! ! ! ! ! ! ~ -+!.|.{.    ",
"-.;.x >.>.>.>.>.>.>.>.>.y ]..   <.2.3.,.,.4._.  :.d ].5.,.,.,.,.w ;.6.[.  . 7.5.,.S P O :.   .X ~ ! ! ! ! ! ! ! ! ! { }.|.1.    ",
"-.;.x >.>.>.>.>.>.>.>.>.y ]..   _.U 9.>.>.a.(.  $ 0.4.y >.>.>.>.>.5.P b.. ^.8.x R Q 3.-.:.   .X ~ ! ! ! ! ! ! ! ! ! { }.|.1.    ",
"-.;.x >.>.>.>.>.>.>.>.>.y ]..   _.U 9.>.>.w T ].8.3.5.x >.>.>.>.>.Q 9.4.].P 9.x >.Q 3.-.:.   .X ~ ! ! ! ! ! ! ! ! ! { }.|.1.    ",
"-.;.x >.>.>.>.>.>.>.>.>.y ]..   _.U 9.>.>.>.>.>.>.>.>.>.>.>.>.>.>.>.>.>.>.>.>.>.>.Q 3.-.:.   .X ~ ! ! ! ! ! ! ! ! ! { }.|.1.    ",
"-.;.x >.>.>.>.>.>.>.>.>.y ]..   _.U 9.>.>.>.>.>.>.>.>.>.>.>.>.>.>.>.>.>.>.>.>.>.>.Q 3.-.:.   .X ~ ! ! ! ! ! ! ! ! ! { }.|.1.    ",
"-.;.x >.>.>.>.>.>.>.>.>.y ]..   _.U 9.>.>.>.>.>.>.>.>.>.>.>.>.>.>.>.>.>.>.>.>.>.>.Q 3.-.:.   .X ~ ! ! ! ! ! ! ! ! ! { }.|.1.    ",
"-.;.x >.>.>.>.>.>.>.>.>.y ]..   ^.b.6.8.8.a.x >.>.>.>.>.>.>.>.>.>.>.>.>.>.>.5.T 8.].v (..    .X ~ ! ! ! ! ! ! ! ! ! { }.|.1.    ",
"-.;.x >.>.>.>.>.>.>.>.>.y ]..           . 7.Q >.>.>.>.>.>.>.>.>.>.>.>.>.>.x 3.<.  .          .X ~ ! ! ! ! ! ! ! ! ! { }.|.1.    ",
"-.;.x >.>.>.>.>.>.>.>.>.y ]..             7.Q >.>.>.>.>.>.>.>.>.>.>.>.>.>.x 3.<.             .X ~ ! ! ! ! ! ! ! ! ! { }.|.1.    ",
"-.;.x >.>.>.>.>.>.>.>.>.y ]..             7.Q >.>.>.>.>.>.>.>.>.>.>.>.>.>.x 3.$              .X ~ ! ! ! ! ! ! ! ! ! { }.|.1.    ",
"-.;.x >.>.>.>.>.>.>.>.>.y ]..   :.$ (.c c 8.y >.>.>.>.>.>.>.>.>.>.>.>.>.>.>.a.2.b.b.[.$ .    .X ~ ! ! ! ! ! ! ! ! ! { }.|.1.    ",
"-.;.x >.>.>.>.>.>.>.>.>.y ]..   <.-.;.Q y x >.>.>.>.>.>.>.>.>.>.>.>.>.>.>.>.x y y w T 2.:.   .X ~ ! ! ! ! ! ! ! ! ! { }.|.1.    ",
"-.;.x >.>.>.>.>.>.>.>.>.y ]..   _.U 9.>.>.>.>.>.>.>.>.>.>.>.>.>.>.>.>.>.>.>.>.>.>.Q 3.-.:.   .X ~ ! ! ! ! ! ! ! ! ! { }.|.1.    ",
"-.;.x >.>.>.>.>.>.>.>.>.y ]..   _.U 9.>.>.>.>.>.>.>.>.>.>.>.>.>.>.>.>.>.>.>.>.>.>.Q 3.-.:.   .X ~ ! ! ! ! ! ! ! ! ! { }.|.1.    ",
"-.;.x >.>.>.>.>.>.>.>.>.y ]..   _.U 9.>.>.y 5.S 5.w Q x >.>.>.>.>.x Q w S 5.Q >.>.Q 3.-.:.   .X ~ ! ! ! ! ! ! ! ! ! { }.|.1.    ",
"-.;.x >.>.>.>.>.>.>.>.>.y ]..   _.U 9.>.>.9.2.[.c U c.y >.>.>.>.>.w 4.v (.b.4.x R Q 3.-.:.   .X ~ ! ! ! ! ! ! ! ! ! { }.|.1.    ",
"-.;.x >.>.>.>.>.>.>.>.>.y ]..   _.v 9.x >.;./.  :.c T Q >.x x >.x S ].(.  . P y >.,.4.-.:.   .X ~ ! ! ! ! ! ! ! ! ! { }.|.1.    ",
"-.;.x >.>.>.>.>.>.>.>.>.y ]..     . ^.$ $ ^.      . :.$ $ $ $ $ $ ^.:..     :.$ $ $ :..      .X ~ ! ! ! ! ! ! ! ! ! { }.|.1.    ",
"O 3.,.Q y x >.>.x y Q Q w M.$ ^.$ $ $ $ $ $ $ $ $ $ $ $ $ $ $ $ $ $ $ $ $ $ $ $ $ $ $ $ $   &.;+>+,+'+.+++! ) .+>+,+)+o !+n.    ",
"<.b.2.2.8.Q R x 5.4.d.2.v P c.c.c.c.c.c.c.c.c.c.c.c.c.c.c.c.c.c.c.c.c.c.c.c.c.c.c.c.c.c.c.P ~+{+]+; ^+/+,+~ L (+_+:+<+[+}+|+    ",
"        U ,.R x a.d.$   <.;.>.>.>.>.>.>.>.>.>.>.>.>.>.>.>.>.>.>.>.>.>.>.>.>.>.>.>.>.>.>.>.R 5..   =.1+2+k ~ 3+W 4+              ",
"        $ 0.2.2.v ].9.w w y >.>.>.>.>.>.>.>.>.>.>.>.>.>.>.>.>.>.>.>.>.>.>.>.>.>.>.>.>.>.>.>.x ,.5.5+6+7+8+.. .9+0+              ",
"              :.d ].,.x x >.>.>.>.>.>.>.>.>.>.>.>.>.>.>.>.>.>.>.>.>.>.>.>.>.>.>.>.>.>.>.>.>.>.x x y a.7./.                      ",
"              . <.c d.7.].5.>.>.>.>.>.>.>.>.>.>.>.>.>.>.>.>.>.>.>.>.>.>.>.>.>.>.>.>.>.>.>.>.Q 4.7.7.v d ^.                      ",
"                        _.;.>.R >.>.>.>.>.>.>.>.>.>.>.>.>.>.>.>.>.>.>.>.>.>.>.>.>.>.>.>.>.R w 2.                                ",
"                        ^.v 8.8.8.8.8.8.8.8.8.8.8.8.8.8.8.8.8.8.8.8.8.8.8.8.8.8.8.8.8.8.8.8.7./.                                ",
"                                                                                                                                "};
