/* XPM */
static char * 08_xpm[] = {
"64 64 327 2",
"  	c #000000",
". 	c #083208",
"+ 	c #135213",
"@ 	c #155715",
"# 	c #155615",
"$ 	c #114D11",
"% 	c #052505",
"& 	c #229622",
"* 	c #3AE93A",
"= 	c #3EF63E",
"- 	c #3DF43D",
"; 	c #36DC36",
"> 	c #187418",
", 	c #010C01",
"' 	c #052705",
") 	c #105710",
"! 	c #197719",
"~ 	c #197819",
"{ 	c #2BB62B",
"] 	c #3DF63D",
"^ 	c #40FF40",
"/ 	c #41FF41",
"( 	c #3AEB3A",
"_ 	c #24A024",
": 	c #187618",
"< 	c #073507",
"[ 	c #010D01",
"} 	c #052305",
"| 	c #165B16",
"1 	c #2FBD2F",
"2 	c #3FFC3F",
"3 	c #1C771C",
"4 	c #042604",
"5 	c #042004",
"6 	c #0E410E",
"7 	c #114811",
"8 	c #135013",
"9 	c #1B6A1B",
"0 	c #279F27",
"a 	c #31C631",
"b 	c #32CB32",
"c 	c #37DE37",
"d 	c #3FFB3F",
"e 	c #3DF53D",
"f 	c #35D635",
"g 	c #32CA32",
"h 	c #30C330",
"i 	c #28A028",
"j 	c #1D771D",
"k 	c #134F13",
"l 	c #114711",
"m 	c #0C3C0C",
"n 	c #021402",
"o 	c #35D735",
"p 	c #3CEE3C",
"q 	c #38E038",
"r 	c #2BAE2B",
"s 	c #1C781C",
"t 	c #0E4C0E",
"u 	c #0A3D0A",
"v 	c #26A526",
"w 	c #39E739",
"x 	c #1E871E",
"y 	c #083708",
"z 	c #0F4C0F",
"A 	c #186418",
"B 	c #2BAD2B",
"C 	c #39E539",
"D 	c #3BED3B",
"E 	c #30C630",
"F 	c #0F540F",
"G 	c #000400",
"H 	c #021602",
"I 	c #083908",
"J 	c #0F570F",
"K 	c #0F550F",
"L 	c #229722",
"M 	c #3BEC3B",
"N 	c #30C230",
"O 	c #218C21",
"P 	c #136213",
"Q 	c #26A426",
"R 	c #3CF33C",
"S 	c #36DE36",
"T 	c #1E8B1E",
"U 	c #0E540E",
"V 	c #146214",
"W 	c #1D7A1D",
"X 	c #30C130",
"Y 	c #3EF93E",
"Z 	c #1A7D1A",
"` 	c #083C08",
" .	c #032103",
"..	c #000200",
"+.	c #031C03",
"@.	c #124D12",
"#.	c #29A829",
"$.	c #3DF33D",
"%.	c #34D534",
"&.	c #1B7E1B",
"*.	c #39E839",
"=.	c #176917",
"-.	c #011401",
";.	c #29A729",
">.	c #0F580F",
",.	c #000100",
"'.	c #000500",
").	c #000700",
"!.	c #000300",
"~.	c #000600",
"{.	c #3BEB3B",
"].	c #000D00",
"^.	c #001B00",
"/.	c #002200",
"(.	c #001800",
"_.	c #001000",
":.	c #001D00",
"<.	c #002300",
"[.	c #001200",
"}.	c #001C00",
"|.	c #001F00",
"1.	c #002800",
"2.	c #000900",
"3.	c #001400",
"4.	c #001700",
"5.	c #000A00",
"6.	c #000B00",
"7.	c #002100",
"8.	c #002900",
"9.	c #002700",
"0.	c #001300",
"a.	c #001A00",
"b.	c #002500",
"c.	c #001500",
"d.	c #001900",
"e.	c #000E00",
"f.	c #002400",
"g.	c #002600",
"h.	c #001100",
"i.	c #000F00",
"j.	c #002000",
"k.	c #000800",
"l.	c #001E00",
"m.	c #2AA92A",
"n.	c #34D634",
"o.	c #0D510D",
"p.	c #1A7B1A",
"q.	c #186918",
"r.	c #010E01",
"s.	c #082E08",
"t.	c #176B17",
"u.	c #249C24",
"v.	c #25A325",
"w.	c #2DBE2D",
"x.	c #3CF23C",
"y.	c #3EF73E",
"z.	c #2DB92D",
"A.	c #27A727",
"B.	c #25A425",
"C.	c #2AB42A",
"D.	c #31CC31",
"E.	c #32D032",
"F.	c #32CF32",
"G.	c #30C730",
"H.	c #28AE28",
"I.	c #2BB02B",
"J.	c #2AB12A",
"K.	c #229822",
"L.	c #186E18",
"M.	c #0B410B",
"N.	c #010901",
"O.	c #1B811B",
"P.	c #3CF03C",
"Q.	c #2DB72D",
"R.	c #1B731B",
"S.	c #042204",
"T.	c #249D24",
"U.	c #39E639",
"V.	c #197A19",
"W.	c #052205",
"X.	c #2DB62D",
"Y.	c #105A10",
"Z.	c #269B26",
"`.	c #259625",
" +	c #228922",
".+	c #208320",
"++	c #208220",
"@+	c #2EBA2E",
"#+	c #29A529",
"$+	c #1F7F1F",
"%+	c #207F20",
"&+	c #259725",
"*+	c #269A26",
"=+	c #1E801E",
"-+	c #073407",
";+	c #031303",
">+	c #155915",
",+	c #2EBB2E",
"'+	c #2FBC2F",
")+	c #1B751B",
"!+	c #021702",
"~+	c #115E11",
"{+	c #28AC28",
"]+	c #2BB42B",
"^+	c #249324",
"/+	c #269C26",
"(+	c #2CB92C",
"_+	c #2CBB2C",
":+	c #31CB31",
"<+	c #249424",
"[+	c #259B25",
"}+	c #2CB82C",
"|+	c #2DBD2D",
"1+	c #249E24",
"2+	c #094209",
"3+	c #1C831C",
"4+	c #2EB92E",
"5+	c #1A721A",
"6+	c #021202",
"7+	c #239B23",
"8+	c #187718",
"9+	c #031203",
"0+	c #2DB82D",
"a+	c #3FFA3F",
"b+	c #35D835",
"c+	c #115D11",
"d+	c #010701",
"e+	c #062006",
"f+	c #114911",
"g+	c #1A6B1A",
"h+	c #1B6C1B",
"i+	c #27A027",
"j+	c #35D335",
"k+	c #1D781D",
"l+	c #1B6E1B",
"m+	c #218621",
"n+	c #28A228",
"o+	c #29A629",
"p+	c #279D27",
"q+	c #1F7D1F",
"r+	c #1E7A1E",
"s+	c #269926",
"t+	c #34CF34",
"u+	c #228A22",
"v+	c #196819",
"w+	c #124C12",
"x+	c #082C08",
"y+	c #40FD40",
"z+	c #40FE40",
"A+	c #3FFD3F",
"B+	c #33D333",
"C+	c #1B7F1B",
"D+	c #2AAB2A",
"E+	c #176817",
"F+	c #001600",
"G+	c #000C00",
"H+	c #021802",
"I+	c #104510",
"J+	c #37DB37",
"K+	c #3AE83A",
"L+	c #3AE73A",
"M+	c #2FC22F",
"N+	c #135A13",
"O+	c #062106",
"P+	c #093009",
"Q+	c #061F06",
"R+	c #1B791B",
"S+	c #34D234",
"T+	c #3EF83E",
"U+	c #35D535",
"V+	c #155E15",
"W+	c #011101",
"X+	c #010601",
"Y+	c #041C04",
"Z+	c #0D430D",
"`+	c #166316",
" @	c #259C25",
".@	c #3EF53E",
"+@	c #33CC33",
"@@	c #196F19",
"#@	c #166516",
"$@	c #239223",
"%@	c #32C932",
"&@	c #1E831E",
"*@	c #1A711A",
"=@	c #238E23",
"-@	c #37DD37",
";@	c #1E841E",
">@	c #156015",
",@	c #0E450E",
"'@	c #062806",
")@	c #1C821C",
"!@	c #3AEA3A",
"~@	c #3DF23D",
"{@	c #2EB82E",
"]@	c #1A731A",
"^@	c #031E03",
"/@	c #239D23",
"(@	c #197919",
"_@	c #041D04",
":@	c #34D734",
"<@	c #105B10",
"[@	c #042B04",
"}@	c #115C11",
"|@	c #135E13",
"1@	c #1A6A1A",
"2@	c #2CB42C",
"3@	c #2CB32C",
"4@	c #1E7F1E",
"5@	c #136113",
"6@	c #0C4C0C",
"7@	c #021C02",
"8@	c #145514",
"9@	c #2BAF2B",
"0@	c #3CF13C",
"a@	c #39E439",
"b@	c #042504",
"c@	c #072807",
"d@	c #135513",
"e@	c #1B741B",
"f@	c #269E26",
"g@	c #1A701A",
"h@	c #135613",
"i@	c #0A350A",
"j@	c #0B480B",
"k@	c #166D16",
"l@	c #063706",
"                                                                                                                                ",
"                                . + @ # # # # # # # # # # # # # # # # # # # # # # # # # # # @ $ %                               ",
"                                & * = - - - - - - - - - - - - - - - - - - - - - - - - - - - = ; >                               ",
"                      , ' ) ! ~ { ] ^ ^ ^ ^ ^ ^ ^ ^ ^ ^ ^ ^ ^ ^ ^ ^ ^ ^ ^ ^ ^ ^ ^ ^ ^ ^ ^ ^ / ( _ : > ) < [                     ",
"                      } | 1 2 / / ^ ^ ^ ^ ^ ^ ^ ^ ^ ^ ^ ^ ^ ^ ^ ^ ^ ^ ^ ^ ^ ^ ^ ^ ^ ^ ^ ^ ^ ^ ^ / / = 1 3 4                     ",
"                5 6 7 8 9 0 a b c d ^ ^ ^ ^ ^ ^ ^ ^ ^ ^ ^ ^ ^ ^ ^ ^ ^ ^ ^ ^ ^ ^ ^ ^ ^ ^ ^ ^ ^ e f g h i j k l m n               ",
"                ~ o p q r s t u v - / ^ ^ ^ ^ ^ ^ ^ ^ ^ ^ ^ ^ ^ ^ ^ ^ ^ ^ ^ ^ ^ ^ ^ ^ ^ ^ ^ / w x y z A B C D E F               ",
"      G H I J K L M / - N O P J Q * - R R R R R R R R R R R R R R R R R R R R R R R R R R R e S T U V W X Y / ; Z K F `  ...    ",
"      +.@.#.$./ ^ ^ ^ ^ ^ ^ ^ ^ %.J                                                           &.*./ ^ ^ ^ ^ ^ ^ ^ ^ M B =.-.    ",
"      +.@.;.$./ ^ ^ ^ ^ ^ ^ ^ ^ %.>.  ,...'.).).G     ,.!.~.).).).).).~.G ,.  ,.'.).).'.!.,.  &.*./ ^ ^ ^ ^ ^ ^ ^ ^ {.B =.-.    ",
"      +.@.;.$./ ^ ^ ^ ^ ^ ^ ^ ^ %.>.  !.].^././.(...  '._.:.<././.<./.:.[.'.  ~.}.<./.^._.!.  &.*./ ^ ^ ^ ^ ^ ^ ^ ^ {.B =.-.    ",
"      +.@.;.$./ ^ ^ ^ ^ ^ ^ ^ ^ %.>.  G _.|.1.1.:.~...2.3./.1.1.1.1.1./.4.5.,.6.7.8.9.|.0.G   &.*./ ^ ^ ^ ^ ^ ^ ^ ^ {.B =.-.    ",
"      +.@.;.$./ ^ ^ ^ ^ ^ ^ ^ ^ %.>.  G _.|.1.1.1.9.9.9.1.1.1.1.1.1.1.1.1.9.9.9.1.1.9.|.0.G   &.*./ ^ ^ ^ ^ ^ ^ ^ ^ {.B =.-.    ",
"      +.@.;.$./ ^ ^ ^ ^ ^ ^ ^ ^ %.>.  G _.|.1.1.1.1.1.1.1.1.1.1.1.1.1.1.1.1.1.1.1.1.9.|.0.G   &.*./ ^ ^ ^ ^ ^ ^ ^ ^ {.B =.-.    ",
"      +.@.;.$./ ^ ^ ^ ^ ^ ^ ^ ^ %.>.  G _.|.1.1.1.1.1.1.1.1.1.1.1.1.1.1.1.1.1.1.1.1.9.|.0.G   &.*./ ^ ^ ^ ^ ^ ^ ^ ^ {.B =.-.    ",
"      +.@.;.$./ ^ ^ ^ ^ ^ ^ ^ ^ %.>.  G _.|.1.1.1.1.1.1.1.1.1.1.1.1.1.1.1.1.1.1.1.1.9.|.0.G   &.*./ ^ ^ ^ ^ ^ ^ ^ ^ {.B =.-.    ",
"      +.@.;.$./ ^ ^ ^ ^ ^ ^ ^ ^ %.>.    ,.G '.).a.9.1.1.1.1.1.1.1.1.1.1.1.1.1.b.c.'.'.G ..    &.*./ ^ ^ ^ ^ ^ ^ ^ ^ {.B =.-.    ",
"      +.@.;.$./ ^ ^ ^ ^ ^ ^ ^ ^ %.>.          ,.d.9.1.1.1.1.1.1.1.1.1.1.1.1.1.b.0.            &.*./ ^ ^ ^ ^ ^ ^ ^ ^ {.B =.-.    ",
"      +.@.;.$./ ^ ^ ^ ^ ^ ^ ^ ^ %.>.          ,.d.9.1.1.1.1.1.1.1.1.1.1.1.1.1.b.0.            &.*./ ^ ^ ^ ^ ^ ^ ^ ^ {.B =.-.    ",
"      +.@.;.$./ ^ ^ ^ ^ ^ ^ ^ ^ %.>.            d.9.1.1.1.1.1.1.1.1.1.1.1.1.1.b.[.            &.*./ ^ ^ ^ ^ ^ ^ ^ ^ {.B =.-.    ",
"      +.@.;.$./ ^ ^ ^ ^ ^ ^ ^ ^ %.>.  !.e.}.f.f.g.1.1.1.1.1.1.1.1.1.1.1.1.1.1.1.b.f.<.}.h.!.  &.*./ ^ ^ ^ ^ ^ ^ ^ ^ {.B =.-.    ",
"      +.@.;.$./ ^ ^ ^ ^ ^ ^ ^ ^ %.>.  G _.|.1.1.1.1.1.1.1.1.1.1.1.1.1.1.1.1.1.1.1.1.9.|.0.G   &.*./ ^ ^ ^ ^ ^ ^ ^ ^ {.B =.-.    ",
"      +.@.;.$./ ^ ^ ^ ^ ^ ^ ^ ^ %.>.  G _.|.1.1.1.1.1.1.1.1.1.1.1.1.1.1.1.1.1.1.1.1.9.|.0.G   &.*./ ^ ^ ^ ^ ^ ^ ^ ^ {.B =.-.    ",
"      +.@.;.$./ ^ ^ ^ ^ ^ ^ ^ ^ %.>.  G _.|.1.1.1.1.1.1.1.1.1.1.1.1.1.1.1.1.1.1.1.1.9.|.0.G   &.*./ ^ ^ ^ ^ ^ ^ ^ ^ {.B =.-.    ",
"      +.@.;.$./ ^ ^ ^ ^ ^ ^ ^ ^ %.>.  G _.|.1.1.|.[._.0.a.<.1.1.1.1.1.<.}.3._.c.<.1.9.|.0.G   &.*./ ^ ^ ^ ^ ^ ^ ^ ^ {.B =.-.    ",
"      +.@.;.$./ ^ ^ ^ ^ ^ ^ ^ ^ %.>.  G i.|.9.9.^.!.  '.[.7.9.9.9.9.9.j.c.~.  k.j.1.g.l.0.G   &.*./ ^ ^ ^ ^ ^ ^ ^ ^ {.B =.-.    ",
"      +.@.;.$./ ^ ^ ^ ^ ^ ^ ^ ^ %.>.  ..)._.c.c.].,.  !.2.h.c.c.c.c.c.h.5.!.  !._.c.3._.k...  &.*./ ^ ^ ^ ^ ^ ^ ^ ^ {.B =.-.    ",
"      +.@.m.e / ^ ^ ^ ^ ^ ^ / / n.o.                                                          p.* / / / ^ ^ ^ ^ / / D r q.-.    ",
"      r.s.t.u.v.w.x./ y.f z.A.B.C.D.E.F.F.F.F.F.F.F.F.F.F.F.F.F.F.F.F.F.F.F.F.F.F.F.F.F.F.F.E.G.H.v.A.I.f d ^ w J.v.K.L.M.N.    ",
"                O.*./ P.Q.R.S.  T.- / ^ ^ ^ ^ ^ ^ ^ ^ ^ ^ ^ ^ ^ ^ ^ ^ ^ ^ ^ ^ ^ ^ ^ ^ ^ ^ ^ / U.V.  W.@ X.y.^ n.Y.              ",
"                t O Z.`. +.+.+++@+= ^ ^ ^ ^ ^ ^ ^ ^ ^ ^ ^ ^ ^ ^ ^ ^ ^ ^ ^ ^ ^ ^ ^ ^ ^ ^ ^ ^ ^ M #+$+++%+ +&+*+=+-+              ",
"              ,.      ;+>+,+d / ^ ^ ^ ^ ^ ^ ^ ^ ^ ^ ^ ^ ^ ^ ^ ^ ^ ^ ^ ^ ^ ^ ^ ^ ^ ^ ^ ^ ^ ^ ^ ^ ^ / e '+)+!+      ,.            ",
"                ~+{+w.]+^+/+(+_+%.Y ^ ^ ^ ^ ^ ^ ^ ^ ^ ^ ^ ^ ^ ^ ^ ^ ^ ^ ^ ^ ^ ^ ^ ^ ^ ^ ^ ^ ^ R :+_+]+<+[+}+|+1+2+              ",
"                3+( / $.4+5+6+  7+- / ^ ^ ^ ^ ^ ^ ^ ^ ^ ^ ^ ^ ^ ^ ^ ^ ^ ^ ^ ^ ^ ^ ^ ^ ^ ^ ^ / U.8+  9+# 0+a+/ b+c+              ",
"      d+e+f+g+h+i+D / = j+#+k+l+m+n+;.o+o+o+o+o+o+o+o+o+o+o+o+o+o+o+o+o+o+o+o+o+o+o+o+o+o+o+;.p+q+l+r+s+t+a+/ c u+h+v+w+x+G     ",
"      +.w+o+P.^ y+^ ^ ^ z+y+A+z+B+Y.  -.-.-.-.-.-.-.-.-.-.-.-.-.-.-.-.-.-.-.-.-.-.-.-.-.-.-.  C+U.^ A+y+z+^ ^ z+A+z+* D+E+-.    ",
"      +.@.;.$./ ^ ^ ^ ^ ^ ^ ^ ^ %.>.  ,.~._.F+F+e.,.  ..k.[.F+F+F+F+F+h.5...  !.h.F+c._.k...  &.*./ ^ ^ ^ ^ ^ ^ ^ ^ {.B =.-.    ",
"      +.@.;.$./ ^ ^ ^ ^ ^ ^ ^ ^ %.>.  G _.j.1.1.}.!.  '.0./.8.1.1.8.1.7.F+~.  k.7.8.9.|.0.G   &.*./ ^ ^ ^ ^ ^ ^ ^ ^ {.B =.-.    ",
"      +.@.;.$./ ^ ^ ^ ^ ^ ^ ^ ^ %.>.  G _.|.1.1.|._.].[.a.f.1.1.1.1.1.<.^.[.G+0./.1.9.|.0.G   &.*./ ^ ^ ^ ^ ^ ^ ^ ^ {.B =.-.    ",
"      +.@.;.$./ ^ ^ ^ ^ ^ ^ ^ ^ %.>.  G _.|.1.1.9.9.9.9.9.1.1.1.1.1.1.1.9.9.9.9.1.1.9.|.0.G   &.*./ ^ ^ ^ ^ ^ ^ ^ ^ {.B =.-.    ",
"      +.@.;.$./ ^ ^ ^ ^ ^ ^ ^ ^ %.>.  G _.|.1.1.1.1.1.1.1.1.1.1.1.1.1.1.1.1.1.1.1.1.9.|.0.G   &.*./ ^ ^ ^ ^ ^ ^ ^ ^ {.B =.-.    ",
"      +.@.;.$./ ^ ^ ^ ^ ^ ^ ^ ^ %.>.  G _.|.1.1.1.1.1.1.1.1.1.1.1.1.1.1.1.1.1.1.1.1.9.|.0.G   &.*./ ^ ^ ^ ^ ^ ^ ^ ^ {.B =.-.    ",
"      +.@.;.$./ ^ ^ ^ ^ ^ ^ ^ ^ %.>.  !.G+(.l.l.<.1.1.1.1.1.1.1.1.1.1.1.1.1.1.9.7.l.:.4.e.!.  &.*./ ^ ^ ^ ^ ^ ^ ^ ^ {.B =.-.    ",
"      +.@.;.$./ ^ ^ ^ ^ ^ ^ ^ ^ %.>.    ,.!.G '.a.9.1.1.1.1.1.1.1.1.1.1.1.1.1.b.c.!.G !.,.    &.*./ ^ ^ ^ ^ ^ ^ ^ ^ {.B =.-.    ",
"      +.@.;.$./ ^ ^ ^ ^ ^ ^ ^ ^ %.>.          ,.d.9.1.1.1.1.1.1.1.1.1.1.1.1.1.b.0.            &.*./ ^ ^ ^ ^ ^ ^ ^ ^ {.B =.-.    ",
"      +.@.;.$./ ^ ^ ^ ^ ^ ^ ^ ^ %.>.          ,.d.9.1.1.1.1.1.1.1.1.1.1.1.1.1.b.0.            &.*./ ^ ^ ^ ^ ^ ^ ^ ^ {.B =.-.    ",
"      +.@.;.$./ ^ ^ ^ ^ ^ ^ ^ ^ %.>.  ,.!.~.k.2.^.9.1.1.1.1.1.1.1.1.1.1.1.1.1.g.F+k.k.~.G ,.  &.*./ ^ ^ ^ ^ ^ ^ ^ ^ {.B =.-.    ",
"      +.@.;.$./ ^ ^ ^ ^ ^ ^ ^ ^ %.>.  !.e.}.<.f.g.1.1.1.1.1.1.1.1.1.1.1.1.1.1.1.b.f.<.}.h.!.  &.*./ ^ ^ ^ ^ ^ ^ ^ ^ {.B =.-.    ",
"      +.@.;.$./ ^ ^ ^ ^ ^ ^ ^ ^ %.>.  G _.|.1.1.1.1.1.1.1.1.1.1.1.1.1.1.1.1.1.1.1.1.9.|.0.G   &.*./ ^ ^ ^ ^ ^ ^ ^ ^ {.B =.-.    ",
"      +.@.;.$./ ^ ^ ^ ^ ^ ^ ^ ^ %.>.  G _.|.1.1.1.1.1.1.1.1.1.1.1.1.1.1.1.1.1.1.1.1.9.|.0.G   &.*./ ^ ^ ^ ^ ^ ^ ^ ^ {.B =.-.    ",
"      +.@.;.$./ ^ ^ ^ ^ ^ ^ ^ ^ %.>.  G _.|.1.1.b.<./.<.f.9.1.1.1.1.1.9.b.<./.<.g.1.9.|.0.G   &.*./ ^ ^ ^ ^ ^ ^ ^ ^ {.B =.-.    ",
"      +.@.;.$./ ^ ^ ^ ^ ^ ^ ^ ^ %.>.  G _.|.1.1.l.G+2.i.4.<.1.1.1.1.1.<.a.i.k._./.1.9.|.0.G   &.*./ ^ ^ ^ ^ ^ ^ ^ ^ {.B =.-.    ",
"      +.@.;.$./ ^ ^ ^ ^ ^ ^ ^ ^ %.>.  G i.|.9.9.^.!.  '.[.7.9.9.9.9.9.7.c.~.  k.j.1.g.|.0.G   &.*./ ^ ^ ^ ^ ^ ^ ^ ^ {.B =.-.    ",
"      +.@.#.$./ ^ ^ ^ ^ ^ ^ ^ ^ %.>.      ,.!.!.,.        ..!.!.!.!.!...,.      ..!...,.      &.*./ ^ ^ ^ ^ ^ ^ ^ ^ M B =.-.    ",
"      H+I+&+J+K+M d ^ y+y.p L+L+M+N+O+P+P+P+P+P+P+P+P+P+P+P+P+P+P+P+P+P+P+P+P+P+P+P+P+P+P+P+Q+R+S+K+K+D = z+^ T+* L+U+/+V+W+    ",
"      X+Y+Z+`+`+ @D / .@+@/+@@#@$@h b %@%@%@%@%@%@%@%@%@%@%@%@%@%@%@%@%@%@%@%@%@%@%@%@%@%@%@b @+&@`+*@=@g a+/ -@;@`+>@,@'@!.    ",
"                )@!@/ ~@{@]@^@  /@e / ^ ^ ^ ^ ^ ^ ^ ^ ^ ^ ^ ^ ^ ^ ^ ^ ^ ^ ^ ^ ^ ^ ^ ^ ^ ^ ^ / w (@  _@# Q.Y / :@<@              ",
"                [@U }@|@1@2@D - y.z+^ ^ ^ ^ ^ ^ ^ ^ ^ ^ ^ ^ ^ ^ ^ ^ ^ ^ ^ ^ ^ ^ ^ ^ ^ ^ ^ ^ ^ 2 e - K+3@4@5@<@6@7@              ",
"                      } 8@9@!@0@e z+^ ^ ^ ^ ^ ^ ^ ^ ^ ^ ^ ^ ^ ^ ^ ^ ^ ^ ^ ^ ^ ^ ^ ^ ^ ^ ^ ^ ^ 2 $.0@a@9@@@b@                    ",
"                      [ c@d@R.e@2@] ^ ^ ^ ^ ^ ^ ^ ^ ^ ^ ^ ^ ^ ^ ^ ^ ^ ^ ^ ^ ^ ^ ^ ^ ^ ^ ^ ^ / ( f@*@g@h@i@[                     ",
"                                T.] / / / / / / / / / / / / / / / / / / / / / / / / / / / / / w (@                              ",
"                                j@> p.V.V.V.V.V.V.V.V.V.V.V.V.V.V.V.V.V.V.V.V.V.V.V.V.V.V.V.p.k@l@                              ",
"                                                                                                                                ",
"                                                                                                                                "};
