/* XPM */
static char * 09_xpm[] = {
"64 64 295 2",
"  	c #000000",
". 	c #000100",
"+ 	c #010801",
"@ 	c #010D01",
"# 	c #010901",
"$ 	c #000200",
"% 	c #052A05",
"& 	c #176717",
"* 	c #1F801F",
"= 	c #208120",
"- 	c #208020",
"; 	c #196D19",
"> 	c #083508",
", 	c #105910",
"' 	c #32CE32",
") 	c #3FFD3F",
"! 	c #40FF40",
"~ 	c #40FE40",
"{ 	c #35D935",
"] 	c #166E16",
"^ 	c #021602",
"/ 	c #093609",
"( 	c #186F18",
"_ 	c #249E24",
": 	c #26A726",
"< 	c #2AB42A",
"[ 	c #38E338",
"} 	c #3AE93A",
"| 	c #2CBA2C",
"1 	c #25A325",
"2 	c #1E841E",
"3 	c #125A12",
"4 	c #062F06",
"5 	c #052405",
"6 	c #155615",
"7 	c #2BAD2B",
"8 	c #3DF33D",
"9 	c #42FF42",
"0 	c #41FF41",
"a 	c #3FFB3F",
"b 	c #33CD33",
"c 	c #228E22",
"d 	c #0E4C0E",
"e 	c #010601",
"f 	c #0A380A",
"g 	c #145314",
"h 	c #155715",
"i 	c #175C17",
"j 	c #1B6D1B",
"k 	c #249024",
"l 	c #2DB42D",
"m 	c #2FBC2F",
"n 	c #31C531",
"o 	c #3BEE3B",
"p 	c #32C932",
"q 	c #2EBB2E",
"r 	c #2EB82E",
"s 	c #28A128",
"t 	c #208320",
"u 	c #196619",
"v 	c #145514",
"w 	c #0C3E0C",
"x 	c #010F01",
"y 	c #032503",
"z 	c #26A326",
"A 	c #3AE83A",
"B 	c #3DF53D",
"C 	c #39E439",
"D 	c #2DB52D",
"E 	c #1E801E",
"F 	c #0F500F",
"G 	c #042304",
"H 	c #166A16",
"I 	c #33D133",
"J 	c #36DC36",
"K 	c #1A7B1A",
"L 	c #052705",
"M 	c #0B400B",
"N 	c #145614",
"O 	c #249424",
"P 	c #36DA36",
"Q 	c #3DF43D",
"R 	c #3BEC3B",
"S 	c #2AB22A",
"T 	c #073B07",
"U 	c #021402",
"V 	c #073307",
"W 	c #105710",
"X 	c #136213",
"Y 	c #156C15",
"Z 	c #2CBB2C",
"` 	c #3EF63E",
" .	c #32C732",
"..	c #249824",
"+.	c #187318",
"@.	c #115E11",
"#.	c #1B7F1B",
"$.	c #31CA31",
"%.	c #3BEF3B",
"&.	c #3CF03C",
"*.	c #33D333",
"=.	c #1E8A1E",
"-.	c #125F12",
";.	c #156A15",
">.	c #1C781C",
",.	c #2AAA2A",
"'.	c #3FFA3F",
").	c #30C730",
"!.	c #187418",
"~.	c #126112",
"{.	c #115D11",
"].	c #0B450B",
"^.	c #052B05",
"/.	c #0E400E",
"(.	c #228A22",
"_.	c #37DD37",
":.	c #3CF33C",
"<.	c #26A526",
"[.	c #011701",
"}.	c #219421",
"|.	c #3AEC3A",
"1.	c #1B761B",
"2.	c #063206",
"3.	c #021A02",
"4.	c #000400",
"5.	c #000600",
"6.	c #000500",
"7.	c #000300",
"8.	c #000D00",
"9.	c #001900",
"0.	c #002000",
"a.	c #002100",
"b.	c #001B00",
"c.	c #000A00",
"d.	c #000700",
"e.	c #001100",
"f.	c #001C00",
"g.	c #001E00",
"h.	c #001700",
"i.	c #000E00",
"j.	c #001400",
"k.	c #000900",
"l.	c #001F00",
"m.	c #002700",
"n.	c #002900",
"o.	c #002200",
"p.	c #001600",
"q.	c #002300",
"r.	c #002800",
"s.	c #002500",
"t.	c #001D00",
"u.	c #001200",
"v.	c #000C00",
"w.	c #002600",
"x.	c #000F00",
"y.	c #001500",
"z.	c #000B00",
"A.	c #001300",
"B.	c #000800",
"C.	c #0F400F",
"D.	c #011301",
"E.	c #1C761C",
"F.	c #021502",
"G.	c #073507",
"H.	c #105A10",
"I.	c #136513",
"J.	c #166F16",
"K.	c #3EF73E",
"L.	c #32C832",
"M.	c #259A25",
"N.	c #197619",
"O.	c #1B811B",
"P.	c #33D233",
"Q.	c #1E8B1E",
"R.	c #126312",
"S.	c #166C16",
"T.	c #1C7A1C",
"U.	c #2AAB2A",
"V.	c #187718",
"W.	c #136413",
"X.	c #126012",
"Y.	c #0C480C",
"Z.	c #052C05",
"`.	c #010E01",
" +	c #032603",
".+	c #26A626",
"++	c #3EF93E",
"@+	c #1E7F1E",
"#+	c #0C440C",
"$+	c #32D032",
"%+	c #36DB36",
"&+	c #197519",
"*+	c #072E07",
"=+	c #134F13",
"-+	c #259425",
";+	c #3EF83E",
">+	c #2BB42B",
",+	c #083C08",
"'+	c #125812",
")+	c #208720",
"!+	c #208420",
"~+	c #279D27",
"{+	c #279F27",
"]+	c #2BAF2B",
"^+	c #38E238",
"/+	c #218421",
"(+	c #208620",
"_+	c #1F821F",
":+	c #146014",
"<+	c #021C02",
"[+	c #052005",
"}+	c #155515",
"|+	c #228C22",
"1+	c #0C420C",
"2+	c #001000",
"3+	c #022602",
"4+	c #0A3C0A",
"5+	c #187218",
"6+	c #25A025",
"7+	c #27A927",
"8+	c #2BB62B",
"9+	c #38E438",
"0+	c #3AEA3A",
"a+	c #2CBC2C",
"b+	c #27A627",
"c+	c #229022",
"d+	c #249324",
"e+	c #2DBB2D",
"f+	c #32CD32",
"g+	c #219521",
"h+	c #053005",
"i+	c #001800",
"j+	c #35DA35",
"k+	c #021002",
"l+	c #104610",
"m+	c #259725",
"n+	c #39E639",
"o+	c #2DBD2D",
"p+	c #093F09",
"q+	c #001A00",
"r+	c #1F861F",
"s+	c #28A528",
"t+	c #29A629",
"u+	c #29A529",
"v+	c #259825",
"w+	c #1E7C1E",
"x+	c #1B6F1B",
"y+	c #1D781D",
"z+	c #249124",
"A+	c #3BED3B",
"B+	c #1F7E1F",
"C+	c #1B6E1B",
"D+	c #196919",
"E+	c #135013",
"F+	c #0A330A",
"G+	c #021102",
"H+	c #012001",
"I+	c #021B02",
"J+	c #3FFC3F",
"K+	c #40FD40",
"L+	c #2CB22C",
"M+	c #1B751B",
"N+	c #063106",
"O+	c #002400",
"P+	c #1C771C",
"Q+	c #2EBC2E",
"R+	c #33CE33",
"S+	c #36D736",
"T+	c #3AE63A",
"U+	c #3AE73A",
"V+	c #34CF34",
"W+	c #33CC33",
"X+	c #239023",
"Y+	c #155E15",
"Z+	c #042604",
"`+	c #043404",
" @	c #0C470C",
".@	c #0E4B0E",
"+@	c #115411",
"@@	c #1A6D1A",
"#@	c #29A729",
"$@	c #2FC22F",
"%@	c #146114",
"&@	c #0D460D",
"*@	c #083408",
"=@	c #042004",
"-@	c #031E03",
";@	c #38DF38",
">@	c #2BB72B",
",@	c #083D08",
"'@	c #012201",
")@	c #022502",
"!@	c #053105",
"~@	c #063606",
"{@	c #063406",
"                          . + @ @ @ @ @ @ @ @ @ @ @ @ @ @ @ @ @ @ @ @ @ @ @ @ @ @ @ @ @ @ @ @ @ # $                             ",
"                          % & * = * * * * * * * * * * * * * * * * * * * * * * * * * * * * * - = ; >                             ",
"                          , ' ) ! ~ ~ ~ ~ ~ ~ ~ ~ ~ ~ ~ ~ ~ ~ ~ ~ ~ ~ ~ ~ ~ ~ ~ ~ ~ ~ ~ ~ ~ ! ! { ]                             ",
"                ^ / ( _ : < [ ~ ! ! ! ! ! ! ! ! ! ! ! ! ! ! ! ! ! ! ! ! ! ! ! ! ! ! ! ! ! ! ! ! } | : 1 2 3 4                   ",
"                5 6 7 8 9 0 ! ! ! ! ! ! ! ! ! ! ! ! ! ! ! ! ! ! ! ! ! ! ! ! ! ! ! ! ! ! ! ! ! ! ! 0 0 a b c d                   ",
"        e f g h i j k l m n } ~ ! ! ! ! ! ! ! ! ! ! ! ! ! ! ! ! ! ! ! ! ! ! ! ! ! ! ! ! ! ! ! ! o p q r s t u 6 v w x           ",
"        y z A B C D E F G H I ~ ! ! ! ! ! ! ! ! ! ! ! ! ! ! ! ! ! ! ! ! ! ! ! ! ! ! ! ! ! ! ! ! J K L M N O P Q R S T           ",
"U V W X Y Z ` 0 8  ...+.@.#.$.%.&.&.&.&.&.&.&.&.&.&.&.&.&.&.&.&.&.&.&.&.&.&.&.&.&.&.&.&.&.&.&.&.*.=.-.;.>.,.} 0 '.).!.~.{.].^.@ ",
"/.(._.! ! ! ! ! ! ! ! ! 0 :.<.[.                                                                }.|.0 ! ! ! ! ! ! ! ! ! R l 1.2.",
"/.(._.! ! ! ! ! ! ! ! ! 0 :.<.3.  . $ 4.5.5.6..     . 7.6.5.5.5.5.5.5.4.7.    . 4.5.5.6.4.$     }.|.0 ! ! ! ! ! ! ! ! ! R l 1.2.",
"/.(._.! ! ! ! ! ! ! ! ! 0 :.<.3.  4.8.9.0.a.b.c.  . d.e.f.a.a.a.a.a.g.h.i.7.  d.9.a.a.f.j.k.    }.|.0 ! ! ! ! ! ! ! ! ! R l 1.2.",
"/.(._.! ! ! ! ! ! ! ! ! 0 :.<.3.  6.e.l.m.n.o.i.  $ k.p.q.r.r.r.r.r.s.t.u.4.  c.0.r.r.q.9.v.    }.|.0 ! ! ! ! ! ! ! ! ! R l 1.2.",
"/.(._.! ! ! ! ! ! ! ! ! 0 :.<.3.  6.e.l.m.r.m.w.s.w.w.w.m.r.r.r.r.r.r.m.w.w.s.w.m.r.r.q.9.v.    }.|.0 ! ! ! ! ! ! ! ! ! R l 1.2.",
"/.(._.! ! ! ! ! ! ! ! ! 0 :.<.3.  6.e.l.m.r.r.r.r.r.r.r.r.r.r.r.r.r.r.r.r.r.r.r.r.r.r.q.9.v.    }.|.0 ! ! ! ! ! ! ! ! ! R l 1.2.",
"/.(._.! ! ! ! ! ! ! ! ! 0 :.<.3.  6.e.l.m.r.r.r.r.r.r.r.r.r.r.r.r.r.r.r.r.r.r.r.r.r.r.q.9.v.    }.|.0 ! ! ! ! ! ! ! ! ! R l 1.2.",
"/.(._.! ! ! ! ! ! ! ! ! 0 :.<.3.  6.e.l.r.n.r.r.r.r.r.r.r.r.r.r.r.r.r.r.r.r.r.r.r.n.r.q.9.8.    }.|.0 ! ! ! ! ! ! ! ! ! R l 1.2.",
"/.(._.! ! ! ! ! ! ! ! ! 0 :.<.3.  $ 5.x.y.y.b.s.r.r.r.r.r.r.r.r.r.r.r.r.r.r.r.w.t.y.y.u.z.4.    }.|.0 ! ! ! ! ! ! ! ! ! R l 1.2.",
"/.(._.! ! ! ! ! ! ! ! ! 0 :.<.3.            e.q.r.r.r.r.r.r.r.r.r.r.r.r.r.r.r.s.j.              }.|.0 ! ! ! ! ! ! ! ! ! R l 1.2.",
"/.(._.! ! ! ! ! ! ! ! ! 0 :.<.3.            e.q.r.r.r.r.r.r.r.r.r.r.r.r.r.r.r.s.j.              }.|.0 ! ! ! ! ! ! ! ! ! R l 1.2.",
"/.(._.! ! ! ! ! ! ! ! ! 0 :.<.3.            e.q.r.r.r.r.r.r.r.r.r.r.r.r.r.r.r.s.j.              }.|.0 ! ! ! ! ! ! ! ! ! R l 1.2.",
"/.(._.! ! ! ! ! ! ! ! ! 0 :.<.3.  $ 5.x.j.j.b.s.r.r.r.r.r.r.r.r.r.r.r.r.r.r.r.w.t.y.j.e.z.4.    }.|.0 ! ! ! ! ! ! ! ! ! R l 1.2.",
"/.(._.! ! ! ! ! ! ! ! ! 0 :.<.3.  6.e.l.r.n.r.r.r.r.r.r.r.r.r.r.r.r.r.r.r.r.r.r.r.n.r.q.9.8.    }.|.0 ! ! ! ! ! ! ! ! ! R l 1.2.",
"/.(._.! ! ! ! ! ! ! ! ! 0 :.<.3.  6.e.l.m.r.r.r.r.r.r.r.r.r.r.r.r.r.r.r.r.r.r.r.r.r.r.q.9.v.    }.|.0 ! ! ! ! ! ! ! ! ! R l 1.2.",
"/.(._.! ! ! ! ! ! ! ! ! 0 :.<.3.  6.e.l.m.r.r.r.r.r.r.r.r.r.r.r.r.r.r.r.r.r.r.r.r.r.r.q.9.v.    }.|.0 ! ! ! ! ! ! ! ! ! R l 1.2.",
"/.(._.! ! ! ! ! ! ! ! ! 0 :.<.3.  6.e.l.m.r.m.w.w.w.w.m.r.r.r.r.r.r.r.m.w.w.w.w.m.r.r.q.9.v.    }.|.0 ! ! ! ! ! ! ! ! ! R l 1.2.",
"/.(._.! ! ! ! ! ! ! ! ! 0 :.<.3.  6.e.l.m.n.o.i.  $ k.p.q.r.r.r.r.r.s.t.u.4.  c.0.r.r.q.9.v.    }.|.0 ! ! ! ! ! ! ! ! ! R l 1.2.",
"/.(._.! ! ! ! ! ! ! ! ! 0 :.<.3.  6.i.b.o.q.t.z.  . d.A.g.q.q.q.q.q.0.9.x.7.  d.b.q.q.g.y.c.    }.|.0 ! ! ! ! ! ! ! ! ! R l 1.2.",
"/.(._.! ! ! ! ! ! ! ! ! 0 :.<.3.  . 4.k.v.8.k.$     $ 5.c.v.v.v.v.v.z.B.4..   $ B.v.v.c.5.7.    }.|.0 ! ! ! ! ! ! ! ! ! R l 1.2.",
"C.(._.! ! ! ! ! ! ! ! ! 0 :.<.D.                                                                }.|.0 ! ! ! ! ! ! ! ! ! R l E.2.",
"F.G.H.I.J.Z K.0 8 L.M.N.~.O.$.o %.%.%.%.%.%.%.%.%.%.%.%.%.%.%.%.%.%.%.%.%.%.%.%.%.%.%.%.%.%.%.%.P.Q.R.S.T.U.} 0 '.).V.W.X.Y.Z.`.",
"         +.+R ++A r @+#+  X $+~ ! ! ! ! ! ! ! ! ! ! ! ! ! ! ! ! ! ! ! ! ! ! ! ! ! ! ! ! ! ! ! ! %+&+  *+=+-+_.;+&.>+,+          ",
"        x '+E )+!+* (.~+{+]+^+~ ! ! ! ! ! ! ! ! ! ! ! ! ! ! ! ! ! ! ! ! ! ! ! ! ! ! ! ! ! ! ! ! A D {+{+k /+!+(+_+:+<+          ",
"                [+}+7 8 9 0 ! ! ! ! ! ! ! ! ! ! ! ! ! ! ! ! ! ! ! ! ! ! ! ! ! ! ! ! ! ! ! ! ! ! ! 0 9 a b |+1+        .         ",
"        . 2+f.t.3+4+5+6+7+8+9+~ ! ! ! ! ! ! ! ! ! ! ! ! ! ! ! ! ! ! ! ! ! ! ! ! ! ! ! ! ! ! ! ! 0+a+7+b+c+d+e+f+).g+h+          ",
"        $ i+w.n.w.f.B.    , ' ~ ! ! ! ! ! ! ! ! ! ! ! ! ! ! ! ! ! ! ! ! ! ! ! ! ! ! ! ! ! ! ! ! j+]   k+l+m+n+0 a o+p+  $ .     ",
"7.d.i.2+u.t.m.r.w.a.q+A.  ,+r+s+t+u+u+u+u+u+u+u+u+u+u+u+u+u+u+u+u+u+u+u+u+u+u+u+u+u+u+u+u+u+u+t+v+w+x+y+z+m A+0 a p B+C+D+E+F+G+",
"B.j.o.m.r.r.r.r.r.r.r.m.r.w.H+I+I+I+I+I+I+I+I+I+I+I+I+I+I+I+I+I+I+I+I+I+I+I+I+I+I+I+I+I+I+I+F.x }.} ~ J+J+) ~ ! ! K+J+) A L+M+N+",
"B.y.o.r.r.r.r.r.r.r.r.r.r.s.p..   $ 6.8.u.A.x.4.    7.B.2+A.A.A.A.A.e.v.5..   7.8.A.A.x.k.4.    }.|.0 ! ! ! ! ! ! ! ! ! R l 1.2.",
"B.y.o.r.r.r.r.r.r.r.r.r.r.s.p..   6.e.l.r.n.o.8.  . B.p.q.n.n.r.r.n.w.t.e.7.  k.0.n.r.q.9.8.    }.|.0 ! ! ! ! ! ! ! ! ! R l 1.2.",
"B.y.o.r.r.r.r.r.r.r.r.r.r.s.p..   6.e.l.m.r.q.A.k.z.e.q+O+r.r.r.r.r.w.l.h.8.B.e.a.r.r.q.9.v.    }.|.0 ! ! ! ! ! ! ! ! ! R l 1.2.",
"B.y.o.r.r.r.r.r.r.r.r.r.r.s.p..   6.e.l.m.r.m.s.O+O+s.w.m.r.r.r.r.r.r.m.w.s.O+s.m.r.r.q.9.v.    }.|.0 ! ! ! ! ! ! ! ! ! R l 1.2.",
"B.y.o.r.r.r.r.r.r.r.r.r.r.s.p..   6.e.l.m.r.r.r.r.r.r.r.r.r.r.r.r.r.r.r.r.r.r.r.r.r.r.q.9.v.    }.|.0 ! ! ! ! ! ! ! ! ! R l 1.2.",
"B.y.o.r.r.r.r.r.r.r.r.r.r.s.p..   6.e.l.m.r.r.r.r.r.r.r.r.r.r.r.r.r.r.r.r.r.r.r.r.r.r.q.9.v.    }.|.0 ! ! ! ! ! ! ! ! ! R l 1.2.",
"B.y.o.r.r.r.r.r.r.r.r.r.r.s.p..   6.x.b.q.O+s.m.r.r.r.r.r.r.r.r.r.r.r.r.r.r.r.m.s.O+q.l.p.c.    }.|.0 ! ! ! ! ! ! ! ! ! R l 1.2.",
"B.y.o.r.r.r.r.r.r.r.r.r.r.s.p..   $ 6.c.8.8.h.O+r.r.r.r.r.r.r.r.r.r.r.r.r.r.r.w.9.i.8.z.d.7.    }.|.0 ! ! ! ! ! ! ! ! ! R l 1.2.",
"B.y.o.r.r.r.r.r.r.r.r.r.r.s.p..             e.q.r.r.r.r.r.r.r.r.r.r.r.r.r.r.r.s.j.              }.|.0 ! ! ! ! ! ! ! ! ! R l 1.2.",
"B.y.o.r.r.r.r.r.r.r.r.r.r.s.p..             e.q.r.r.r.r.r.r.r.r.r.r.r.r.r.r.r.s.j.              }.|.0 ! ! ! ! ! ! ! ! ! R l 1.2.",
"B.y.o.r.r.r.r.r.r.r.r.r.r.s.p..     . . . . u.q.r.r.r.r.r.r.r.r.r.r.r.r.r.r.r.s.y.$ . . .       }.|.0 ! ! ! ! ! ! ! ! ! R l 1.2.",
"B.y.o.r.r.r.r.r.r.r.r.r.r.s.p..   7.B.e.h.h.f.s.r.r.r.r.r.r.r.r.r.r.r.r.r.r.r.w.g.h.h.j.i.5.    }.|.0 ! ! ! ! ! ! ! ! ! R l 1.2.",
"B.y.o.r.r.r.r.r.r.r.r.r.r.s.p..   6.e.l.r.n.r.r.r.r.r.r.r.r.r.r.r.r.r.r.r.r.r.r.r.r.r.q.9.8.    }.|.0 ! ! ! ! ! ! ! ! ! R l 1.2.",
"B.y.o.r.r.r.r.r.r.r.r.r.r.s.p..   6.e.l.m.r.r.r.r.r.r.r.r.r.r.r.r.r.r.r.r.r.r.r.r.r.r.q.9.v.    }.|.0 ! ! ! ! ! ! ! ! ! R l 1.2.",
"B.y.o.r.r.r.r.r.r.r.r.r.r.s.p..   6.e.l.m.r.r.r.r.r.r.r.r.r.r.r.r.r.r.r.r.r.r.r.r.r.r.q.9.v.    }.|.0 ! ! ! ! ! ! ! ! ! R l 1.2.",
"B.y.o.r.r.r.r.r.r.r.r.r.r.s.p..   6.e.l.m.r.s.t.q+b.t.a.w.r.r.r.r.r.m.O+0.b.q+t.O+r.r.q.9.v.    }.|.0 ! ! ! ! ! ! ! ! ! R l 1.2.",
"B.y.o.r.r.r.r.r.r.r.r.r.r.s.p..   6.e.l.m.n.o.i.  7.c.p.q.r.r.r.r.r.s.t.u.6.  z.0.r.r.q.9.v.    }.|.0 ! ! ! ! ! ! ! ! ! R l 1.2.",
"B.y.o.r.r.r.r.r.r.r.r.r.r.s.p..   4.8.q+a.o.f.c.  . 5.u.t.o.o.o.o.o.l.i+i.7.  d.q+o.o.t.j.k.    }.|.0 ! ! ! ! ! ! ! ! ! R l 1.2.",
"B.y.o.r.r.r.r.r.r.r.r.r.n.w.p.                                                                  g+A+0 ! ! ! ! ! ! ! ! 0 A+D P+2.",
"5.2+b.0.0.q.m.r.m.w.q.a.0.g.j.k.k.k.k.k.k.k.k.k.k.k.k.k.k.k.k.k.k.k.k.k.k.k.k.k.k.k.k.k.k.k.$   N.Q+b R+S+T+;+! ) U+V+W+m X+Y+Z+",
". 7.5.5.B.q+w.n.w.l.p.z.6.v.f.q.O+O+O+O+O+O+O+O+O+O+O+O+O+O+O+O+O+O+O+O+O+O+O+O+O+O+O+O+O+O+q.q.`+ @.@+@@@#@A 0 '.$@%@#+&@*@=@+ ",
"        . h.s.m.s.t.A.B.$ z.l.r.r.r.r.r.r.r.r.r.r.r.r.r.r.r.r.r.r.r.r.r.r.r.r.r.r.r.r.r.r.r.r.r.a.i.  -@l+d+;@J+Q >@,@          ",
"          . $ $ 6.8.q+s.r.m.r.r.r.r.r.r.r.r.r.r.r.r.r.r.r.r.r.r.r.r.r.r.r.r.r.r.r.r.r.r.r.r.r.r.r.m.m.w.'@)@!@~@{@y 5.          ",
"                7.z.h.o.O+s.m.r.r.r.r.r.r.r.r.r.r.r.r.r.r.r.r.r.r.r.r.r.r.r.r.r.r.r.r.r.r.r.r.r.m.s.O+q.f.A.5.                  ",
"                . 4.k.i.i.A.a.r.r.r.r.r.r.r.r.r.r.r.r.r.r.r.r.r.r.r.r.r.r.r.r.r.r.r.r.r.r.r.r.r.o.y.i.i.z.5.$                   ",
"                          d.l.r.n.r.r.r.r.r.r.r.r.r.r.r.r.r.r.r.r.r.r.r.r.r.r.r.r.r.r.r.r.r.r.r.a.z.                            ",
"                          $ k.i.i.i.i.i.i.i.i.i.i.i.i.i.i.i.i.i.i.i.i.i.i.i.i.i.i.i.i.i.i.i.i.i.c.$                             "};
