/* XPM */
static char * 34_xpm[] = {
"64 64 87 1",
" 	c #000000",
".	c #7A7290",
"+	c #7B7391",
"@	c #7B7291",
"#	c #7D7493",
"$	c #7C7492",
"%	c #7C7492",
"&	c #7C7492",
"*	c #7C7492",
"=	c #7B7391",
"-	c #7B7391",
";	c #7B7391",
">	c #7B7391",
",	c #7B7391",
"'	c #7C7492",
")	c #7D7593",
"!	c #7D7594",
"~	c #766E8C",
"{	c #736B88",
"]	c #7B7391",
"^	c #7C7392",
"/	c #7C7492",
"(	c #736C88",
"_	c #665F79",
":	c #817998",
"<	c #7E7594",
"[	c #766F8C",
"}	c #736B88",
"|	c #7C7492",
"1	c #736C89",
"2	c #665F7A",
"3	c #776F8D",
"4	c #7E7594",
"5	c #7C7492",
"6	c #7B7391",
"7	c #766F8C",
"8	c #736C89",
"9	c #736B88",
"0	c #665F7A",
"a	c #726A87",
"b	c #605A73",
"c	c #615A74",
"d	c #726B87",
"e	c #736B88",
"f	c #6C6480",
"g	c #5E5770",
"h	c #575168",
"i	c #575169",
"j	c #5E5871",
"k	c #5A546C",
"l	c #575269",
"m	c #6C6580",
"n	c #58526A",
"o	c #59536C",
"p	c #59536B",
"q	c #59526B",
"r	c #544E65",
"s	c #534D64",
"t	c #534E64",
"u	c #534E65",
"v	c #544F66",
"w	c #4B465B",
"x	c #464255",
"y	c #474357",
"z	c #484457",
"A	c #484357",
"B	c #4E495F",
"C	c #464155",
"D	c #3D394A",
"E	c #353140",
"F	c #302D3B",
"G	c #312E3B",
"H	c #444053",
"I	c #363341",
"J	c #1C1A22",
"K	c #0E0D11",
"L	c #0F0E12",
"M	c #0F0E13",
"N	c #3E3A4B",
"O	c #363342",
"P	c #25222D",
"Q	c #0B0A0D",
"R	c #000000",
"S	c #0A0A0D",
"T	c #020203",
"U	c #7B7391",
"V	c #FFFFFF",
"DDDDDDOOOOOOOOOOOOOOOOOOOOOOOOOOOOOOOOOOOOOOOOOOOOOOOOOOOODDDDDD",
"DDDDODNHHHHHHCBrrrrrrrrrrrrrrrrrrrrrrrrrrrrrrrrrrBCHHHHHHNDODDDD",
"DDDOONwssssssqf{{{{{{{{{{{{{{{{{{{{{{{{{{{{{{{{{{fqsssssswNOODDD",
"DDODNAsqqqccc2aaaaaaaaaaaaaaaaaaaaaaaaaaaaaaaaaaaa2cccqqqsANDODD",
"DOONBrsssqf{{m_bbccccccccccccccccccccccccccccccbb_m{{fqsssrBNOOD",
"DDNArqsBqcmd{fghiiiiiiiiiiiiiiiiiiiiiiiiiiiiiiiihgf{dmcqBsqrANDD",
"ONwsssBqfm_bbjkiilllllllllllllllllllllllllllllliikjbb_mfqBssswNO",
"OHsqsBqcmmjhilnnnnnnnnnnnnnnnnnnnnnnnnnnnnnnnnnnnnlihjmmcqBsqsHO",
"OHsqsqfm_joiinnppqqqqqqqqqqqqqqqqqqqqqqqqqqqqqqppnniioj_mfqsqsHO",
"OHsqqcmmjiinnirstuuuuuuuuuuuuuuuuuuuuuuuuuuuuuutsrinniijmmcqqsHO",
"OHscfm_joinnpvwxyzzAAAAAAAAAAAAAAAAAAAAAAAAAAzzyxwvpnnioj_mfcsHO",
"OCg2amjiinnivBCDEFGGGGGGGGGGGGGGGGGGGGGGGGGGGGFEDCBvinniijma2gCO",
"OBfa2joinnpvwCHIJKLMMMMMMMMMMMMMMMMMMMMMMMMMMLKJIHCwvpnnioj2afBO",
"BgmmjiinnivBCNOPQ                              QPONCBvinniijmmgB",
"af_joinnpvwCHOJST                              TSJOHCwvpnnioj_fa",
"+abhinnivBCNOPS                                  SPONCBvinnihba+",
"+abiinnrwCHOJST                                  TSJOHCwrnniiba+",
"+acilnpsxDIPS                                      SPIDxspnlica+",
"+acilnqtyEJQT                                      TQJEytqnlica+",
"+acilnquzFK                                          KFzuqnlica+",
"+acilnquzGL                                          LGzuqnlica+",
"+acilnquAGM                                          MGAuqnlica+",
"+acilnquAGM                                          MGAuqnlica+",
"+acilnquAGM                                          MGAuqnlica+",
"+acilnquAGM                                          MGAuqnlica+",
"+acilnquAGM                                          MGAuqnlica+",
"+acilnquAGM                                          MGAuqnlica+",
"+acilnquAGM                                          MGAuqnlica+",
"+acilnquAGM                                          MGAuqnlica+",
"+acilnquAGM                                          MGAuqnlica+",
"+acilnquAGM                                          MGAuqnlica+",
"+acilnquAGM                                          MGAuqnlica+",
"+acilnquAGM                                          MGAuqnlica+",
"+acilnquAGM                                          MGAuqnlica+",
"+acilnquAGM                                          MGAuqnlica+",
"+acilnquAGM                                          MGAuqnlica+",
"+acilnquAGM                                          MGAuqnlica+",
"+acilnquAGM                                          MGAuqnlica+",
"+acilnquAGM                                          MGAuqnlica+",
"+acilnquAGM                                          MGAuqnlica+",
"+acilnquAGM                                          MGAuqnlica+",
"+acilnquAGM                                          MGAuqnlica+",
"+acilnquAGM                                          MGAuqnlica+",
"+acilnquAGM                                          MGAuqnlica+",
"+acilnquAGM                                          MGAuqnlica+",
"+acilnquAGM                                          MGAuqnlica+",
"+acilnquAGM                                          MGAuqnlica+",
"+acilnquAGM                                          MGAuqnlica+",
"+acilnquAGM                                          MGAuqnlica+",
"+acilnquAGM                                          MGAuqnlica+",
"+acilnquAGM                                          MGAuqnlica+",
"+acilnquAGM                                          MGAuqnlica+",
"+acilnquAGM                                          MGAuqnlica+",
"+acilnquAGM                                          MGAuqnlica+",
"+acilnquAGM                                          MGAuqnlica+",
"+acilnquAGM                                          MGAuqnlica+",
"+acilnquAGM                                          MGAuqnlica+",
"+acilnquAGM                                          MGAuqnlica+",
"+acilnquAGM                                          MGAuqnlica+",
"+acilnquAGM                                          MGAuqnlica+",
"+acilnquAGM                                          MGAuqnlica+",
"+acilnquAGM                                          MGAuqnlica+",
"+acilnquAGM                                          MGAuqnlica+",
"+acilnquAGM                                          MGAuqnlica+"};
