/* XPM */
static char * 35_xpm[] = {
"64 64 513 2",
"  	c #40264D",
". 	c #3F254C",
"+ 	c #42274F",
"@ 	c #462C54",
"# 	c #492E57",
"$ 	c #492E56",
"% 	c #462B53",
"& 	c #543863",
"* 	c #5C3E6B",
"= 	c #5B3E6A",
"- 	c #41274E",
"; 	c #462B54",
"> 	c #4F335D",
", 	c #5C3D6B",
"' 	c #624372",
") 	c #614272",
"! 	c #553863",
"~ 	c #5C3E6C",
"{ 	c #5B3C6B",
"] 	c #5A3B6B",
"^ 	c #5F4070",
"/ 	c #593A6A",
"( 	c #553666",
"_ 	c #553667",
": 	c #563767",
"< 	c #573868",
"[ 	c #5A3B6A",
"} 	c #593A69",
"| 	c #5E3F6F",
"1 	c #614271",
"2 	c #5E3F6E",
"3 	c #664566",
"4 	c #896163",
"5 	c #966C61",
"6 	c #966B61",
"7 	c #966E62",
"8 	c #987365",
"9 	c #987566",
"0 	c #9A7668",
"a 	c #9C786C",
"b 	c #906E6F",
"c 	c #725373",
"d 	c #855E63",
"e 	c #C79358",
"f 	c #E1A752",
"g 	c #E0A652",
"h 	c #DEA552",
"i 	c #E0A956",
"j 	c #E4B15F",
"k 	c #E4B663",
"l 	c #E6B763",
"m 	c #E7B864",
"n 	c #CEA367",
"o 	c #8D6B70",
"p 	c #634667",
"q 	c #865F63",
"r 	c #B1815B",
"s 	c #DDA54F",
"t 	c #ECB049",
"u 	c #EDB149",
"v 	c #EEB249",
"w 	c #EEB149",
"x 	c #EFB54E",
"y 	c #F2BC57",
"z 	c #F4C05B",
"A 	c #F4BF5B",
"B 	c #F3BF5B",
"C 	c #F2BE5A",
"D 	c #E3B25D",
"E 	c #B78D68",
"F 	c #8A696D",
"G 	c #66486A",
"H 	c #866164",
"I 	c #C99459",
"J 	c #DEA54F",
"K 	c #D8A248",
"L 	c #D49F46",
"M 	c #D6A147",
"N 	c #D7A247",
"O 	c #D7A147",
"P 	c #D7A349",
"Q 	c #D8A54C",
"R 	c #D9A64D",
"S 	c #D8A54D",
"T 	c #D6A44C",
"U 	c #DBAA51",
"V 	c #E4B35D",
"W 	c #CDA266",
"X 	c #876667",
"Y 	c #583865",
"Z 	c #63425F",
"` 	c #986D56",
" .	c #D8A04C",
"..	c #E5AB48",
"+.	c #D39F47",
"@.	c #C09143",
"#.	c #B0843D",
"$.	c #A87E3A",
"%.	c #A97E3A",
"&.	c #A97F3B",
"*.	c #A97F3A",
"=.	c #A87D3A",
"-.	c #AF833C",
";.	c #C09042",
">.	c #D4A24B",
",.	c #E9B556",
"'.	c #E4B35E",
").	c #B68D64",
"!.	c #866767",
"~.	c #634A68",
"{.	c #654460",
"].	c #835C4A",
"^.	c #A4773B",
"/.	c #C69441",
"(.	c #D4A047",
"_.	c #CF9D47",
":.	c #B2863E",
"<.	c #805E2C",
"[.	c #674A24",
"}.	c #674B24",
"|.	c #694C24",
"1.	c #694C25",
"2.	c #6A4D25",
"3.	c #6A4C25",
"4.	c #674A23",
"5.	c #B2863D",
"6.	c #CF9D48",
"7.	c #DCA952",
"8.	c #CCA365",
"9.	c #866A68",
"0.	c #593A65",
"a.	c #7E5952",
"b.	c #9D7239",
"c.	c #B18232",
"d.	c #C1913F",
"e.	c #C39344",
"f.	c #B4873E",
"g.	c #956F34",
"h.	c #694D27",
"i.	c #533C20",
"j.	c #543C21",
"k.	c #553D21",
"l.	c #563D21",
"m.	c #563E21",
"n.	c #523B1F",
"o.	c #4B351B",
"p.	c #473119",
"q.	c #473219",
"r.	c #B3863D",
"s.	c #C19242",
"t.	c #DCAB59",
"u.	c #987159",
"v.	c #61405F",
"w.	c #573865",
"x.	c #835D4A",
"y.	c #B5863A",
"z.	c #C39240",
"A.	c #CA9845",
"B.	c #B3873E",
"C.	c #825F2D",
"D.	c #694C27",
"E.	c #6B502D",
"F.	c #6E5230",
"G.	c #6F5331",
"H.	c #654A2B",
"I.	c #51391E",
"J.	c #463118",
"K.	c #473118",
"L.	c #815F2C",
"M.	c #D09D48",
"N.	c #C69745",
"O.	c #A3773C",
"P.	c #825B49",
"Q.	c #644360",
"R.	c #654570",
"S.	c #694863",
"T.	c #7F5A53",
"U.	c #B18332",
"V.	c #C59545",
"W.	c #B4883F",
"X.	c #926D33",
"Y.	c #634723",
"Z.	c #6C502E",
"`.	c #785A35",
" +	c #775935",
".+	c #765934",
"++	c #755733",
"@+	c #775A35",
"#+	c #755834",
"$+	c #705331",
"%+	c #70532F",
"&+	c #74562C",
"*+	c #77572B",
"=+	c #926C33",
"-+	c #B78A40",
";+	c #CE9D49",
">+	c #CF9E46",
",+	c #BE8F39",
"'+	c #A87C3E",
")+	c #845E53",
"!+	c #664460",
"~+	c #5B3B65",
"{+	c #6F4D69",
"]+	c #865F4C",
"^+	c #9E733A",
"/+	c #CB9945",
"(+	c #B5883F",
"_+	c #82602D",
":+	c #5A4021",
"<+	c #5C4324",
"[+	c #684C2B",
"}+	c #6E522E",
"|+	c #6E512E",
"1+	c #6B4F2C",
"2+	c #674B2A",
"3+	c #6F522E",
"4+	c #664B2A",
"5+	c #583F23",
"6+	c #71532B",
"7+	c #B18643",
"8+	c #D2A04F",
"9+	c #D19F4F",
"0+	c #594021",
"a+	c #624622",
"b+	c #8C6932",
"c+	c #D4A54F",
"d+	c #F6C15B",
"e+	c #EDBA56",
"f+	c #D5A549",
"g+	c #A97D3E",
"h+	c #845D4A",
"i+	c #66455F",
"j+	c #735165",
"k+	c #92693C",
"l+	c #A97C2C",
"m+	c #BF8F3D",
"n+	c #C49444",
"o+	c #946E34",
"p+	c #664A25",
"q+	c #523A1F",
"r+	c #594022",
"s+	c #614626",
"t+	c #664B29",
"u+	c #694D2A",
"v+	c #664A28",
"w+	c #5F4525",
"x+	c #674C29",
"y+	c #634827",
"z+	c #644926",
"A+	c #6D5028",
"B+	c #956F36",
"C+	c #D9A54F",
"D+	c #FDC15C",
"E+	c #FEC15C",
"F+	c #583F22",
"G+	c #70532A",
"H+	c #B48C44",
"I+	c #E5B457",
"J+	c #FBC760",
"K+	c #E9B653",
"L+	c #B68833",
"M+	c #90673A",
"N+	c #6C495B",
"O+	c #92683D",
"P+	c #AA7D2C",
"Q+	c #C0903E",
"R+	c #624725",
"S+	c #604626",
"T+	c #5E4425",
"U+	c #674B29",
"V+	c #6A4E2A",
"W+	c #6A4D2A",
"X+	c #604525",
"Y+	c #563E20",
"Z+	c #705229",
"`+	c #AF8442",
" @	c #EBB14F",
".@	c #F4B74F",
"+@	c #F6B950",
"@@	c #654A27",
"#@	c #9B773A",
"$@	c #E2B257",
"%@	c #EBB753",
"&@	c #B88933",
"*@	c #90663B",
"=@	c #91683E",
"-@	c #AB7D2C",
";@	c #C1903E",
">@	c #AA7F3B",
",@	c #4B351C",
"'@	c #594023",
")@	c #5A4122",
"!@	c #5A4022",
"~@	c #5F4425",
"{@	c #4C351B",
"]@	c #75562B",
"^@	c #DDA442",
"/@	c #BF8E3A",
"(@	c #49331A",
"_@	c #74572B",
":@	c #D5A751",
"<@	c #ECB854",
"[@	c #B88A34",
"}@	c #8F663C",
"|@	c #6B495C",
"1@	c #684B24",
"2@	c #483219",
"3@	c #4D361C",
"4@	c #4F381D",
"5@	c #4F371C",
"6@	c #50391D",
"7@	c #4F371D",
"8@	c #74552B",
"9@	c #D09E4F",
"0@	c #BE8D39",
"a@	c #60471D",
"b@	c #4C351C",
"c@	c #463018",
"d@	c #75582B",
"e@	c #D6A851",
"f@	c #B98A34",
"g@	c #B3873F",
"h@	c #82602E",
"i@	c #6B4D25",
"j@	c #6B4E25",
"k@	c #8D6934",
"l@	c #D6A351",
"m@	c #FCC05B",
"n@	c #F7B950",
"o@	c #AE8235",
"p@	c #2F230E",
"q@	c #8D6A33",
"r@	c #E0AE4E",
"s@	c #B48632",
"t@	c #90673B",
"u@	c #6C495C",
"v@	c #AA803B",
"w@	c #AB803B",
"x@	c #BE9044",
"y@	c #E6AF56",
"z@	c #FABF5B",
"A@	c #F6B850",
"B@	c #31240F",
"C@	c #B68A40",
"D@	c #CD9D49",
"E@	c #C99843",
"F@	c #AC7F2E",
"G@	c #91683B",
"H@	c #6D4A5C",
"I@	c #B5863B",
"J@	c #BF8F3E",
"K@	c #C0903D",
"L@	c #C08F3D",
"M@	c #CE9B46",
"N@	c #EBB357",
"O@	c #FABE5B",
"P@	c #F5B84F",
"Q@	c #AF8335",
"R@	c #33260F",
"S@	c #BE8E3D",
"T@	c #B4853A",
"U@	c #855E4A",
"V@	c #68465F",
"W@	c #805A53",
"X@	c #9D723B",
"Y@	c #A97C2B",
"Z@	c #AA7C2C",
"`@	c #A97B2B",
" #	c #A87B2B",
".#	c #BD8C38",
"+#	c #E5AE52",
"@#	c #A87B2C",
"##	c #9C713B",
"$#	c #664560",
"%#	c #6B495D",
"&#	c #90673D",
"*#	c #A27527",
"=#	c #A97D2E",
"-#	c #AE8132",
";#	c #AF8232",
">#	c #AE8131",
",#	c #AB7E2D",
"'#	c #90663C",
")#	c #C19444",
"!#	c #CFA151",
"~#	c #D1A251",
"{#	c #D1A352",
"]#	c #CD9E4C",
"^#	c #C49442",
"/#	c #F5B850",
"(#	c #D1A252",
"_#	c #6C4A5C",
":#	c #90673C",
"<#	c #D8AA5D",
"[#	c #C59A54",
"}#	c #BB924F",
"|#	c #B78E4A",
"1#	c #AF8440",
"2#	c #E8B157",
"3#	c #FBC05B",
"4#	c #AF8540",
"5#	c #BC924F",
"6#	c #AE8232",
"7#	c #6D4A5D",
"8#	c #B08333",
"9#	c #C59B54",
"0#	c #8C6B39",
"a#	c #6E522B",
"b#	c #6F522B",
"c#	c #6F522A",
"d#	c #6C4F27",
"e#	c #8E6A34",
"f#	c #D9A652",
"g#	c #F3B74F",
"h#	c #70532C",
"i#	c #AF8233",
"j#	c #916840",
"k#	c #6E4B5E",
"l#	c #B78D4A",
"m#	c #6D5029",
"n#	c #4D361B",
"o#	c #51391D",
"p#	c #6F5129",
"q#	c #DAA54F",
"r#	c #4E371C",
"s#	c #50381D",
"t#	c #90673E",
"u#	c #6E4C5F",
"v#	c #583969",
"w#	c #573767",
"x#	c #91673C",
"y#	c #AC7E2E",
"z#	c #AE8440",
"A#	c #6A4E26",
"B#	c #5E4424",
"C#	c #6E5029",
"D#	c #967036",
"E#	c #8F6637",
"F#	c #6F4D5F",
"G#	c #5F406F",
"H#	c #6B4E2B",
"I#	c #6A4E2B",
"J#	c #624727",
"K#	c #533B1F",
"L#	c #B08542",
"M#	c #654927",
"N#	c #70522A",
"O#	c #76572B",
"P#	c #BC934F",
"Q#	c #604625",
"R#	c #6E4C5E",
"S#	c #624827",
"T#	c #5D4324",
"U#	c #614726",
"V#	c #C59B55",
"W#	c #6A485D",
"X#	c #7B5652",
"Y#	c #926937",
"Z#	c #A97C2E",
"`#	c #C19344",
" $	c #D0A251",
".$	c #CC9D4C",
"+$	c #674560",
"@$	c #5B3C65",
"#$	c #704E69",
"$$	c #87604D",
"%$	c #956B36",
"&$	c #9B6F29",
"*$	c #A07526",
"=$	c #A87C2D",
"-$	c #AD8031",
";$	c #AD8030",
">$	c #AA7D2D",
",$	c #865F4A",
"'$	c #68475F",
")$	c #745165",
"!$	c #92693D",
"~$	c #A47727",
"{$	c #B0812F",
"]$	c #B68633",
"^$	c #B58532",
"/$	c #B48531",
"($	c #B48532",
"_$	c #92683B",
":$	c #6E4B5C",
"<$	c #735065",
"[$	c #91683D",
"}$	c #AF812F",
"|$	c #D39F46",
"1$	c #E6AF52",
"2$	c #E5AE51",
"3$	c #E4AD50",
"4$	c #E4AD51",
"5$	c #D29E45",
"6$	c #B58633",
"7$	c #87604C",
"8$	c #8F673C",
"9$	c #8F673D",
"0$	c #66466F",
"a$	c #6B4962",
"b$	c #6D4B5E",
"c$	c #714E63",
"d$	c #5C3D64",
"e$	c #634473",
"f$	c #5D3E6D",
"g$	c #654675",
"h$	c #624373",
"i$	c #644574",
"j$	c #543763",
"k$	c #5E406E",
"l$	c #5C3D6D",
"m$	c #50345E",
"n$	c #5A3A6A",
"            . . . . . . . . . . . . . . . . . . . . . . . . . . . . . . . . . . . . . . . . . . . . . . . . . . . .             ",
"        . + @ # # $ $ $ $ $ $ $ $ $ $ $ $ $ $ $ $ $ $ $ $ $ $ $ $ $ $ $ $ $ $ $ $ $ $ $ $ $ $ $ $ $ $ $ $ $ $ # # @ + .         ",
"      . . % & * * = = = = = = = = = = = = = = = = = = = = = = = = = = = = = = = = = = = = = = = = = = = = = = * * & % . .       ",
"    . - ; > , ' ' ) ) ) ) ) ) ) ) ) ) ) ) ) ) ) ) ) ) ) ) ) ) ) ) ) ) ) ) ) ) ) ) ) ) ) ) ) ) ) ) ) ) ) ) ) ) ' ' , > ; - .     ",
"  . . ; ! ~ { ] ] ] ] ] ] ] ] ] ] ] ] ] ] ] ] ] ] ] ] ] ] ] ] ] ] ] ] ] ] ] ] ] ] ] ] ] ] ] ] ] ] ] ] ] ] ] ] ] ] { ~ ! ; . .   ",
"  + % > ~ ^ / ( _ : : : : : : : : : : : : : : : : : : : : : : : : : : : : : : : : : : : : : : : : : : : : : : _ ( / ^ ~ > % +   ",
". @ & , { / < : : : : : : : : : : : : : : : : : : : : : : : : : : : : : : : : : : : : : : : : : : : : : : : : : : < / { , & @ . ",
". # * ' ] ( : : : : : : : : : : : : : : : : : : : : : : : : : : : : : : : : : : : : : : : : : : : : : : : : : : : : ( ] ' * # . ",
". # * ' ] _ : : : : : : : : : : : : : : : : : : : : : : : : : : : : : : : : : : : : : : : : : : : : : : : : : : : : _ ] ' * # . ",
". $ = ) ] : : : : : : : : : : : : : : : : : : : : : : : : : : : : : : : : : : : : : : : : : : < / [ [ } < : : : : : : ] ) = $ . ",
". $ = ) ] : : : : : : : : : : : : : : : : : : : : : : : : : : : : : : : : : : : : : : : : : : } | 1 1 2 } : : : : : : ] ) = $ . ",
". $ = ) ] : : : : : : 3 4 5 5 6 6 6 6 6 6 6 6 6 6 6 6 6 6 6 6 7 8 9 9 9 9 9 9 9 9 9 9 9 9 9 9 0 a b c 1 [ : : : : : : ] ) = $ . ",
". $ = ) ] : : : : : : d e f g h h h h h h h h h h h h h h h h i j k k k k k k k k k k k k k k l m n o 1 [ : : : : : : ] ) = $ . ",
". $ = ) ] : : : : p q r s t u v v v v v v v v v v v v v v w w x y z z A A A A A A A A A A A A B C D E F G : : : : : : ] ) = $ . ",
". $ = ) ] : : : : H I J K L M N N N N N N N N N N N N N N N O P Q R R R R R R R R R R R R R R S T U V W X : : : : : : ] ) = $ . ",
". $ = ) ] : : Y Z `  ...+.@.#.$.$.%.%.%.%.%.%.%.%.%.%.%.&.&.&.&.*.%.%.$.$.$.$.$.$.$.$.$.$.=.=.-.;.>.,.'.).!.~.: : : : ] ) = $ . ",
". $ = ) ] : : {.].^./.(._.:.<.[.}.|.|.|.|.|.|.|.|.|.|.1.2.2.2.2.2.3.|.|.|.|.|.|.|.|.|.|.|.}.4.<.5.6.>.7.'.8.9.: : : : ] ) = $ . ",
". $ = ) ] 0.{.a.b.c.d.e.f.g.h.i.j.k.k.k.k.k.k.k.k.l.m.n.o.p.q.q.p.o.n.m.l.k.k.k.k.k.k.k.k.j.i.h.g.r.s.>.,.t.u.v.w.: : ] ) = $ . ",
". $ = ) ] {.x.b.y.z.A.B.C.D.E.F.F.F.F.F.F.F.F.F.F.F.G.H.I.J.K.K.J.I.H.G.F.F.F.F.F.F.F.F.F.F.F.E.D.L.r.M.>.N.O.P.Q.: : ] ) = $ . ",
". $ = R.S.T.b.U.z.V.W.X.Y.l.Z.`.`. + +.+++++.+@+`.#+$+%+&+*+*+*+*+&+%+$+#+`.@+.+++++.+ + +`.`.Z.l.Y.=+-+;+>+,+'+)+!+~+] ) = $ . ",
". $ = {+]+^+y.z./+(+_+Y.:+<+[+}+|+|+|+1+2+2+1+3+3+4+5+6+7+8+9+9+8+7+6+5+4+3+3+1+2+2+1+|+|+|+}+[+<+0+a+b+c+d+e+f+g+h+i+] ) = $ . ",
". $ = j+k+l+m+n+W.o+p+q+r+s+t+u+u+u+u+v+w+w+v+x+y+z+A+B+C+D+E+E+D+C+B+A+z+y+x+v+w+w+v+u+u+u+u+t+s+F+I.G+H+I+J+K+L+M+N+] ) = $ . ",
". $ = j+O+P+Q+B._+p+R+S+T+S+U+V+W+W+V+t+X+X+U+y+Y+Z+`+C+ @.@+@+@.@ @C+`+Z+Y+y+U+X+X+t+V+W+W+V+U+S+T+X+@@G+#@$@%@&@*@N+] ) = $ . ",
". $ = j+=@-@;@>@}.,@'@w+)@r+T+s+s+s+s+T+r+!@~@r+{@]@9+D+.@^@/@/@^@.@D+9+]@{@r+~@!@r+T+s+s+s+s+T+r+)@w+F+(@_@:@<@[@}@|@] ) = $ . ",
". $ = j+=@-@;@>@1@2@3@I.4@5@6@I.I.I.I.6@7@7@6@3@q.8@9@E++@0@a@a@0@+@E+9@8@q.3@6@7@7@6@I.I.I.I.6@5@4@I.b@c@d@e@<@f@}@|@] ) = $ . ",
". $ = j+O+P+Q+g@h@1.1.i@j@j@i@i@i@i@i@i@j@j@i@1.1@k@l@m@n@o@p@p@o@n@m@l@k@1@1.i@j@j@i@i@i@i@i@i@j@j@i@1.1@q@c+r@s@t@u@] ) = $ . ",
". $ = j+k+l+m+e.g@v@w@w@w@w@w@w@w@w@w@w@w@w@w@>@&.x@y@z@A@o@B@B@o@A@z@y@x@&.>@w@w@w@w@w@w@w@w@w@w@w@w@v@v@C@D@E@F@G@H@] ) = $ . ",
". $ = {+]+^+I@J@K@K@K@K@K@K@K@Q+Q+Q+Q+Q+Q+Q+Q+L@m+M@N@O@P@Q@R@R@Q@P@O@N@M@m+L@Q+Q+Q+Q+Q+Q+K@K@K@K@K@K@K@K@L@S@T@^+U@V@] ) = $ . ",
". $ = R.S.W@X@l+Y@Y@Y@Y@Y@Y@Z@Z@Z@Z@Z@Z@Z@Z@Z@`@ #.#+#z@A@Q@R@R@Q@A@z@+#.# #`@Z@Z@Z@Z@Z@Z@Z@Y@Y@Y@Y@Y@Y@Y@Y@@###T.$#~+] ) = $ . ",
". $ = ) ] %#&#*#=#-#;#;#;#>#,#Z@Z@Z@Z@Z@Z@Z@Z@`@ #.#+#z@+@o@B@B@o@+@z@+#.# #`@Z@Z@Z@Z@Z@Z@,#>#;#;#;#;#;#-#=#*#&#%#: : ] ) = $ . ",
". $ = ) ] |@'#=#)#!#~#~#{#]#^#K@K@Q+Q+Q+Q+Q+Q+L@m+M@N@O@/#o@p@p@o@/#O@N@M@m+L@Q+Q+Q+Q+K@K@^#]#(#~#~#~#~#!#)#=#}@|@: : ] ) = $ . ",
". $ = ) ] _#:#;#!#<#[#}#}#|#1#w@w@w@w@w@w@w@w@>@&.x@2#3#P@0@a@a@0@P@3#2#x@&.>@w@w@w@w@w@w@4#|#5#5#}#}#[#<#!#6#&#7#: : ] ) = $ . ",
". $ = ) ] _#:#8#(#9#0#a#b#c#d#i@i@j@i@i@i@i@j@1.}.e#f#m@g#^@/@/@^@g#m@f#e#}.1.j@i@i@i@i@i@d#c#h#h#b#a#0#[#~#i#j#k#( ( ] ) = $ . ",
". $ = ) ] _#:#>#]#l#m#2@n#o#I.6@7@7@6@I.I.6@7@3@3@p#`+q# @.@+@+@.@ @q#`+p#3@3@7@6@I.I.6@7@r#s#o#o#n#2@a#}#~#8#t#u#v#w#] ) = $ . ",
". $ = ) ] _#x#y#^#z#A#3@r+s+s+T+r+r+T+s+s+T+r+r+B#z+C#D#q#D+E+E+D+q#D#C#z+B#r+r+T+s+s+T+r+r+B#s+s+r+n#b#}#~#8#E#F#G#/ [ ) = $ . ",
". $ = ) ] H@x#P+K@v@2.I.s+H#I#U+S+S+U+I#I#U+S+S+U+J#K#C#L#8+9+9+8+L#C#K#J#U+S+S+U+I#I#U+S+S+U+I#H#s+o#h#5#~#8#E#F#G#/ [ ) = $ . ",
". $ = ) ] H@x#P+K@w@i@I.s+I#I#t+X+X+t+V+V+t+X+S+U+U+J#M#N#O#O#O#O#N#M#J#U+U+S+X+t+V+V+t+X+X+t+I#I#S+6@h#P#~#8#t#u#v#w#] ) = $ . ",
". $ = ) ] _#x#P+Q+w@i@I.S+V+V+v+X+X+v+u+u+v+X+X+v+V+I#y+Y+r#3@3@r#Y+y+I#V+v+X+X+v+u+u+v+X+X+v+V+V+Q#o#c#|#]#>#j#R#( ( ] ) = $ . ",
". $ = ) ] _#x#P+Q+w@i@I.S+V+V+v+X+X+v+u+u+v+X+X+v+W+V+x+S#T#F+F+T#S#x+V+W+v+X+X+v+u+u+v+X+X+v+V+V+S+o#d#1#^#y#=@7#: : ] ) = $ . ",
". $ = ) ] H@x#P+K@w@i@I.s+I#I#t+X+X+t+V+V+t+X+X+t+V+W+V+I#U+S+S+U+I#V+W+V+t+X+X+t+V+V+t+X+X+t+I#I#s+I.2.>@L@P+:#H@: : ] ) = $ . ",
". $ = ) ] H@x#P+K@v@2.I.s+H#I#U+S+S+U+I#I#U+S+S+U+V+V+V+I#U+S+S+U+I#V+V+V+U+S+S+U+I#I#U+S+S+U+I#H#s+I.2.>@L@P+x#H@: : ] ) = $ . ",
". $ = ) ] _#x#y#^#z#A#3@r+U#s+T+r+r+T+s+s+T+r+r+T+s+s+s+s+T+r+r+T+s+s+s+s+T+r+r+T+s+s+T+r+r+T+s+U#r+3@A#z#^#y#x#_#: : ] ) = $ . ",
". $ = ) ] _#:#>#]#l#m#2@3@I.I.6@7@7@6@I.I.6@7@7@6@I.I.I.I.6@7@7@6@I.I.I.I.6@7@7@6@I.I.6@7@7@6@I.I.3@2@m#l#]#>#:#_#: : ] ) = $ . ",
". $ = ) ] |@'#8#(#V#0#m#A#2.i@i@j@j@i@i@i@i@j@j@i@i@i@i@i@i@j@j@i@i@i@i@i@i@j@j@i@i@i@i@j@j@i@i@2.A#m#0#V#(#8#'#|@: : ] ) = $ . ",
". $ = ) ] W#'#;#!#<#V#l#z#v@w@w@w@w@w@w@w@w@w@w@w@w@w@w@w@w@w@w@w@w@w@w@w@w@w@w@w@w@w@w@w@w@w@w@v@z#l#V#<#!#;#'#W#: : ] ) = $ . ",
". $ = R.S.X#Y#Z#`#!# $.$^#m+m+L@L@L@L@L@L@L@L@L@L@L@L@L@L@L@L@L@L@L@L@L@L@L@L@L@L@L@L@L@L@L@L@m+m+^#.$ $!#`#Z#Y#X#+$@$] ) = $ . ",
". $ = #$$$%$&$*$=$-$-#;$>$ #`@`@`@`@`@`@`@`@`@`@`@`@`@`@`@`@`@`@`@`@`@`@`@`@`@`@`@`@`@`@`@`@`@`@ #>$;$-#-$=$*$&$%$,$'$] ) = $ . ",
". $ = )$!$~${$]$^$/$/$($^$^$^$^$^$^$^$^$^$^$^$^$^$^$^$^$^$^$^$^$^$^$^$^$^$^$^$^$^$^$^$^$^$^$^$^$^$^$($/$/$^$]${$~$_$:$] ) = $ . ",
". $ = <$[$}$|$1$2$3$3$4$4$4$4$4$4$4$4$4$4$4$4$4$4$4$4$4$4$4$4$4$4$4$4$4$4$4$4$4$4$4$4$4$4$4$4$4$4$4$4$3$3$2$1$|$}$t@_#] ) = $ . ",
". $ = <$[$}$5$+#2$4$4$4$4$4$4$4$4$4$4$4$4$4$4$4$4$4$4$4$4$4$4$4$4$4$4$4$4$4$4$4$4$4$4$4$4$4$4$4$4$4$4$4$4$2$+#5$}$t@_#] ) = $ . ",
". $ = )$!$~${$]$]$6$6$6$6$6$6$6$6$6$6$6$6$6$6$6$6$6$6$6$6$6$6$6$6$6$6$6$6$6$6$6$6$6$6$6$6$6$6$6$6$6$6$6$6$]$]${$~$_$:$] ) = $ . ",
". $ = #$7$_$t@8$8$8$8$8$8$8$8$8$8$8$8$8$8$8$8$8$8$8$8$8$8$8$8$8$8$8$8$8$8$8$8$8$8$8$8$8$8$8$8$8$8$8$9$9$8$8$8$t@_$,$'$] ) = $ . ",
". $ = 0$a$:$_#|@|@u@u@u@u@u@u@u@u@u@u@u@u@u@u@u@u@u@u@u@u@u@u@u@u@u@u@u@u@u@u@u@u@u@u@u@u@u@u@u@u@b$c$c$b$|@|@_#:$'$d$] ) = $ . ",
". $ = ) ] : : : : : : : : : : < } } < : : : : : : : : : : : : : : : : : : : : : : : : : : : : : : / G#G#/ : : : : : : ] ) = $ . ",
". $ = ) [ ( : : : : : : : : : / | | v#_ : : : : : : : : : : : : : : : : : : : : : : : : : : : : : < / / < : : : : : : ] ) = $ . ",
". $ * e$f$v#: : : : : : : : : [ 1 ' f$v#< : : : : : : : : : : : : : : : : : : : : : : : : : : : : : : : : : : : : : _ ] ' * # . ",
". $ * g$h$2 v#_ : : : : : : : [ 1 i$' | } : : : : : : : : : : : : : : : : : : : : : : : : : : : : : : : : : : : : : ( ] ' * # . ",
". ; j$k$e$h$l$v#: : : : : : : v#2 1 1 | v#: : : : : : : : : : : : : : : : : : : : : : : : : : : : : : : : : : : : < / { , & @ . ",
"  + % m$k$g$h$2 v#( : : : : : : v#/ / v#< : : : : : : : : : : : : : : : : : : : : : : : : : : : : : : : : : : _ ( / ^ ~ > % +   ",
"  . . % j$k$e$h$f$[ ] ] ] ] ] ] [ n$n$[ ] ] ] ] ] ] ] ] ] ] ] ] ] ] ] ] ] ] ] ] ] ] ] ] ] ] ] ] ] ] ] ] ] ] ] ] ] { ~ ! ; . .   ",
"    . - % m$k$g$e$) ) ) ) ) ) ) ) ) ) ) ) ) ) ) ) ) ) ) ) ) ) ) ) ) ) ) ) ) ) ) ) ) ) ) ) ) ) ) ) ) ) ) ) ) ) ' ' , > ; - .     ",
"      . . % j$* * = = = = = = = = = = = = = = = = = = = = = = = = = = = = = = = = = = = = = = = = = = = = = = * * & % . .       ",
"        . + ; $ $ $ $ $ $ $ $ $ $ $ $ $ $ $ $ $ $ $ $ $ $ $ $ $ $ $ $ $ $ $ $ $ $ $ $ $ $ $ $ $ $ $ $ $ $ $ $ # # @ + .         ",
"            . . . . . . . . . . . . . . . . . . . . . . . . . . . . . . . . . . . . . . . . . . . . . . . . . . . .             "};
