/* XPM */
static char * 9_xpm[] = {
"64 64 557 2",
"  	c #3E244B",
". 	c #3F254C",
"+ 	c #40264D",
"@ 	c #40254D",
"# 	c #51385E",
"$ 	c #52385E",
"% 	c #52395E",
"& 	c #4D345A",
"* 	c #442A51",
"= 	c #42284E",
"- 	c #462E52",
"; 	c #483154",
"> 	c #483054",
", 	c #4D335A",
"' 	c #765F82",
") 	c #776083",
"! 	c #776084",
"~ 	c #695175",
"{ 	c #4C3359",
"] 	c #452D51",
"^ 	c #523E5D",
"/ 	c #5A4863",
"( 	c #5A4763",
"_ 	c #594763",
": 	c #685075",
"< 	c #4C3259",
"[ 	c #806B8B",
"} 	c #816C8C",
"| 	c #816D8C",
"1 	c #705A7B",
"2 	c #4F365B",
"3 	c #472F53",
"4 	c #64546B",
"5 	c #63546B",
"6 	c #63536B",
"7 	c #705A7C",
"8 	c #826D8D",
"9 	c #806C8B",
"0 	c #4E355B",
"a 	c #4E355A",
"b 	c #6F5A7B",
"c 	c #6C5B75",
"d 	c #6D5B76",
"e 	c #6D5C76",
"f 	c #614D6B",
"g 	c #4A3256",
"h 	c #473053",
"i 	c #63536A",
"j 	c #614E6B",
"k 	c #6E5C76",
"l 	c #4A3156",
"m 	c #625269",
"n 	c #62536A",
"o 	c #594762",
"p 	c #483053",
"q 	c #54415D",
"r 	c #5B4C64",
"s 	c #5B4C63",
"t 	c #5B4B63",
"u 	c #422B4F",
"v 	c #493754",
"w 	c #4D3E57",
"x 	c #4D3D57",
"y 	c #533E5D",
"z 	c #594662",
"A 	c #3F274C",
"B 	c #422E4E",
"C 	c #44314E",
"D 	c #44314F",
"E 	c #44324F",
"F 	c #45324F",
"G 	c #432E4E",
"H 	c #40284D",
"I 	c #462D52",
"J 	c #452D52",
"K 	c #41274E",
"L 	c #472F52",
"M 	c #452C51",
"N 	c #40274D",
"O 	c #3E254B",
"P 	c #40284C",
"Q 	c #41294D",
"R 	c #40294D",
"S 	c #3F264C",
"T 	c #412A4E",
"U 	c #432950",
"V 	c #52385F",
"W 	c #52395F",
"X 	c #41284E",
"Y 	c #523E5C",
"Z 	c #442C51",
"` 	c #786084",
" .	c #765F83",
"..	c #775F83",
"+.	c #786184",
"@.	c #695176",
"#.	c #4D3359",
"$.	c #64546C",
"%.	c #4F365C",
"&.	c #4B3357",
"*.	c #3F244C",
"=.	c #5C4C64",
"-.	c #5C4D65",
";.	c #54425E",
">.	c #54425D",
",.	c #462F52",
"'.	c #4E3E57",
").	c #4A3754",
"!.	c #4A3854",
"~.	c #432C4F",
"{.	c #3F254B",
"].	c #5A4864",
"^.	c #7F6B8A",
"/.	c #62526A",
"(.	c #6F597B",
"_.	c #816C8B",
":.	c #4E365B",
"<.	c #3D234B",
"[.	c #6A5973",
"}.	c #6B5A74",
"|.	c #5F4C68",
"1.	c #452E51",
"2.	c #574560",
"3.	c #615168",
"4.	c #605068",
"5.	c #615169",
"6.	c #574561",
"7.	c #5F4B69",
"8.	c #6A5873",
"9.	c #5F4C69",
"0.	c #483155",
"a.	c #3C234A",
"b.	c #584860",
"c.	c #584960",
"d.	c #594960",
"e.	c #513F5A",
"f.	c #432C4E",
"g.	c #452E50",
"h.	c #57455F",
"i.	c #605167",
"j.	c #5F5067",
"k.	c #605168",
"l.	c #574460",
"m.	c #442D51",
"n.	c #56445F",
"o.	c #5F4F67",
"p.	c #5F4F66",
"q.	c #513F5B",
"r.	c #432C50",
"s.	c #4B3B53",
"t.	c #4B3C54",
"u.	c #4B3C53",
"v.	c #473551",
"w.	c #3F294C",
"x.	c #564460",
"y.	c #605067",
"z.	c #452E52",
"A.	c #42304C",
"B.	c #402C4B",
"C.	c #3D264A",
"D.	c #432B4F",
"E.	c #503C5A",
"F.	c #4F3B5A",
"G.	c #422A4F",
"H.	c #3D254A",
"I.	c #422F4C",
"J.	c #412F4C",
"K.	c #42304D",
"L.	c #412D4C",
"M.	c #3E264B",
"N.	c #3C234B",
"O.	c #3E274B",
"P.	c #3E274A",
"Q.	c #3D2449",
"R.	c #442D50",
"S.	c #3D254B",
"T.	c #3E254C",
"U.	c #3C2349",
"V.	c #3D274A",
"W.	c #3E284B",
"X.	c #3D264B",
"Y.	c #3D244B",
"Z.	c #442E51",
"`.	c #442E50",
" +	c #422A4E",
".+	c #40274E",
"++	c #483056",
"@+	c #4D345B",
"#+	c #4C345A",
"$+	c #4D355B",
"%+	c #432D50",
"&+	c #493057",
"*+	c #54435D",
"=+	c #53435D",
"-+	c #53425D",
";+	c #55425D",
">+	c #4D3957",
",+	c #472E54",
"'+	c #624B6F",
")+	c #705A7D",
"!+	c #6F597D",
"~+	c #6F587C",
"{+	c #6F597C",
"]+	c #4D3A57",
"^+	c #705A7E",
"/+	c #624B70",
"(+	c #472F55",
"_+	c #40294C",
":+	c #54445E",
"<+	c #5C4E64",
"[+	c #5B4E64",
"}+	c #5B4D64",
"|+	c #5C4D64",
"1+	c #5D4E64",
"2+	c #5E4E64",
"3+	c #54425C",
"4+	c #422B4D",
"5+	c #493156",
"6+	c #685474",
"7+	c #796685",
"8+	c #786584",
"9+	c #776483",
"0+	c #412B4D",
"a+	c #53425C",
"b+	c #5C4F64",
"c+	c #5B4E63",
"d+	c #5B4D63",
"e+	c #5A4D63",
"f+	c #5C4D63",
"g+	c #5D4D64",
"h+	c #422B4E",
"i+	c #5A4865",
"j+	c #66576F",
"k+	c #66566F",
"l+	c #65556E",
"m+	c #5C4E63",
"n+	c #5A4D64",
"o+	c #432B4E",
"p+	c #402A4C",
"q+	c #4E3D57",
"r+	c #55475D",
"s+	c #55465D",
"t+	c #422C4E",
"u+	c #45334F",
"v+	c #493A51",
"w+	c #493951",
"x+	c #5D4F64",
"y+	c #51415A",
"z+	c #51405A",
"A+	c #51415B",
"B+	c #52415B",
"C+	c #53415B",
"D+	c #4C3956",
"E+	c #3F284B",
"F+	c #3A2346",
"G+	c #3D2A48",
"H+	c #3F2E49",
"I+	c #3F2D49",
"J+	c #3F2D48",
"K+	c #3E2D48",
"L+	c #3D2947",
"M+	c #3F284A",
"N+	c #4B3955",
"O+	c #52425B",
"P+	c #51425A",
"Q+	c #3F294B",
"R+	c #4C3A56",
"S+	c #3D2948",
"T+	c #3E2948",
"U+	c #3E2949",
"V+	c #3F2A49",
"W+	c #3F2949",
"X+	c #3C2748",
"Y+	c #382244",
"Z+	c #372043",
"`+	c #382243",
" @	c #382344",
".@	c #382343",
"+@	c #382444",
"@@	c #392444",
"#@	c #372342",
"$@	c #372343",
"%@	c #372242",
"&@	c #362042",
"*@	c #382143",
"=@	c #3C2747",
"-@	c #3E2A49",
";@	c #3F2B4A",
">@	c #3E2A4A",
",@	c #452F52",
"'@	c #452F51",
")@	c #412A4D",
"!@	c #392244",
"~@	c #372041",
"{@	c #3A2545",
"]@	c #3D2847",
"^@	c #3B2646",
"/@	c #372143",
"(@	c #392346",
"_@	c #463053",
":@	c #463052",
"<@	c #453052",
"[@	c #412B4E",
"}@	c #392345",
"|@	c #351F41",
"1@	c #675275",
"2@	c #675375",
"3@	c #5A4467",
"4@	c #412A4C",
"5@	c #3A2444",
"6@	c #46344F",
"7@	c #4D3D55",
"8@	c #4D3C55",
"9@	c #4E3D55",
"0@	c #47354F",
"a@	c #5B4668",
"b@	c #685476",
"c@	c #685376",
"d@	c #5A4567",
"e@	c #402A4D",
"f@	c #685375",
"g@	c #473550",
"h@	c #351E41",
"i@	c #705D7C",
"j@	c #705E7C",
"k@	c #705E7D",
"l@	c #614D6D",
"m@	c #432D4E",
"n@	c #3C2746",
"o@	c #4D3C54",
"p@	c #56485C",
"q@	c #56475C",
"r@	c #57485C",
"s@	c #3C2847",
"t@	c #432E4F",
"u@	c #624E6E",
"v@	c #715F7D",
"w@	c #715E7D",
"x@	c #614E6D",
"y@	c #432D4F",
"z@	c #5E4E66",
"A@	c #5E4E67",
"B@	c #5E4F67",
"C@	c #3F2A4A",
"D@	c #604F67",
"E@	c #5F4E67",
"F@	c #534559",
"G@	c #4A3B52",
"H@	c #3B2645",
"I@	c #3B2745",
"J@	c #54465A",
"K@	c #54455A",
"L@	c #4C3C54",
"M@	c #3C2846",
"N@	c #3A2645",
"O@	c #47374F",
"P@	c #4E4054",
"Q@	c #4D3F54",
"R@	c #3B2746",
"S@	c #4C3C53",
"T@	c #341E40",
"U@	c #504356",
"V@	c #4F4356",
"W@	c #47384E",
"X@	c #382441",
"Y@	c #382442",
"Z@	c #48384F",
"`@	c #504357",
" #	c #514357",
".#	c #514457",
"+#	c #514458",
"@#	c #392644",
"##	c #352140",
"$#	c #3B2C44",
"%#	c #3F3246",
"&#	c #3F3146",
"*#	c #493950",
"=#	c #483950",
"-#	c #392543",
";#	c #392544",
">#	c #311C3D",
",#	c #46374F",
"'#	c #46384F",
")#	c #46374E",
"!#	c #3F2F48",
"~#	c #34203E",
"{#	c #402F48",
"]#	c #47384F",
"^#	c #41304A",
"/#	c #352240",
"(#	c #311D3C",
"_#	c #33233D",
":#	c #35263E",
"<#	c #35273E",
"[#	c #36273F",
"}#	c #34233E",
"|#	c #311D3D",
"1#	c #362241",
"2#	c #403049",
"3#	c #301A3C",
"4#	c #372442",
"5#	c #372341",
"6#	c #35213E",
"7#	c #311C3B",
"8#	c #35213F",
"9#	c #382543",
"0#	c #382542",
"a#	c #362341",
"b#	c #372441",
"c#	c #301B3B",
"d#	c #301D3C",
"e#	c #311E3C",
"f#	c #321F3D",
"g#	c #321E3D",
"h#	c #301C3C",
"i#	c #321D3E",
"j#	c #352241",
"k#	c #301B3C",
"l#	c #372340",
"m#	c #372440",
"n#	c #341F40",
"o#	c #3C2749",
"p#	c #402B4D",
"q#	c #3F2B4D",
"r#	c #341F41",
"s#	c #45374D",
"t#	c #45374C",
"u#	c #46374D",
"v#	c #47374E",
"w#	c #413049",
"x#	c #3B2648",
"y#	c #533F62",
"z#	c #604C6F",
"A#	c #5F4B6E",
"B#	c #5F4C6F",
"C#	c #604D70",
"D#	c #544062",
"E#	c #473850",
"F#	c #4D4154",
"G#	c #4D4153",
"H#	c #4C4052",
"I#	c #4B3F52",
"J#	c #4B3F51",
"K#	c #4C3F52",
"L#	c #4D4053",
"M#	c #4E4254",
"N#	c #362340",
"O#	c #3C2848",
"P#	c #584665",
"Q#	c #675675",
"R#	c #665574",
"S#	c #665573",
"T#	c #4A3E50",
"U#	c #493E4F",
"V#	c #483C4E",
"W#	c #473B4D",
"X#	c #483B4E",
"Y#	c #493D4F",
"Z#	c #423549",
"`#	c #33223D",
" $	c #352340",
".$	c #483A52",
"+$	c #52465B",
"@$	c #52455A",
"#$	c #33213D",
"$$	c #423449",
"%$	c #4A3F50",
"&$	c #42354A",
"*$	c #423748",
"=$	c #423648",
"-$	c #413547",
";$	c #403446",
">$	c #3F3346",
",$	c #413647",
"'$	c #3C2F44",
")$	c #31203B",
"!$	c #311F3A",
"~$	c #3C2F43",
"{$	c #301F3A",
"]$	c #32213C",
"^$	c #403348",
"/$	c #483D4E",
"($	c #483D4D",
"_$	c #473C4D",
":$	c #311F3B",
"<$	c #433849",
"[$	c #423749",
"}$	c #382C3F",
"|$	c #382C3E",
"1$	c #372B3E",
"2$	c #362A3D",
"3$	c #35293C",
"4$	c #372C3E",
"5$	c #35273D",
"6$	c #2F1D39",
"7$	c #2E1D38",
"8$	c #34273C",
"9$	c #413448",
"0$	c #483E4E",
"a$	c #382D3F",
"b$	c #302238",
"c$	c #302237",
"d$	c #2F2137",
"e$	c #2F2038",
"f$	c #2C1A37",
"g$	c #302338",
"h$	c #312339",
"i$	c #2F2037",
"j$	c #2C1A36",
"k$	c #301E3A",
"l$	c #3B2C43",
"m$	c #403347",
"n$	c #2C1B36",
"o$	c #2D1A35",
"p$	c #2C1A35",
"q$	c #2B1936",
"r$	c #2B1836",
"s$	c #2D1B36",
"t$	c #2D1C37",
"u$	c #32203B",
"v$	c #32213B",
"w$	c #2D1C38",
"x$	c #382545",
"y$	c #2E1C38",
"z$	c #2F1D3A",
"A$	c #372544",
"B$	c #372545",
"C$	c #342241",
"D$	c #2E1D39",
"E$	c #503F62",
"F$	c #514062",
"G$	c #473756",
"H$	c #35263F",
"I$	c #514063",
"J$	c #35273F",
"K$	c #503F61",
"L$	c #362740",
"M$	c #2C1F34",
"N$	c #564766",
"O$	c #574867",
"P$	c #4C3E59",
"Q$	c #372A40",
"R$	c #4C3E5A",
"S$	c #372B40",
"T$	c #2D2133",
"U$	c #483B51",
"V$	c #493C51",
"W$	c #493C52",
"X$	c #34283B",
"Y$	c #34283C",
"Z$	c #2D2134",
"`$	c #3C3041",
" %	c #312538",
".%	c #2E2235",
"+%	c #322638",
"@%	c #322639",
"#%	c #2F2336",
"                        . + . . . . . . . . . . . . . . + .                         @ @                         @ @             ",
"# # # # # # # # # $ % & * = - ; ; > > > > > > > > ; ; - = * & % $ # # # # # # $ % , * * , % $ # # # # # # $ % , * * , % $ # # # ",
"' ' ' ' ' ' ' ' ' ) ! ~ { ] ^ / ( _ _ _ _ _ _ _ _ ( / ^ ] { ~ ! ) ' ' ' ' ' ' ) ! : < < : ! ) ' ' ' ' ' ' ) ! : < < : ! ) ' ' ' ",
"[ [ [ [ [ [ [ [ [ } | 1 2 3 _ 4 5 6 6 6 6 6 6 6 6 5 4 _ 3 2 7 8 | 9 9 9 9 9 9 | 8 1 0 a b | } [ [ [ [ [ [ } | b a 0 1 8 | 9 9 9 ",
"c c c c c c c c c d e f g h ( 5 6 i i i i i i i i 6 5 ( h g j k e d d d d d d e k j g l f e d c c c c c c d e f l g j k e d d d ",
"m m m m m m m m m n n o h p ( 5 6 i i i i i i i i 6 5 ( > - q r s t t t t t t s r q - h o n n m m m m m m n n o h - q r s t t t ",
"n n n n n n n n n 6 5 _ h p / 4 5 6 6 6 6 6 6 6 6 5 4 / > u v w w x x x x x x w w v u > ( 5 6 n n n n n n 6 5 ( > u v w w x x x ",
"_ _ _ _ _ _ ( ( _ ( / y ] ] y / ( _ _ _ ( ( o z z o o ^ ] A B C C D E F E E E E E G H I y / ( _ ( ( o z z o o ^ ] A B C C D E F ",
"h h h h h p > > p p p J K K J p p h h > > > 3 L L L 3 M N O A P P P Q Q Q R R Q Q H S K J p p > > > 3 L L L 3 M N O A P P P Q T ",
"h h h p p J K K J p p p > > p h h p p ] K U { # # # # # # $ $ V W & * X I > > > > > ; > p p p ] K U { # # # # # # $ $ V W , * . ",
"_ _ _ ( / y ] ] y / ( _ ( ( _ _ _ ( / Y Z < ~ ` )  . . ...) ..! +.@.#.M y / / ( ( ( ( ( _ ( / Y Z < ~ ` )  . . ...) ..! +.~ ,   ",
"6 6 6 4 $./ > p ( 4 5 6 6 6 6 6 6 5 4 _ 3 2 1 | } [ [ [ [ [ [ } | 1 2 3 _ 4 5 6 6 6 6 6 6 5 4 _ 3 2 7 8 | 9 9 9 9 9 9 | 8 1 %.  ",
"6 6 6 4 $./ > p ( 5 6 i i i i i i 6 5 ( h g f e d c c c c c c d e f g h ( 5 6 i i i i i i 6 5 ( h g j k e d d d d d d e k j &.*.",
"=.=.=.=.-.;.- > ( 5 6 i i i i i i 6 5 ( p h o n n m m m m m m n n o h p ( 5 6 i i i i i i 6 5 ( > - q r s t t t t t t s r >.,.. ",
"'.'.'.'.'.).u > / 4 5 6 6 6 6 6 6 5 4 / p h _ 5 6 n n n n n n 6 5 _ h p / 4 5 6 6 6 6 6 6 5 4 / > u v w w x x x x x x w w !.~.@ ",
"C C C C C B A ] ^ o o o ( ( _ _ _ ( / y ] ] y / ( _ _ _ ( ( _ ( / y ] ] y / ( _ _ _ ( ( o o o ^ ] A B C C C C D E E D C C B H . ",
"P P P P P A O N M L L 3 > > > h h p p J K K J p p h h p > > p p p J K K J p p h h > > > 3 L L M N O A P P P P P Q Q P P P A {.  ",
"$ $ $ $ $ $ $ # # # # { U K ] p p h h p > > p h h p p J K K J p p p > > p h h p p ] K U { # # # # $ $ $ $ V W , * * , W V $ $ W ",
"............) .. .) ` ~ < Z Y / ( _ _ _ ( ( _ _ _ ( / y ] ] y / ( _ ( ( _ _ _ ( / Y Z < ~ ` )  ...) ......! +.~ < < ~ +.! ..) ) ",
"9 9 9 9 9 9 9 9 9 | 8 7 2 3 _ 4 5 6 6 6 6 6 6 6 6 5 4 ( p > / $.4 6 6 6 6 6 6 4 $.( 3 2 1 | } [ [ [ [ [ [ } | b a 0 1 8 | 9 9 9 ",
"d d d d d d d d d e k j g h ( 5 6 i i i i i i i i 6 5 ( p > / $.4 6 6 6 6 6 6 4 $./ h g f e d c c c c c c d e f l g j k e d d d ",
"t t t t t t t t t s r q - > ( 5 6 i i i i i i i i 6 5 ( > - ;.-.=.=.=.=.=.=.=.=.-.;.- h o n n m m m m m m n n o h - q r s t t t ",
"x x x x x x x x x w w v u > / 4 5 6 6 6 6 6 6 6 6 5 4 / > u ).'.'.'.'.'.'.'.'.'.'.).u > ( 5 6 n n n n n n 6 5 ( > u v w w x x x ",
"C C C C C D E F E E E G H I y / ( _ _ _ ( ( o z z o o ^ ] A B C C D E F E E E E E G H I y / ( _ ( ( o z z o o ^ ] A B C C D E F ",
"P P P P P P Q Q Q R Q H S K J p p h h > > > 3 L L L 3 M N O A P P P Q Q Q R R Q Q H S K J p p > > > 3 L L L 3 M N O A P P P Q T ",
"$ $ $ V W & * X I ; > > ; > > h h p > ] K U , # # # # # $ W $ V W & * X I ; > > > > ; > > p > ] K U , # # # # # $ W $ V W & * . ",
"......` +.@., ] y ]./ ( ( ( _ _ _ ( / ^ M { ~ ` !  . . .) ) ) ` +.@., ] y ]./ ( ( ( ( ( _ ( / ^ M { ~ ` !  . . .) ) ) ` +.~ ,   ",
"^.^.^.9 | b 0 ,.z i i /./././././.i 6 z ,.0 (._.9 ^.^.^.^.^.^.9 _.(.0 ,.z 6 i /./././././.i 6 z ,.0 b | 9 ^.^.^.^.^.^.9 | (.:.<.",
"[.[.[.}.}.|.> 1.2.3.3.4.4.4.4.4.4.5.5.6.1.> 7.}.[.8.8.8.8.8.8.[.}.7.> 1.6.5.5.4.4.4.4.4.4.5.5.6.1.> 9.}.}.[.[.[.[.[.[.}.}.9.0.a.",
"b.b.b.c.d.e.f.g.h.i.4.j.j.j.j.j.j.4.k.l.m.m.n.j.o.p.p.p.p.p.p.o.j.n.m.m.l.k.4.j.j.j.j.j.j.4.k.2.1.~.e.d.c.b.b.b.b.b.b.c.d.q.r.a.",
"s.s.s.t.u.v.w.1.2.3.k.4.4.4.4.4.4.k.3.2.1.m.x.k.y.j.j.j.j.j.j.y.k.x.m.1.2.3.k.4.4.4.4.4.4.k.3.6.z.w.v.t.t.s.s.s.s.s.s.t.t.v.R <.",
"A.A.A.A.A.B.C.D.E.2.l.x.2.l.x.n.n.x.x.F.G.G.F.x.x.n.n.x.l.2.x.l.2.E.u u E.2.l.x.x.x.2.l.x.x.x.E.u H.B.A.I.J.J.A.K.K.A.A.A.L.M.N.",
"O.O.O.O.P.C.Q.O u 1.1.1.z.1.m.R.R.R.R.G.S.S.G.R.R.R.R.m.1.z.1.1.1.u T.T.u 1.1.m.m.1.z.1.m.R.R.G.S.U.H.C.C.C.C.V.O.W.O.O.O.X.Y.a.",
"m.m.Z.m.R.R.`.R.R.R.R. +S..+++@+@+#+#+@+$+$+@+#+#+@+@+++.+S.T R.R.R.Z.Z.R.%+%+R.R.T S..+++@+@+@+$+$+$+$+$+$+$+&+.+O u Z.Z.Z.Z.Z.",
"*+*+*+=+-+-+-+-+>.>.;+>+P ,+'+)+!+~+~+{+{+{+{+~+~+!+)+'+,+P ]+*+*+=+*+*+=+-+-+*+*+]+P ,+'+)+!+{+{+{+{+{+{+)+^+/+(+_+]+:+*+*+*+*+",
"<+<+<+[+}+}+}+}+|+1+2+3+4+5+6+7+8+9+9+9+9+9+9+9+9+8+7+6+5+0+a+b+b+<+<+<+<+<+<+b+b+a+0+5+6+7+8+9+9+9+9+9+9+8+7+6+5+0+a+b+b+<+<+<+",
"c+c+c+d+d+e+e+d+f+g+1+3+h+m.i+j+k+l+l+l+l+l+l+l+l+k+j+i+m.h+a+b+<+c+c+c+c+c+c+<+b+a+h+m.i+j+k+l+l+l+l+l+l+k+j+i+m.h+a+b+<+c+c+c+",
"m+m+m+d+d+n+n+}+|+g+1+>.o+p+q+r+r+s+s+s+s+s+s+s+s+r+r+q+p+t+=+b+<+m+m+m+m+m+m+<+b+=+t+p+q+r+r+s+s+s+s+s+s+r+r+q+p+t+=+b+<+m+m+m+",
"<+<+<+<+}+}+}+}+|+1+2+;+~.P.u+v+v+w+w+w+w+w+w+w+w+v+v+u+P.~.*+x+b+<+<+<+<+<+<+b+x+*+~.P.u+v+v+w+w+w+w+w+w+v+v+u+P.~.*+x+b+<+<+<+",
"y+y+y+y+z+z+A+B+B+C+C+D+E+F+G+H+I+I+I+I+H+H+J+K+K+K+K+L+F+M+N+O+P+y+O+O+y+y+y+P+O+N+M+F+L+K+K+J+H+H+I+I+I+I+H+G+F+Q+R+O+O+O+O+O+",
"S+S+S+S+S+T+U+V+W+W+V+X+Y+Z+`+ @.@.@.@+@@@+@.@#@$@$@$@%@&@*@=@-@T+-@;@;@-@S+S+U+-@=@*@&@%@$@#@.@+@@@+@.@.@.@ @`+Z+Y+X+>@-@>@;@;@",
",@,@,@,@'@)@!@~@{@]@]@]@S+S+S+S+S+S+S+^@/@(@t+_@_@:@:@:@:@:@<@<@<@[@}@}@[@<@<@,@,@<@:@:@:@_@_@t+(@/@^@S+S+S+S+S+S+S+]@]@]@^@/@|@",
"1@1@1@2@1@3@4@5@6@7@7@8@7@7@7@7@7@9@9@0@{@[@a@b@c@1@1@2@2@2@1@2@c@d@e@e@d@c@f@1@1@1@2@2@2@c@b@a@[@{@0@9@9@7@7@7@7@7@8@7@9@g@^@h@",
"i@i@i@j@k@l@m@n@o@p@p@q@q@q@q@q@q@p@r@7@s@t@u@v@w@i@i@i@i@i@i@w@v@x@y@y@l@w@k@i@i@i@i@i@i@k@w@x@t@s@7@r@p@q@q@q@q@q@q@p@r@9@T+|@",
"z@z@z@A@B@-+W+]@8@p@q@q@q@q@q@q@q@q@p@7@]@C@*+D@o.E@E@E@E@E@E@o.D@*+C@C@>.o.o.z@z@z@z@z@z@o.o.>.C@]@7@p@q@q@q@q@q@q@q@q@p@9@T+|@",
"F@F@F@F@F@G@H@I@s.J@J@K@K@K@K@K@K@J@J@L@M@N@O@P@P@Q@Q@Q@Q@Q@Q@P@P@O@N@R@s.J@F@F@F@F@F@F@F@F@J@s.R@n@S@J@J@K@K@K@K@K@K@J@J@L@s@T@",
"U@U@U@U@V@W@X@Y@Z@`@ #U@`@`@`@`@`@.#+#v+@###$#%#%#&#&#&#&#&#&#%#%#$###@#*#.#`@U@U@U@U@U@U@`@.#=#-#;#w++#.#`@`@`@`@`@`@.#+#w+@#>#",
",#,#,#'#)#!#~#~#{#)#W@W@]#]#)#)#)#)#'#^#/#(#_#:#:#:#:#:#<#[#:#:#:#}#|#1#^#]#]#,#,#]#]#]#)#)#'#2#####2#'#)#)#)#)#]#]#]#]#]#^#1#3#",
"4#4#4#4#5#6#7#7#8#5#4#4#9#0#4#a#a#b#b###|#c#d#e#e#e#e#e#f#f#f#g#g#|#h#i#1#4#4#4#4#4#9#0#4#5#b###>#>###b#b#a#a#4#0#9#4#4#4#j#i#k#",
"4#4#4#4#5#l#m#m#l#b#Y@1#i#n#o#p#p#q#q#p#p#p#p#p#p#p#p#o#r#i#1#9#9#9#9#9#Y@4#4#Y@Y@1#i#n#o#p#p#p#p#p#p#q#q#p#p#o#n#i#1#Y@Y@Y@9#9#",
"]#]#]#,#)#s#t#u#u#v#]#w###x#y#z#z#A#A#A#B#B#B#B#B#z#C#D#o#/#^#=#E#]#]#]#]#]#]#]#]#^###x#y#z#z#A#B#B#A#A#A#z#z#y#x###^#]#]#]#]#]#",
"F#F#F#G#H#I#J#J#K#L#M#s#N#O#P#Q#R#S#S#S#S#S#S#S#S#R#Q#P#O#N#s#M#F#F#F#F#F#F#F#F#M#s#N#O#P#Q#R#S#S#S#S#S#S#R#Q#P#O#N#s#M#M#F#F#F#",
"T#T#T#U#V#W#W#W#X#Y#T#Z#`# $.$+$@$@$@$@$@$@$@$@$@$@$+$.$ $#$$$%$T#U#U#U#U#U#U#T#%$$$#$ $.$+$@$@$@$@$@$@$@$@$+$.$ $`#&$%$%$T#T#T#",
"*$*$*$=$-$;$>$>$;$,$*$'$)$!$~$*$*$,$,$,$,$,$,$,$,$*$*$~${$]$^$/$($_$_$_$_$_$_$($/$^$]${$~$*$*$,$,$,$,$,$,$*$*$~$!$:$'$<$[$*$*$*$",
"}$}$}$|$1$2$3$3$2$4$|$5$6$7$8$|$|$4$4$4$4$4$4$4$4$|$|$8$7$]$9$0$/$($($($($($($/$0$9$]$7$8$|$|$4$4$4$4$4$4$|$|$8$7$6$5$a$a$}$}$}$",
"b$b$b$b$c$d$d$d$d$c$b$e$f$f$e$g$g$b$b$g$h$h$g$b$b$g$g$i$j$k$l$m$m$m$^$^$m$m$m$m$m$l$k$j$i$g$g$g$h$h$g$b$b$g$g$e$f$f$e$g$g$g$h$h$",
"n$n$n$n$o$o$p$p$o$o$n$j$q$r$j$n$n$n$n$s$t$t$s$n$n$n$n$j$r$f$k$u$)$v$]$]$v$)$)$u$u$k$f$r$j$n$n$s$t$t$s$n$n$n$n$j$r$r$j$n$n$s$t$w$",
"x$x$x$x$x$/#y$y$/#x$x$x$x$x$x$x$x$x$x$j#z$z$j#x$x$x$x$x$x$x$A$B$B$C$D$D$C$B$B$A$A$A$x$x$x$x$x$j#z$z$j#x$x$x$x$x$x$x$x$x$x$j#z$n$",
"E$E$E$F$F$G$H$H$G$F$F$E$E$E$E$E$E$F$I$G$J$J$G$I$F$E$E$E$E$E$K$E$F$G$H$H$G$F$E$K$K$K$E$E$E$F$I$G$J$J$G$I$F$E$E$E$E$E$E$F$I$G$L$M$",
"N$N$N$O$O$P$Q$Q$P$O$O$N$N$N$N$N$N$O$O$P$Q$Q$P$O$O$N$N$N$N$N$N$O$O$P$Q$Q$P$O$O$N$N$N$N$N$N$O$O$P$Q$Q$P$O$O$N$N$N$N$N$N$O$O$R$S$T$",
"U$U$U$V$W$&$X$X$&$W$V$U$U$U$U$U$U$V$W$&$X$X$&$W$V$U$U$U$U$U$U$V$W$&$X$X$&$W$V$U$U$U$U$U$U$V$W$&$X$X$&$W$V$U$U$U$U$U$U$V$W$&$Y$Z$",
"`$`$`$`$`$|$ % %|$`$`$`$`$`$`$`$`$`$`$|$ % %|$`$`$`$`$`$`$`$`$`$`$|$ % %|$`$`$`$`$`$`$`$`$`$`$|$ % %|$`$`$`$`$`$`$`$`$`$`$|$ %.%",
"+%+%+%+%@% %#%#% %@%+%+%+%+%+%+%+%+%@% %#%#% %@%+%+%+%+%+%+%+%+%@% %#%#% %@%+%+%+%+%+%+%+%+%@% %#%#% %@%+%+%+%+%+%+%+%+%@% %#%.%",
"Z$Z$Z$Z$Z$.%.%.%.%Z$Z$Z$Z$Z$Z$Z$Z$Z$Z$.%.%.%.%Z$Z$Z$Z$Z$Z$Z$Z$Z$Z$.%.%.%.%Z$Z$Z$Z$Z$Z$Z$Z$Z$Z$.%.%.%.%Z$Z$Z$Z$Z$Z$Z$Z$Z$Z$.%.%.%"};
