/* XPM */
static char * Warrior_Blue_down_xpm[] = {
"64 64 67 1",
" 	c #40264D",
".	c #3F254C",
"+	c #42274F",
"@	c #462C54",
"#	c #492E57",
"$	c #492E56",
"%	c #462B53",
"&	c #543863",
"*	c #5C3E6B",
"=	c #5B3E6A",
"-	c #161C2E",
";	c #41274E",
">	c #462B54",
",	c #4F335D",
"'	c #5C3D6B",
")	c #624372",
"!	c #614272",
"~	c #3E8698",
"{	c #553863",
"]	c #5C3E6C",
"^	c #5B3C6B",
"/	c #5A3B6B",
"(	c #5AB3AC",
"_	c #5F4070",
":	c #593A6A",
"<	c #553666",
"[	c #553667",
"}	c #563767",
"|	c #573868",
"1	c #404E75",
"2	c #5A3B6A",
"3	c #593A69",
"4	c #5E3F6F",
"5	c #614271",
"6	c #5E3F6E",
"7	c #644574",
"8	c #583969",
"9	c #5D3E6D",
"0	c #5C3D6D",
"a	c #D5B583",
"b	c #EFE1AB",
"c	c #FFFFFF",
"d	c #977B6B",
"e	c #EDE6AC",
"f	c #573767",
"g	c #5F406F",
"h	c #5B3D6B",
"i	c #5A3C6B",
"j	c #49305A",
"k	c #4A315B",
"l	c #4B335B",
"m	c #4B335C",
"n	c #503760",
"o	c #4B325B",
"p	c #482F5A",
"q	c #634473",
"r	c #4C335C",
"s	c #523962",
"t	c #533A63",
"u	c #4F365F",
"v	c #654675",
"w	c #624373",
"x	c #553C64",
"y	c #543763",
"z	c #5E406E",
"A	c #50345E",
"B	c #5A3A6A",
"      ....................................................      ",
"    .+@##$$$$$$$$$$$$$$$$$$$$$$$$$$$$$$$$$$$$$$$$$$$$$$##@+.    ",
"   ..%&**==============-----------=====================**&%..   ",
"  .;>,'))!!!!!!!!!!!!!!-----~~~----!!!!!!!!!!!!!!!!!!!!))',>;.  ",
" ..>{]^//////////////---((~~~~~~~~-//////////////////////^]{>.. ",
" +%,]_:<[}}}}}}}}}}}---~~((((((~~~~--}}}}}}}}}}}}}}}}}}[<:_],%+ ",
".@&'^:|}}}}}}}}}}}}}--((((~~((~~~~~--}}}}}}}}}}}}}}}}}}}}|:^'&@.",
".#*)/<}}}}}}}}}}}}}}-(((((~(((((-~11-}}}}}}}}}}}}}}}}}}}}}</)*#.",
".#*)/[}}}}}}}}}}}}}}-((((~(((((---~1--}}}}}}}}}}}}}}}}}}}}[/)*#.",
".$=!/}}}}}}}}}}}}}}}-((((~(((((---~1--}}}}}}}}}|:223|}}}}}}/!=$.",
".$=!/}}}}}}}}}}}}}}}--~((~(((((-1~111-}}}}}}}}}345563}}}}}}/!=$.",
".$=!/}}}}}}}}}}}}}}}--(((-((((~-1111--}}}}}}}}}34)752}}}}}}/!=$.",
".$=!/}}}}}}}}}}}}}}}--~((-((((~-1111--}}}}}}}}}|89)52}}}}}}/!=$.",
".$=!/}}}}}}}}}}}}}}}}--~(-~(((~-111--}}}}}}}}}}}[844:}}}}}}/!=$.",
".$=!/}}}}}}}}}}}}}}}}}-~((-((~-------}}}}}}}}}}}}|33|}}}}}}/!=$.",
".$=!/}}}}}}}}|33|}}}}}--((-((~------}}}}}}}}}}}}}}}}}}}}}}}/!=$.",
".$=!/}}}}}}}[8448[}}}----(~--(---}}}}}}}}}}}}}}}}}}}}}}}}}}/!=$.",
".$=!/}}}}}}|80))08|}---aa11-1-ba--}}}}}}}}}}}}}}}}}}}}}}}}}/!=$.",
".$=!/}}}}}}34)77)43}--aaab--1bba---}}}}}}}}}}}}}}}}}}}}}}}}/!=$.",
".$=!/}}}}}}34)77)43-----ccccccc--d--}}}}}}}}}}}}}}}}}}}}}}}/!=$.",
".$=!/}}}}}}|80))08--daa---aaacaaaad--}}}}}}}}}}}}}}}}}}}}}}/!=$.",
".$=!/}}}}}}}[8448[--daaabbbbbbbadd---}}}}}}}}}}}}}}}}}}}}}}/!=$.",
".$=!/}}}}}}}}|33|--daaaabc--cbbaaad--}}}}}}}}}}}}}}}}}}}}}}/!=$.",
".$=!/}}}}}}}}}}}}--daaabcc--ccbbaaad--}}}}}}}}}}}}}}}}}}}}}/!aa.",
".$=!/}}}}}}}}}}}}--daaabbb--bbbbbaad--}}}}}}}}}}}}}}}}}}}}}/aaa.",
".$=!/}}}}}}}}}}}--daaabbbc--cbbbaabdd-}}}}}}}}}}}}}}}}}}}}aacaa.",
".$=!/}}}}}}}}}}}---daabbcc---ccbbaaad--}}}}}}}}}}}}}}}}a-accc-$.",
".$=!/}}}}}}}}}}}-dddaabccc---cbbbaaad--}}}}}}}}}}}}}}}}a-ccce-$.",
".$=----}}}}}}}}}-dda--------------aad--}}}}}}}}}}}}}}}acecce-=$.",
".$=--a--}}}}}}}}-ddaa-------------add--}}}}}}}}}}}}|--cecaae-=$.",
".$=---aa-}}}}}}}-ddaab----------bbadd--}}}}}}}}}}}[:--ceaaae-=$.",
".$=----aa--}}}}}-ddaabbbb----bbbbbad---}}}}}}}}}}|:-eeeaae--!=$.",
".$=-----a---}}}}---dabbcc----bbbbbaadd-}}}}}}}}}[:--eeaaaa--!=$.",
".$=--~~~-aa---}}--daabbbcc---ccbbbaad--}}}}}}}}|:--eeaaaa-f/!=$.",
".$=--~~~~ddaaa----dababbbb---bbbbaaad-}}}}}--}}:-ee-aaa--g:2!=$.",
".$=--~~~~~aaaaaa---aaabbbc--bbbbbaaad-}}}}---}}--ee-aaa--g:2!=$.",
".$=--~~~~aaa----ee--aabbbbb-ccbbaaa---}}---((---ed-aaa-hi8f/!=$.",
".$=--~~~~aaaaaa--a---abbbcccbbbbaa---}}}-(--~-aa--aa--h_:<</!=$.",
".$=--~~~(eeeaaaa-a----abbbbbbbbba---}}}}((~---aa-aaa--i:|}}/!=$.",
".$=--~~~((eeeaaa-a-----bbbbbbbb-----}}}}-~~--a--daa-gg:[}}}/!=$.",
".$=--~~~~(aeeaaa-a--11----bbb---11--}}}}--~~---dd--|::|}}}}/!=$.",
".$=--a~~~~eaeaaa-a--111---bb----111-}}----~~~-ddd--}}}}}}}}/!=$.",
".$=--aaae(aaaaaada--~~111----111~~--}}--dd-~~1-----}}}}}}}}/!=$.",
".$=--aaeee~aaaaada--~~~~11--111~~~-}}--ddaa--11--~-}}}}}}}}/!=$.",
".$=--aaaae~~~aaada--~~~~~11111~~~1-}}--daaa--111-~~-}}}}}}}/!=$.",
".$=!-aaaae((((~a-a--~~~~~~~~~~~~11-}}---aaaa--11---}}}}}}}}/!=$.",
".$=!/-aaaa~((~~~-a--11~~~~~~~~11---}-----daa------}}}}}}}}}/!=$.",
".$=!/-aaaaa~~~~~-d--11111111111---}}--1----------}}}}}}}}}}/!=$.",
".$=!/}--aaa~~~~~d-----------------}}---------}}}}}}}}}}}}}}/!=$.",
".$=!/}}--aa~~~----}---}}}}}}}}----}}}}}}}}}}}}}}}}}}}}}}}}}/!=$.",
".$=!/}}}-aa~~~-d-}}---jjjjjjj}}---}}}}}}}}}}}}}}}}}}}}}}}}}/!=$.",
".$=!/}}}}--~~---jjjj---jjjjjjjj---}}}}}}}}}}}}}}}|::|}}}}}}/!=$.",
".$=!/}}}}}---d-jjjj----jjjjjjj---jj}}}}}}}}}}}}}}:gg:}}}}}}/!=$.",
".$=!/}}}}}}---jkll-----jjjjjj-----jj}}}}}}}}}}}}}:gg:}}}}}}/!=$.",
".$=!2<}}}}}}-jjmnnopjjjjjjjjjjjj--jj}}}}}}}}}}}}}|::|}}}}}}/!=$.",
".$*q98}}}}}}}jjrstuokjjjjjjjjjjjjjj}}}}}}}}}}}}}}}}}}}}}}}[/)*#.",
".$*vw68[}}}}}}jrsxtnljjjjjjjjjjjjjj}}}}}}}}}}}}}}}}}}}}}}}</)*#.",
".>yzqw08}}}}}}}86ssnojjjjjjjjjjj}}}}}}}}}}}}}}}}}}}}}}}}}|:^'&@.",
" +%Azvw68<}}}}}}8::8|}}}}}}}}}}}}}}}}}}}}}}}}}}}}}}}}}}[<:_],%+ ",
" ..%yzqw92//////2BB2/////////////////////////////////////^]{>.. ",
"  .;%Azvq!!!!!!!!!!!!!!!!!!!!!!!!!!!!!!!!!!!!!!!!!!!!!!))',>;.  ",
"   ..%y**==============================================**&%..   ",
"    .+>$$$$$$$$$$$$$$$$$$$$$$$$$$$$$$$$$$$$$$$$$$$$$$$$##@+.    ",
"      ....................................................      "};
