/* XPM */
static char * Warrior_Blue_up_xpm[] = {
"64 64 53 1",
" 	c #40264D",
".	c #3F254C",
"+	c #42274F",
"@	c #462C54",
"#	c #492E57",
"$	c #492E56",
"%	c #161C2E",
"&	c #462B53",
"*	c #543863",
"=	c #5C3E6B",
"-	c #5B3E6A",
";	c #5AB3AC",
">	c #41274E",
",	c #462B54",
"'	c #4F335D",
")	c #5C3D6B",
"!	c #624372",
"~	c #614272",
"{	c #553863",
"]	c #5C3E6C",
"^	c #5B3C6B",
"/	c #5A3B6B",
"(	c #3E8698",
"_	c #5F4070",
":	c #593A6A",
"<	c #553666",
"[	c #553667",
"}	c #563767",
"|	c #404E75",
"1	c #D5B583",
"2	c #573868",
"3	c #FFFFFF",
"4	c #5A3B6A",
"5	c #593A69",
"6	c #EDE6AC",
"7	c #5E3F6F",
"8	c #614271",
"9	c #5E3F6E",
"0	c #644574",
"a	c #583969",
"b	c #5D3E6D",
"c	c #EFE1AB",
"d	c #5C3D6D",
"e	c #977B6B",
"f	c #49305A",
"g	c #5F406F",
"h	c #634473",
"i	c #654675",
"j	c #624373",
"k	c #543763",
"l	c #5E406E",
"m	c #50345E",
"n	c #5A3A6A",
"      ....................................................      ",
"    .+@##$$$$$$$$$$$$$$$$$$$$$%%%%%%%%%%$$$$$$$$$$$$$$$##@+.    ",
"   ..&*==--------------------%%%%;;;;%%%%--------------==*&..   ",
"  .>,')!!~~~~~~~~~~~~~~~~~~~%%;;;%;;;;;;%%%~~~~~~~~~~~~!!)',>.  ",
" ..,{]^////////////////////%%;;;%%;;;;((;%%//////////////^]{,.. ",
" +&']_:<[}}}}}}}}}}}}}}}}}}%;;;;%%;;;((((|%%}}}}}}}}}}}[<:_]'&+ ",
".@*)^12}}}}}}}}}}}}}}}}}}}}%;;;(%;;;((((((|%}}}}}}}}}}}}}2:^)*@.",
".#=!/11}}}}}}}}}}}}}}}}}}}%%;;;((;;;(((%((|%}}}}}}}}}}}}}}</!=#.",
".#=!/111}}}}}}}}}}}}}}}}}}%%(;;(;;;;(((%((|%}}}}}}}}}}}}}}[/!=#.",
".$-~/%311}}}}}}}}}}}}}}}}}%;;;;(;;;((((%((%%}}}2:4452}}}}}}/~-$.",
".$-~/%6311}}}}}}}}}}}}}}}}%%;;;(;;;;(((%((%%}}}578895}}}}}}/~-$.",
".$-~/%6331}}}}}}}}}}}}}}}}%%;;;;;;;;(((%((%}}}}57!084}}}}}}/~-$.",
".$-~/%63331}}}}}}}}}}}}}}}}%((;;;;;(((%|(%%}}}}2ab!84}}}}}}/~-$.",
".$-~/%613331}}}}}}}}}}}}}}}%%%((((((%%%|%%}}}}}}[a77:}}}}}}/~-$.",
".$-~/%61333%}}}}}}}}}}}}}}}}%%%(((((%%||%%}}}}}}}2552}}}}}}/~-$.",
".$-~/%%6113%%2552}}}}}}}}}}}}}%%%%%%%||%%%}}}}}}}}}}}}}}}}}/~-$.",
".$-~/}%11166%a77a[}}}}}}}}}}}%%cc%||||%c%%%}}}}}}}}}}}}}}}}/~-$.",
".$-~/}%%1166%%!!da2}}}}}}}}}%%%cc%%%%|%ccc%}}}}}}}}}}}}}}}}/~-$.",
".$-~/}}%11166%00!75}}}}}}}}%%%%3333cc33c%%%%%}}}}}}}}}}}}}}/~-$.",
".$-~/}}%111%6%00!75}}}}}}}}%eee%%%%33311eee%%}}}}}}}}}}}}}}/~-$.",
".$-~/}}}%11%66%!da2}}}}}}}}%eee11cccccc11ee%%}}}}}}}}}}}}}}/~-$.",
".$-~/}}}%%1%e6%%a[}}}}}}}}%%ee111cccccc111ee%%%}}}}}}}}}}}}/~-$.",
".$-~/}}}%%11%6%%2}}}}}}}}}%%ee11ccccccc111ee%%%%}}}}}}}}}}}/~-$.",
".$-~/}}}}%11%61%}}%%}}}}}%%e1111cc3333cc11eee%1%%}}}}}}}}}}/~-$.",
".$-~/}}}}}%11%11%%;;%}}}}%%ee111ccc33ccc111ee%%11%%}}}}}}}}/~-$.",
".$-~/}}}}}%11%11%%;;%%}}}%%eee111cc3cccc11eee%%%1%%%}}}}}}}/~-$.",
".$-~/}}}}}%%1%%1%%%%;%}}%%eee1ccccc333cc1111ee%%%11%%%}}}}}/~-$.",
".$-~/}}}}}%%ee%%1%%;;%}}%%ee111c33333ccc1111e%%%e%%ee%%%}}}/~-$.",
".$-~/}}}}}%%%e%%%%(((%}}%%ee111cc3333ccc111eee%%eeee11%%%}}/~-$.",
".$-~/}}}}%%|%%%%((((%}}}%%ee111cccccccccc11eee%%eee%%%66166%~-$.",
".$-~/}}}%%%%%|||(%%%%}}}%%eee11cc333ccc11111e%%%eeeeee%%%11%~-$.",
".$-~/}}}}%%%%|||%%ee%%}}%%%e111cc33cc11111111e%%eeeeeeee%11%~-$.",
".$-~/}}}}}%||%%%111e%%}}%%%ee11cc3333ccc111eee%%eeeeeeee%61%~-$.",
".$-~/}}}}}%%%%%1111e%%}}}%%eeeeccc333ccce11ee%%eeeeeeeee%11%~-$.",
".$-~/}}}}}%%%%%1111e%%}}}%%eeee11ccccccce11ee%%eeeeeeeeee11%~-$.",
".$-~/}}}}}}}}%%%%e%%%%}}}%%%ee1111ccc111eeee%%%eeeeeeeeee11%~-$.",
".$-~/}}}}}}}}}}%%%%|%%}}}}}%%eee11cc1cceee%%%|%%eeeeeeeee11%~-$.",
".$-~/}}}}}}}}}}}%%%|%%}}}}}%%%ee11111ccee%%%%|%%eeeeeeeee11%~-$.",
".$-~/}}}}}}}}}}}}}%%%%}}}}%%%%%%%%%%%%%%%%%||||%eeeeeeee%11%~-$.",
".$-~/}}}}}}}}}}}}}}}}}}}}}%%|||%%%%%%%%|||||||%%%eeeeeee%e1%~-$.",
".$-~/}}}}}}}}}}}}}}}}}}}}%%|||||||||||||||||||%%%eeeeeee%e1%~-$.",
".$-~/}}}}}}}}}}}}}}}}}}}}%%||((((((((|||||(((||%%eeeeeee%ee%~-$.",
".$-~/}}}}}}}}}}}}}}}}}}}}}%||(((((((((((((||||%%%eeeeeeee%%/~-$.",
".$-~/}}}}}}}}}}}}}}}}}}}}}%%||((((((((((((|(|||%%eeeeee%e%%/~-$.",
".$-~/}}}}}}}}}}}}}}}}}}}}}}%||(((((((((((((|||%%}%%eee%%%}}/~-$.",
".$-~/}}}}}}}}}}}}}}}}}}}}}}%%%|((((((((((||||%%}}}%%%%e%}}}/~-$.",
".$-~/}}}}}}}}}}}}}}}}}}}}}}}%%|||(((((((|||||%%}}}}%%%%%}}}/~-$.",
".$-~/}}}}}}}}}}}}}}}}}}}}}}}%%%%%%%%%%%%%%%%%}}}}}}}%%}}}}}/~-$.",
".$-~/}}}}}}}}}}}}}}}}}}}}}}%%%%%%}}}}%%%%%%%}}}}}}}}}}}}}}}/~-$.",
".$-~/}}}}}}}}}}}}}}}}}}}}}}%%%%}}}}}}}}}%%%}}}}}}}}}}}}}}}}/~-$.",
".$-~/}}}}}}}}}}}}}}}}}}}}}}}%%%fffffffff%%%ff}}}}}}}}}}}}}}/~-$.",
".$-~/}}}}}}}}}}}}}}}}}}}}}}}f%%ffffffff%%%fffff}}2::2}}}}}}/~-$.",
".$-~/}}}}}}}}}}}}}}}}}}}}}}%%%%%fffffff%%%%ffffff:gg:}}}}}}/~-$.",
".$-~/}}}}}}}}}}2552}}}}}}}fffffffffffffffffffffff:gg:}}}}}}/~-$.",
".$-~4<}}}}}}}}}:77a[}}}}}}fffffffffffffffffffffff2::2}}}}}}/~-$.",
".$=hba}}}}}}}}}48!ba2}}}}}}ffffffffffffffffffffff}}}}}}}}}[/!=#.",
".$=ij9a[}}}}}}}480!75}}}}}}}fffffffffffffffffff}}}}}}}}}}}</!=#.",
".,klhjda}}}}}}}a9887a}}}}}}}}}fffffffffffffff}}}}}}}}}}}}2:^)*@.",
" +&mlij9a<}}}}}}a::a2}}}}}}}}}}}}}}}}}}}}}}}}}}}}}}}}}}[<:_]'&+ ",
" ..&klhjb4//////4nn4/////////////////////////////////////^]{,.. ",
"  .>&mlih~~~~~~~~~~~~~~~~~~~~~~~~~~~~~~~~~~~~~~~~~~~~~~!!)',>.  ",
"   ..&k==----------------------------------------------==*&..   ",
"    .+,$$$$$$$$$$$$$$$$$$$$$$$$$$$$$$$$$$$$$$$$$$$$$$$$##@+.    ",
"      ....................................................      "};
