/* XPM */
static char * 8_xpm[] = {
"64 64 49 1",
" 	c #40264D",
".	c #3F254C",
"+	c #42274F",
"@	c #462C54",
"#	c #492E57",
"$	c #492E56",
"%	c #462B53",
"&	c #543863",
"*	c #5C3E6B",
"=	c #5B3E6A",
"-	c #41274E",
";	c #462B54",
">	c #4F335D",
",	c #5C3D6B",
"'	c #624372",
")	c #614272",
"!	c #553863",
"~	c #5C3E6C",
"{	c #5B3C6B",
"]	c #5A3B6B",
"^	c #5F4070",
"/	c #593A6A",
"(	c #553666",
"_	c #553667",
":	c #563767",
"<	c #573868",
"[	c #5A3B6A",
"}	c #593A69",
"|	c #5E3F6F",
"1	c #614271",
"2	c #5E3F6E",
"3	c #644574",
"4	c #583969",
"5	c #5D3E6D",
"6	c #5C3D6D",
"7	c #5F406F",
"8	c #5A3C6B",
"9	c #5B3D6B",
"0	c #4E325D",
"a	c #543763",
"b	c #452B53",
"c	c #573767",
"d	c #634473",
"e	c #654675",
"f	c #624373",
"g	c #5E406E",
"h	c #50345E",
"i	c #5A3A6A",
"j	c #FFFFFF",
"      ....................................................      ",
"    .+@##$$$$$$$$$$$$$$$$$$$$$$$$$$$$$$$$$$$$$$$$$$$$$$##@+.    ",
"   ..%&**==============================================**&%..   ",
"  .-;>,''))))))))))))))))))))))))))))))))))))))))))))))'',>;-.  ",
" ..;!~{]]]]]]]]]]]]]]]]]]]]]]]]]]]]]]]]]]]]]]]]]]]]]]]]]]{~!;.. ",
" +%>~^/(_::::::::::::::::::::::::::::::::::::::::::::::_(/^~>%+ ",
".@&,{/<::::::::::::::::::::::::::::::::::::::::::::::::::</{,&@.",
".#*'](::::::::::::::::::::::::::::::::::::::::::::::::::::(]'*#.",
".#*']_::::::::::::::::::::::::::::::::::::::::::::::::::::_]'*#.",
".$=)]::::::::::::::::::::::::::::::::::::::::::</[[}<::::::])=$.",
".$=)]::::::::::::::::::::::::::::::::::::::::::}|112}::::::])=$.",
".$=)]::::::::::::::::::::::::::::::::::::::::::}|'31[::::::])=$.",
".$=)]::::::::::::::::::::::::::::::::::::::::::<45'1[::::::])=$.",
".$=)]:::::::::::::::::::::::::::::::::::::::::::_4||/::::::])=$.",
".$=)]::::::::::::::::::::::::::::::::::::::::::::<}}<::::::])=$.",
".$=)]::::::::<}}<::::::::::::::::::::::::::::::::::::::::::])=$.",
".$=)]:::::::_4||4_:::::::::::::::::::::::::::::::::::::::::])=$.",
".$=)]::::::<46''64<::::::::::::::::::::::::::::::::::::::::])=$.",
".$=)]::::::}|'33'|}::::::::::::::::::::::::::::::::::::::::])=$.",
".$=)]::::::}|'33'|}::::::::::::::::::::::::::::::::::::::::])=$.",
".$=)]::::::<46''64<::::::::::::::::::::::::::::::::::::::::])=$.",
".$=)]:::::::_4||4_:::::::::::::::::::::::::::::::::::::::::])=$.",
".$=)]::::::::<}}<::::::::::::::::::::::::::::::::::::::::::])=$.",
".$=)]::::::::::::::::::::::::::::::::::::::::::::::::::::::])=$.",
".$=)]::::::::::::::::::::::::::::::::::::::::::::::::::::::])=$.",
".$=)]::::::::::::::::::::::::::::::::::::::::::::::::::::::])=$.",
".$=)]::::::::::::::::::::::::::::::::::::::::::::::::::::::])=$.",
".$=)]::::::::::::::::::::::::::::::::::::::::::::::::::::::])=$.",
".$=)]::::::::::::::::::::::::::::::::::::::::::::::::::::::])=$.",
".$=)]::::::::::::::::::::::::::::::::::::::::::::::<//<::::])=$.",
".$=)]:::::::::::::::::::::::::::::::::::::::::::::_/77/_:::])=$.",
".$=)]::::::::::::::::::::::::::::::::::::::::::::</8998/<::])=$.",
".$=)]:::::::::::::::::::::::::::::::::::::::::::_/^9009^/((])=$.",
".$=)]::::::::::::::::::::::::::::::::::::::::::</89abba984c])=$.",
".$=)]::::::::::::::::::::::::::::::::::::::::::/790b--b097/[)=$.",
".$=)]::::::::::::::::::::::::::::::::::::::::::/790b--b097/[)=$.",
".$=)]::::::::::::::::::::::::::::::::::::::::::</89abba984c])=$.",
".$=)]:::::::::::::::::::::::::::::::::::::::::::_/^9009^/((])=$.",
".$=)]::::::::::::::::::::::::::::::::::::::::::::</8998/<::])=$.",
".$=)]:::::::::::::::::::::::::::::::::::::::::::::_/77/_:::])=$.",
".$=)]::::::::::::::::::::::::::::::::::::::::::::::<//<::::])=$.",
".$=)]::::::::::::::::::::::::::::::::::::::::::::::::::::::])=$.",
".$=)]::::::::::::::::::::::::::::::::::::::::::::::::::::::])=$.",
".$=)]::::::::::::::::::::::::::::::::::::::::::::::::::::::])=$.",
".$=)]::::::::::::::::::::::::::::::::::::::::::::::::::::::])=$.",
".$=)]::::::::::::::::::::::::::::::::::::::::::::::::::::::])=$.",
".$=)]::::::::::::::::::::::::::::::::::::::::::::::::::::::])=$.",
".$=)]::::::::::::::::::::::::::::::::::::::::::::::::::::::])=$.",
".$=)]::::::::::::::::::::::::::::::::::::::::::::::::::::::])=$.",
".$=)]::::::::::::::::::::::::::::::::::::::::::::::::::::::])=$.",
".$=)]::::::::::::::::::::::::::::::::::::::::::::::::::::::])=$.",
".$=)]::::::::::::::::::::::::::::::::::::::::::::<//<::::::])=$.",
".$=)]::::::::::::::::::::::::::::::::::::::::::::/77/::::::])=$.",
".$=)]::::::::::<}}<::::::::::::::::::::::::::::::/77/::::::])=$.",
".$=)[(:::::::::/||4_:::::::::::::::::::::::::::::<//<::::::])=$.",
".$*d54:::::::::[1'54<:::::::::::::::::::::::::::::::::::::_]'*#.",
".$*ef24_:::::::[13'|}:::::::::::::::::::::::::::::::::::::(]'*#.",
".;agdf64:::::::4211|4::::::::::::::::::::::::::::::::::::</{,&@.",
" +%hgef24(::::::4//4<::::::::::::::::::::::::::::::::::_(/^~>%+ ",
" ..%agdf5[]]]]]][ii[]]]]]]]]]]]]]]]]]]]]]]]]]]]]]]]]]]]]]{~!;.. ",
"  .-%hged))))))))))))))))))))))))))))))))))))))))))))))'',>;-.  ",
"   ..%a**==============================================**&%..   ",
"    .+;$$$$$$$$$$$$$$$$$$$$$$$$$$$$$$$$$$$$$$$$$$$$$$$$##@+.    ",
"      ....................................................      "};
